<?xml version="1.0" standalone="no"?>
<!DOCTYPE svg PUBLIC "-//W3C//DTD SVG 1.1//EN" "http://www.w3.org/Graphics/SVG/1.1/DTD/svg11.dtd" >
<svg xmlns="http://www.w3.org/2000/svg" xmlns:xlink="http://www.w3.org/1999/xlink" version="1.1">
<metadata>
Created by FontForge 20201107 at Sat Jan 28 07:03:03 2023
 By 
Copyright (c) 2023 by Zelow Type.
</metadata>
<defs>
<font id="ZTGatha-SemiBold" horiz-adv-x="588" >
  <font-face 
    font-family="ZT Gatha SemBd"
    font-weight="600"
    font-stretch="normal"
    units-per-em="1000"
    panose-1="0 0 0 0 0 0 0 0 0 0"
    ascent="800"
    descent="-200"
    x-height="505"
    cap-height="701"
    bbox="-58 -311 1234 945"
    underline-thickness="80"
    underline-position="-80"
    unicode-range="U+000D-FB04"
  />
<missing-glyph horiz-adv-x="500" 
 />
    <glyph glyph-name="f_f" unicode="ff" horiz-adv-x="585" 
d="M528 657q-20 0 -37 -7.5t-30 -20.5t-20 -30.5t-7 -36.5v-56h92v-100h-92v-406h-100v406h-154v-406h-100v406h-71v100h71v28q0 41 15 76.5t41.5 62t62 41.5t76.5 15h153q22 13 47.5 20.5t52.5 7.5h55v-100h-55zM334 506v56q0 18 3.5 34.5t10.5 32.5h-73q-20 0 -37.5 -7.5
t-30 -20.5t-20 -30.5t-7.5 -36.5v-28h154z" />
    <glyph glyph-name="fi" unicode="fi" horiz-adv-x="503" 
d="M80 562q0 40 15 75.5t41.5 62.5t62 42t75.5 15h152v-100h-152q-20 0 -37 -7.5t-30 -20.5t-20 -30.5t-7 -36.5v-56h92v-100h-92v-406h-100v406h-71v100h71v56zM325 0v505h101v-505h-101z" />
    <glyph glyph-name="fl" unicode="fl" horiz-adv-x="497" 
d="M439 757v-757h-100v657h-64q-20 0 -37.5 -7.5t-30 -20.5t-20 -30.5t-7.5 -36.5v-56h92v-100h-92v-406h-100v406h-71v100h71v56q0 40 15 76t41.5 62.5t62 41.5t76.5 15h164z" />
    <glyph glyph-name="f_f_i" unicode="ffi" horiz-adv-x="738" 
d="M680 757v-100h-152q-20 0 -37 -7.5t-30 -20.5t-20 -30.5t-7 -36.5v-56h92v-100h-92v-406h-100v406h-154v-406h-100v406h-71v100h71v28q0 41 15 76.5t41.5 62t62 41.5t76.5 15h153q22 13 47.5 20.5t52.5 7.5h152zM334 506v56q0 18 3.5 35t10.5 32h-73q-20 0 -37.5 -7.5
t-30 -20t-20 -30t-7.5 -37.5v-28h154zM579 0v505h101v-505h-101z" />
    <glyph glyph-name="f_f_l" unicode="ffl" horiz-adv-x="749" 
d="M693 757v-757h-100v657h-65q-20 0 -37 -7.5t-30 -20.5t-20 -30.5t-7 -36.5v-56h92v-100h-92v-406h-100v406h-154v-406h-100v406h-71v100h71v28q0 41 15 76.5t41.5 62t62 41.5t76.5 15h153q22 13 47.5 20.5t52.5 7.5h165zM334 506v56q0 18 3.5 35t10.5 32h-73
q-20 0 -37.5 -7.5t-30 -20t-20 -30t-7.5 -37.5v-28h154z" />
    <glyph glyph-name=".notdef" horiz-adv-x="500" 
 />
    <glyph glyph-name=".null" horiz-adv-x="0" 
 />
    <glyph glyph-name=".null" horiz-adv-x="0" 
 />
    <glyph glyph-name="uni000D" unicode="&#xd;" horiz-adv-x="160" 
 />
    <glyph glyph-name="space" unicode=" " horiz-adv-x="300" 
 />
    <glyph glyph-name="exclam" unicode="!" horiz-adv-x="247" 
d="M177 701l-10 -514h-84l-11 514h105zM125 123q28 0 47.5 -19.5t19.5 -47.5q0 -29 -19.5 -48.5t-47.5 -19.5q-29 0 -48.5 19.5t-19.5 48.5q0 28 19.5 47.5t48.5 19.5z" />
    <glyph glyph-name="quotedbl" unicode="&#x22;" horiz-adv-x="419" 
d="M178 701l-17 -260h-71l-17 260h105zM350 701l-17 -260h-71l-17 260h105z" />
    <glyph glyph-name="numbersign" unicode="#" horiz-adv-x="530" 
d="M444 676l-26 -191h89v-75h-101l-19 -138h94v-75h-106l-27 -197h-74l28 197h-113l-27 -197h-74l27 197h-91v75h104l18 138h-94v75h105l27 191h73l-27 -191h114l27 191h73zM201 272h113l18 138h-112z" />
    <glyph glyph-name="dollar" unicode="$" horiz-adv-x="489" 
d="M217 739h78v-106q34 -4 73.5 -13t86.5 -26l-35 -94q-63 23 -101 28.5t-62 5.5q-11 0 -30.5 -2t-37 -10.5t-24.5 -14.5q-18 -15 -22 -30t-4 -26q0 -6 1 -12q4 -28 33 -46t88 -37q25 -8 55.5 -19.5t58.5 -30t49 -46.5t27 -68q3 -16 3 -31q0 -31 -14 -67t-51 -66
q-16 -12 -39.5 -24t-57.5 -17v-109h-78v104q-38 2 -82.5 13t-99.5 32l37 93q63 -25 102.5 -31.5t65.5 -6.5q8 0 27.5 1.5t37 9.5t24.5 13q19 16 23 32t4 27q0 6 -1 12q-4 28 -33 46t-88 37q-25 7 -55.5 19t-58 30.5t-49 46t-27.5 67.5q-2 15 -2 29q0 32 13 67.5t49 65.5
q17 14 45 27.5t71 18.5v108z" />
    <glyph glyph-name="percent" unicode="%" horiz-adv-x="885" 
d="M285 0h-82l403 701h81zM203 701q78 0 126.5 -54.5t48.5 -153.5t-48.5 -153.5t-126.5 -54.5q-77 0 -125.5 54.5t-48.5 153.5t48.5 153.5t125.5 54.5zM288 493q0 15 -2.5 36t-11 41t-25.5 34.5t-46 14.5q-28 0 -44.5 -14.5t-25.5 -34.5t-11.5 -41t-2.5 -36q0 -14 2.5 -35.5
t11.5 -41t25.5 -34t44.5 -14.5q29 0 46 14.5t25.5 34t11 41t2.5 35.5zM687 421q78 0 126 -54t48 -153q0 -100 -48 -154.5t-126 -54.5q-77 0 -125.5 54.5t-48.5 154.5q0 99 48.5 153t125.5 54zM772 214q0 13 -2.5 34.5t-11 41.5t-25.5 34t-46 14t-45.5 -14t-25.5 -34
t-11 -41.5t-2 -34.5q0 -15 2 -36.5t11 -41.5t25.5 -34t45.5 -14t46 14t25.5 34t11 41.5t2.5 36.5z" />
    <glyph glyph-name="ampersand" unicode="&#x26;" horiz-adv-x="719" 
d="M120 534q0 32 12.5 64t37.5 57.5t62 41.5t86 16q38 0 70 -11t55.5 -31t36.5 -49t13 -63q0 -56 -38 -101.5t-122 -82.5v-4q24 -26 47 -51t45 -47.5t41 -42.5t34 -35q25 33 45 80.5t31 117.5h101q-16 -89 -42.5 -153t-70.5 -111q35 -36 65.5 -67.5t61.5 -61.5h-136
q-16 14 -31.5 30t-34.5 34q-47 -39 -100 -58t-118 -19q-58 0 -102 16.5t-74 44t-45.5 63t-15.5 75.5q0 37 11 68t30.5 56.5t46 45t57.5 35.5v3q-27 31 -43 67.5t-16 72.5zM395 555q0 15 -5 30t-15.5 27.5t-26 20t-36.5 7.5q-22 0 -39 -8t-28 -21t-16.5 -30t-5.5 -35
q0 -35 16.5 -64t39.5 -55q26 15 47.5 29t37 29t23.5 31.5t8 38.5zM432 127l-35.5 35.5t-48 48.5t-56.5 59t-60 65q-14 -8 -30 -20t-29.5 -27.5t-22 -36.5t-8.5 -46q0 -29 11 -54t30.5 -42.5t46 -27.5t59.5 -10q46 0 82.5 16t60.5 40z" />
    <glyph glyph-name="quotesingle" unicode="'" horiz-adv-x="233" 
d="M168 701l-17 -260h-71l-17 260h105z" />
    <glyph glyph-name="parenleft" unicode="(" horiz-adv-x="287" 
d="M250 778q-29 -39 -52.5 -84.5t-40.5 -98.5t-26.5 -114.5t-9.5 -132.5q0 -70 9.5 -130t27 -112.5t41.5 -97.5t51 -85h-85q-25 33 -49.5 75t-44 94t-31.5 116.5t-12 140.5q0 77 12 141t31.5 117t44 95t49.5 76h85z" />
    <glyph glyph-name="parenright" unicode=")" horiz-adv-x="288" 
d="M38 -77q27 40 50.5 85t41 97.5t27.5 113t10 131.5q0 70 -9.5 131.5t-27 114t-41 98t-51.5 84.5h84q25 -34 49.5 -76t44 -94.5t32 -117t12.5 -141.5q0 -76 -12.5 -140t-32 -116.5t-44 -94.5t-49.5 -75h-84z" />
    <glyph glyph-name="asterisk" unicode="*" horiz-adv-x="458" 
d="M366 659l-106 -133v-2l165 25v-82l-165 22v-2l106 -129l-74 -42l-63 153h-2l-67 -153l-69 42l105 129v3l-162 -23v82l161 -24v2l-104 132l73 41l64 -152h2l64 152z" />
    <glyph glyph-name="plus" unicode="+" horiz-adv-x="613" 
d="M344 627v-238h238v-75h-238v-242h-78v242h-239v75h239v238h78z" />
    <glyph glyph-name="comma" unicode="," horiz-adv-x="265" 
d="M34 -125q10 26 20 59.5t19 68.5t16 70t12 66l122 11q-10 -36 -24 -74t-28.5 -73.5t-29 -67t-28.5 -53.5z" />
    <glyph glyph-name="hyphen" unicode="-" horiz-adv-x="323" 
d="M25 390h273v-79h-273v79z" />
    <glyph glyph-name="period" unicode="." horiz-adv-x="236" 
d="M46 68q0 34 21 55t53 21q34 0 54 -21t21 -55q0 -31 -20.5 -53t-54.5 -22q-33 0 -53.5 22t-20.5 53z" />
    <glyph glyph-name="slash" unicode="/" horiz-adv-x="497" 
d="M477 700l-374 -755h-82l372 755h84z" />
    <glyph glyph-name="zero" unicode="0" horiz-adv-x="606" 
d="M575 339q0 -81 -20 -146t-56 -110.5t-86 -70t-110 -24.5t-110 24.5t-86 70t-55.5 110.5t-19.5 146t19.5 146t55.5 110t86 69.5t110 24.5t110 -24.5t86 -69.5t56 -110t20 -146zM133 339q0 -36 7.5 -79.5t26.5 -81.5t52.5 -63.5t83.5 -25.5q52 0 85 25.5t52.5 63.5t27 81.5
t7.5 79.5t-7.5 79.5t-27 81t-52.5 63.5t-85 26q-50 0 -83.5 -26t-52.5 -63.5t-26.5 -81t-7.5 -79.5z" />
    <glyph glyph-name="one" unicode="1" horiz-adv-x="360" 
d="M289 676v-676h-100v577l-126 -66l-21 86l160 79h87z" />
    <glyph glyph-name="two" unicode="2" horiz-adv-x="596" 
d="M63 102q52 35 111.5 82.5t112.5 98t92 99.5t49 88q3 12 3 23q0 15 -7 32t-25 32.5t-43 23t-49 7.5q-43 0 -79 -14t-62.5 -30t-42 -30l-15.5 -14l-65 75q2 2 21 20t53.5 38.5t82.5 37.5t107 17q48 0 94 -18.5t78.5 -51.5t43 -66t10.5 -55q0 -26 -9 -53q-12 -42 -42 -86
t-72.5 -88.5t-94.5 -87.5t-109 -81h343v-101h-486v102z" />
    <glyph glyph-name="three" unicode="3" horiz-adv-x="565" 
d="M244 89q47 0 79 10t51.5 26.5t27.5 37t8 41.5q0 34 -18 56t-46 35.5t-62 19t-66 5.5h-67v83h68q25 0 55 6t56 18.5t43.5 31.5t17.5 47q0 17 -8 32.5t-25.5 27.5t-42.5 19t-58 7q-47 0 -87 -13.5t-66 -30.5l-43 83q33 23 89.5 40t120.5 17q56 0 97 -13.5t68.5 -36.5
t41 -53t13.5 -62q0 -54 -33.5 -95.5t-101.5 -63.5v-2q34 -6 63 -20.5t50.5 -36.5t34 -50.5t12.5 -62.5q0 -42 -18 -79t-52 -65t-85 -44.5t-117 -16.5q-34 0 -65.5 5t-59.5 13t-50 17.5t-35 18.5l42 88q11 -6 28 -13t39.5 -13.5t48 -10t52.5 -3.5z" />
    <glyph glyph-name="four" unicode="4" horiz-adv-x="605" 
d="M477 676v-398h102v-100h-102v-178h-100v178h-342v72l312 426h130zM149 278h228v310z" />
    <glyph glyph-name="five" unicode="5" horiz-adv-x="525" 
d="M222 434q62 0 112.5 -14t87 -42t54.5 -67.5t18 -88.5v-11q-2 -45 -23 -85.5t-57 -71.5t-85 -48.5t-107 -17.5q-51 0 -104 10.5t-94 34.5l44 92q19 -13 59 -25t95 -12q34 0 63 6.5t52 21.5t37.5 38.5t18.5 56.5q1 6 1 12q0 16 -5 36.5t-23 39.5t-52.5 31.5t-91.5 12.5
q-34 0 -78 -6t-86 -19q3 20 6 42t6.5 48t7.5 55t8 62.5t9.5 71t10.5 79.5h349v-100h-261l-20 -146q12 2 24 3t24 1z" />
    <glyph glyph-name="six" unicode="6" horiz-adv-x="614" 
d="M346 453q48 0 89.5 -15.5t71.5 -44.5t47 -70.5t17 -91.5q0 -48 -17.5 -92t-51 -77.5t-79.5 -53.5t-103 -20q-62 0 -111.5 21t-84 60t-53 93.5t-18.5 119.5q0 97 33.5 174t92.5 130t132 77.5t149 24.5q17 0 34 -1l1 -89h-16q-47 0 -97 -10.5t-95 -37.5t-76.5 -69.5
t-40.5 -103.5h2q14 16 31.5 30t39 24t47.5 16t56 6zM320 88q31 0 57.5 9.5t46 27t31 42.5t11.5 56q0 39 -11.5 66.5t-32.5 45.5t-49.5 26t-61.5 8q-34 0 -68.5 -17t-56.5 -45q-9 -13 -15 -26.5t-6 -30.5q0 -32 9 -61.5t28 -51.5t48 -35.5t70 -13.5z" />
    <glyph glyph-name="seven" unicode="7" horiz-adv-x="550" 
d="M519 601l-314 -601h-113l300 576h-347v100h474v-75z" />
    <glyph glyph-name="eight" unicode="8" horiz-adv-x="600" 
d="M414 360q65 -22 103.5 -64.5t38.5 -105.5q0 -46 -19.5 -83.5t-53.5 -64t-81.5 -41t-102.5 -14.5q-60 0 -106.5 15.5t-79 41t-49 59.5t-16.5 71q0 62 35 105.5t102 69.5v3q-59 25 -85 65t-26 85q0 41 18 75t49 58.5t74 38.5t93 14q57 0 98.5 -14.5t68.5 -39t40 -55
t13 -62.5q0 -21 -6 -43t-19.5 -42.5t-35 -38t-53.5 -30.5v-3zM177 509q0 -47 37 -74.5t101 -40.5q44 11 75.5 39t31.5 73q0 18 -6.5 36.5t-21 33t-37.5 24t-56 9.5q-31 0 -54 -8.5t-39 -22t-23.5 -32t-7.5 -37.5zM303 69q32 0 58 8.5t44.5 23.5t28.5 35t10 42q0 29 -11 50.5
t-31.5 37.5t-49.5 27t-65 19q-61 -13 -95.5 -45.5t-34.5 -78.5v-4q0 -21 10 -41.5t29 -37t46 -26.5t61 -10z" />
    <glyph glyph-name="nine" unicode="9" horiz-adv-x="612" 
d="M305 688q61 0 109.5 -21t82 -60t52 -93t18.5 -120q0 -97 -33 -174.5t-91.5 -131t-132 -77.5t-148.5 -24q-17 0 -35 1v90q14 -1 27 -1q42 0 89 10.5t91.5 38t75.5 71t41 103.5h-3q-29 -34 -72.5 -54t-101.5 -20q-48 0 -88.5 15.5t-70.5 44.5t-46.5 69.5t-16.5 89.5
t18.5 92.5t51.5 77.5t80 53.5t103 19.5zM307 309q39 0 75 18t57 48q6 9 11 21.5t5 26.5q0 33 -8.5 63t-27 53t-47.5 36t-69 13q-31 0 -57.5 -9.5t-46 -27.5t-31 -43t-11.5 -56q0 -37 11.5 -64t31.5 -44.5t47.5 -26t59.5 -8.5z" />
    <glyph glyph-name="colon" unicode=":" horiz-adv-x="240" 
d="M120 505q34 0 54 -21t21 -54q0 -32 -20.5 -53.5t-54.5 -21.5q-33 0 -53.5 21.5t-20.5 53.5q0 33 21 54t53 21zM120 150q34 0 54 -21t21 -54q0 -32 -20.5 -53.5t-54.5 -21.5q-33 0 -53.5 21.5t-20.5 53.5q0 33 21 54t53 21z" />
    <glyph glyph-name="semicolon" unicode=";" horiz-adv-x="249" 
d="M145 355q-33 0 -53.5 21.5t-20.5 53.5t20.5 53.5t54.5 21.5q33 0 53 -21.5t21 -53.5q0 -32 -20.5 -53.5t-54.5 -21.5zM212 161q-11 -36 -24 -74t-27.5 -74t-29.5 -67t-28 -53l-79 -8q9 27 19 60t18.5 68.5t16.5 70.5t12 66z" />
    <glyph glyph-name="less" unicode="&#x3c;" horiz-adv-x="572" 
d="M527 545l-400 -192v-3l400 -192v-83l-487 242v69l487 242v-83z" />
    <glyph glyph-name="equal" unicode="=" horiz-adv-x="612" 
d="M37 501h536v-73h-536v73zM37 291h536v-74h-536v74z" />
    <glyph glyph-name="greater" unicode="&#x3e;" horiz-adv-x="573" 
d="M533 384v-69l-487 -242v83l401 192v3l-401 192v83z" />
    <glyph glyph-name="question" unicode="?" horiz-adv-x="455" 
d="M223 617q-28 0 -48 -8t-32 -21t-17 -29t-5 -31q0 -5 1 -11h-97q-1 8 -1 17q0 32 11 64t36 57.5t63.5 40.5t88.5 15q55 0 95 -14.5t65.5 -40.5t35 -57t9.5 -63q0 -9 -1 -19q-4 -38 -18 -63.5t-33 -46.5t-40.5 -40t-39 -43t-29.5 -57.5t-12 -81.5h-95q0 55 11 94t27.5 67
t37.5 47.5t39.5 38t32.5 39t18 48.5q2 11 2 20q0 12 -4 26t-17 26.5t-34.5 19t-49.5 6.5zM213 -15q-27 0 -47 19.5t-20 48.5q0 28 20 47.5t47 19.5q28 0 48 -19.5t20 -47.5q0 -29 -20 -48.5t-48 -19.5z" />
    <glyph glyph-name="at" unicode="@" horiz-adv-x="828" 
d="M448 712q73 0 133.5 -24t105 -66t69 -99.5t24.5 -127.5q0 -53 -16 -95.5t-43 -72.5t-62.5 -46.5t-74.5 -16.5q-17 0 -32.5 5t-27.5 16t-19 28t-7 41h-4q-27 -44 -64 -67t-90 -23q-24 0 -46.5 9.5t-39 27t-26.5 43t-10 57.5q0 49 19 93t53 77t80.5 51.5t101.5 18.5
q38 0 71.5 -7t54.5 -17l-32 -185q-6 -31 -6 -53q0 -18 6 -37t32 -20h3q19 0 38 10.5t35.5 32t27 54t10.5 74.5q0 57 -18 105t-53.5 83t-86.5 55.5t-116 20.5t-123.5 -23t-102 -65.5t-68.5 -103t-25 -136.5q0 -65 21 -118t59.5 -90.5t90 -57.5t112.5 -20q46 0 89 9t76 27
l17 -52q-46 -23 -92.5 -32t-103.5 -9q-68 0 -129.5 24t-108.5 68t-74 105.5t-27 136.5q0 79 28 150t80 124.5t125.5 85.5t165.5 32zM497 367l18 101q-9 2 -22 5t-31 3q-34 0 -64 -13t-52 -35.5t-34 -53t-12 -65.5q0 -34 17.5 -56.5t54.5 -22.5q22 0 42.5 12.5t38 31.5t29 44
t15.5 49z" />
    <glyph glyph-name="A" unicode="A" horiz-adv-x="685" 
d="M416 701l252 -701h-107l-75 209h-283l-75 -209h-107l252 701h143zM239 310h212l-107 292z" />
    <glyph glyph-name="B" unicode="B" horiz-adv-x="593" 
d="M45 701h284q38 0 72 -14.5t59 -40t39.5 -59t14.5 -72.5q0 -36 -13 -67.5t-36 -54.5q44 -29 70 -75.5t26 -102.5q0 -44 -17 -83.5t-46 -68.5t-68 -46t-84 -17h-301v701zM146 430h183q18 0 33.5 7t27 18.5t18 27t6.5 32.5q0 18 -6.5 33.5t-18 27t-27 18.5t-33.5 7h-183
v-171zM461 215q0 24 -9 45t-24.5 36.5t-36.5 24.5t-45 9h-200v-229h200q24 0 45 9t36.5 24.5t24.5 36.5t9 44z" />
    <glyph glyph-name="C" unicode="C" horiz-adv-x="679" 
d="M641 98q-48 -51 -113 -80t-140 -29q-73 0 -137.5 28t-112.5 77.5t-75.5 115t-27.5 140.5t27.5 141t75.5 115t112.5 77.5t137.5 28.5q75 0 140 -29t113 -80l-71 -71q-34 38 -81 59t-101 21q-52 0 -98 -20.5t-80.5 -56t-54.5 -83t-20 -102.5q0 -54 20 -101.5t54.5 -83
t80.5 -56t98 -20.5q54 0 101 21.5t81 58.5z" />
    <glyph glyph-name="D" unicode="D" horiz-adv-x="707" 
d="M318 701q72 0 136 -27.5t111.5 -75t75 -111.5t27.5 -136q0 -73 -27.5 -136.5t-75 -111.5t-111.5 -75.5t-136 -27.5h-266v701h266zM153 601v-500h165q52 0 97.5 19.5t79 53.5t53 79.5t19.5 97.5t-19.5 97.5t-53 79.5t-79 53.5t-97.5 19.5h-165z" />
    <glyph glyph-name="E" unicode="E" horiz-adv-x="545" 
d="M486 701v-100h-330v-187h312v-101h-312v-212h347v-101h-448v701h431z" />
    <glyph glyph-name="F" unicode="F" horiz-adv-x="524" 
d="M156 313v-313h-101v701h431v-100h-330v-187h312v-101h-312z" />
    <glyph glyph-name="G" unicode="G" horiz-adv-x="708" 
d="M676 120q-29 -37 -59 -62.5t-64.5 -40.5t-74.5 -21.5t-89 -6.5q-73 0 -137.5 28.5t-112.5 77.5t-76 115t-28 141t28 140.5t76 115t112.5 77.5t137.5 28q74 0 139 -29t113 -80l-71 -71q-34 38 -80.5 59.5t-100.5 21.5q-53 0 -98.5 -20.5t-80 -56t-54.5 -83.5t-20 -102
q0 -55 20 -102t54.5 -82.5t80 -56t98.5 -20.5q59 0 108 16.5t79 59.5v127h-206v100h306v-273z" />
    <glyph glyph-name="H" unicode="H" horiz-adv-x="682" 
d="M154 0h-101v701h101v-286h374v286h100v-701h-100v314h-374v-314z" />
    <glyph glyph-name="I" unicode="I" horiz-adv-x="225" 
d="M62 701h100v-701h-100v701z" />
    <glyph glyph-name="J" unicode="J" horiz-adv-x="295" 
d="M231 39q0 -46 -17.5 -86.5t-47 -70t-70 -47t-85.5 -17.5h-69v100h69q25 0 47 9.5t38 26t25.5 38t9.5 47.5v662h100v-662z" />
    <glyph glyph-name="K" unicode="K" horiz-adv-x="631" 
d="M155 259v-259h-101v701h101v-299l299 299h142l-287 -287l307 -414h-125l-254 342z" />
    <glyph glyph-name="L" unicode="L" horiz-adv-x="537" 
d="M57 0v701h101v-600h341v-101h-442z" />
    <glyph glyph-name="M" unicode="M" horiz-adv-x="828" 
d="M706 0l-52 539l-53 -198l-125 -341h-127l-125 341l-53 198l-52 -539h-101l68 701h113l213 -581l214 581h113l67 -701h-100z" />
    <glyph glyph-name="N" unicode="N" horiz-adv-x="712" 
d="M187 700l367 -564v562h100v-700h-131l-366 563v-561h-101v700h131z" />
    <glyph glyph-name="O" unicode="O" horiz-adv-x="777" 
d="M388 711q73 0 137 -28t112 -77.5t76 -115t28 -140.5t-28 -141t-76 -115t-112 -77.5t-138 -28.5q-73 0 -137.5 28.5t-112 77.5t-75.5 115t-28 141t28 140.5t75.5 115t112 77.5t138.5 28zM387 611q-52 0 -98 -20.5t-80.5 -56t-54 -83t-19.5 -101.5t19.5 -101.5t54 -83
t80.5 -56t98 -20.5q53 0 99 20.5t80.5 56t54.5 83t20 101.5t-20 101.5t-54.5 83t-80.5 56t-99 20.5z" />
    <glyph glyph-name="P" unicode="P" horiz-adv-x="563" 
d="M318 701q46 0 86.5 -17.5t71 -48t48 -71t17.5 -86.5q0 -50 -18 -91t-52.5 -70.5t-86 -46t-117.5 -16.5q-39 0 -68 3.5t-51 8.5v-266h-101v701h271zM267 355q33 0 64 6t55.5 20t39 37.5t14.5 59.5q0 25 -9.5 47.5t-26 39t-39 26.5t-47.5 10h-170v-232q15 -4 44 -9t75 -5z
" />
    <glyph glyph-name="Q" unicode="Q" horiz-adv-x="777" 
d="M742 349q0 -67 -23 -128t-63 -108.5t-95 -79t-118 -41.5v-157h-101v156q-65 8 -121 39.5t-97 79.5t-65 109.5t-24 129.5q0 75 28 141t76 115t112 77.5t138 28.5q73 0 137.5 -28.5t112 -77.5t75.5 -115t28 -141zM389 88q52 0 98 20.5t80.5 56t54.5 83t20 101.5t-20 102
t-54.5 83.5t-80.5 56t-98 20.5q-53 0 -99 -20.5t-80.5 -56t-54 -83.5t-19.5 -102t19.5 -101.5t54 -83t80.5 -56t99 -20.5z" />
    <glyph glyph-name="R" unicode="R" horiz-adv-x="586" 
d="M456 0l-153 285h-143v-285h-101v701h286q43 0 81 -16.5t66.5 -44.5t44.5 -66t16 -81q0 -34 -10.5 -65.5t-29.5 -57t-45 -45t-56 -29.5l157 -296h-113zM345 386q23 0 42.5 8.5t34 23t23 34t8.5 41.5t-8.5 42t-23 34.5t-34 23t-42.5 8.5h-185v-215h185z" />
    <glyph glyph-name="S" unicode="S" horiz-adv-x="546" 
d="M298 399q42 -13 81 -30t69 -42t47 -59t17 -82v-5q-1 -47 -21 -83t-53 -60.5t-75.5 -37t-88.5 -12.5q-47 0 -105 12t-133 42l38 93q60 -24 110 -35t91 -11q24 0 48.5 4.5t44 16.5t31.5 30t12 44v4q0 26 -13.5 45t-35 32t-46.5 22t-47 16q-41 13 -79 29.5t-68 41
t-47.5 59.5t-17.5 84q0 48 20 84.5t53 61t76.5 36.5t88.5 12t101.5 -11t127.5 -40l-37 -93q-55 22 -103.5 33.5t-89.5 11.5q-24 0 -48 -5t-44 -17t-32.5 -29.5t-12.5 -44.5q0 -28 13.5 -47.5t35 -32.5t46.5 -21.5t46 -15.5z" />
    <glyph glyph-name="T" unicode="T" horiz-adv-x="647" 
d="M33 701h583v-100h-242v-601h-100v601h-241v100z" />
    <glyph glyph-name="U" unicode="U" horiz-adv-x="659" 
d="M522 701h100v-420q0 -66 -18.5 -119.5t-55.5 -92.5t-91.5 -60t-126.5 -21t-126.5 21t-91.5 60t-56 92.5t-19 119.5v420h101v-420q0 -48 12 -84t36 -60t60 -36t84 -12t84 12t60 36t36 60t12 84v420z" />
    <glyph glyph-name="V" unicode="V" horiz-adv-x="689" 
d="M675 701l-258 -701h-143l-258 701h107l222 -603l223 603h107z" />
    <glyph glyph-name="W" unicode="W" horiz-adv-x="992" 
d="M872 701h104l-195 -701h-131l-153 526l-153 -526h-131l-195 701h104l156 -563l163 563h112l162 -563z" />
    <glyph glyph-name="X" unicode="X" horiz-adv-x="675" 
d="M649 701l-248 -348l260 -353h-126l-197 268l-197 -268h-125l260 352l-248 349h123l187 -263l188 263h123z" />
    <glyph glyph-name="Y" unicode="Y" horiz-adv-x="635" 
d="M619 701l-250 -395v-306h-100v306l-250 395h127l173 -291l177 291h123z" />
    <glyph glyph-name="Z" unicode="Z" horiz-adv-x="628" 
d="M597 701v-66l-419 -534h424v-101h-577v66l418 535h-382v100h536z" />
    <glyph glyph-name="bracketleft" unicode="[" horiz-adv-x="308" 
d="M128 698v-696h127v-67h-212v830h212v-67h-127z" />
    <glyph glyph-name="backslash" unicode="\" horiz-adv-x="498" 
d="M23 700h83l372 -755h-82z" />
    <glyph glyph-name="bracketright" unicode="]" horiz-adv-x="307" 
d="M52 698v67h212v-830h-212v67h127v696h-127z" />
    <glyph glyph-name="asciicircum" unicode="^" horiz-adv-x="403" 
d="M236 701l132 -265h-79l-87 179h-2l-86 -179h-79l132 265h69z" />
    <glyph glyph-name="underscore" unicode="_" horiz-adv-x="458" 
d="M0 -45h456v-74h-456v74z" />
    <glyph glyph-name="grave" unicode="`" horiz-adv-x="262" 
d="M149 887l94 -125h-93l-131 125h130z" />
    <glyph glyph-name="a" unicode="a" horiz-adv-x="612" 
d="M463 507h101v-507h-101v63q-33 -35 -78 -55t-98 -20t-100.5 21t-82.5 57t-55.5 84.5t-20.5 103.5t20.5 103t55.5 84t82.5 57t100.5 21t98 -20t78 -55v63zM287 88q33 0 62 13t50.5 35.5t34 52.5t12.5 65q0 34 -12.5 64t-34 52.5t-50.5 35.5t-62 13t-61.5 -13t-50.5 -35.5
t-34.5 -52.5t-12.5 -64q0 -35 12.5 -65t34.5 -52.5t50.5 -35.5t61.5 -13z" />
    <glyph glyph-name="b" unicode="b" horiz-adv-x="614" 
d="M330 519q53 0 100.5 -21t82.5 -57t55.5 -84t20.5 -103t-20.5 -103.5t-55.5 -84.5t-82.5 -57t-100.5 -21t-98 20t-79 55v-63h-100v745h100v-301q34 35 79 55t98 20zM330 88q33 0 62 13t50.5 35.5t34 52.5t12.5 65q0 34 -12.5 64t-34 52.5t-50.5 35.5t-62 13t-62 -13
t-51 -35.5t-34.5 -52.5t-12.5 -64q0 -35 12.5 -65t34.5 -52.5t51 -35.5t62 -13z" />
    <glyph glyph-name="c" unicode="c" horiz-adv-x="495" 
d="M471 68q-36 -37 -83.5 -58.5t-101.5 -21.5t-101.5 21t-82.5 57t-55.5 84.5t-20.5 103.5t20.5 103t55.5 84t82.5 57t101.5 21t101.5 -21.5t83.5 -58.5l-71 -71q-21 24 -50.5 37.5t-63.5 13.5q-33 0 -62 -13t-50.5 -35.5t-34 -52.5t-12.5 -64q0 -35 12.5 -65t34 -52.5
t50.5 -35.5t62 -13q34 0 63.5 13.5t50.5 37.5z" />
    <glyph glyph-name="d" unicode="d" horiz-adv-x="620" 
d="M462 745h100v-745h-100v63q-34 -35 -79 -55t-98 -20t-100.5 21t-82.5 57t-55.5 84.5t-20.5 103.5t20.5 103t55.5 84t82.5 57t100.5 21t98 -20t79 -55v301zM285 88q33 0 62.5 13t51 35.5t34 52.5t12.5 65q0 34 -12.5 64t-34 52.5t-51 35.5t-62.5 13t-61.5 -13t-50 -35.5
t-34 -52.5t-12.5 -64q0 -35 12.5 -65t34 -52.5t50 -35.5t61.5 -13z" />
    <glyph glyph-name="e" unicode="e" horiz-adv-x="572" 
d="M131 226q4 -30 18 -55t35 -43.5t47.5 -29t55.5 -10.5q64 0 101.5 24t60.5 80l92 -41q-35 -82 -96.5 -122.5t-157.5 -40.5q-53 0 -100.5 21t-82.5 57t-55.5 84.5t-20.5 103.5t20.5 103t55.5 84t82.5 57t100.5 21q54 0 101.5 -21t82.5 -57t55.5 -84t20.5 -103
q0 -7 -0.5 -14t-0.5 -14h-415zM439 298q-7 26 -21.5 48t-34 38t-44 25.5t-52.5 9.5q-27 0 -52 -9.5t-44.5 -25.5t-34 -38t-20.5 -48h303z" />
    <glyph glyph-name="f" unicode="f" horiz-adv-x="330" 
d="M329 757v-100h-54q-20 0 -37.5 -7.5t-30 -20.5t-20 -30t-7.5 -37v-56h92v-100h-92v-406h-100v406h-71v100h71v56q0 41 15 76t41.5 62t62 42t76.5 15h54z" />
    <glyph glyph-name="g" unicode="g" horiz-adv-x="621" 
d="M465 506h100v-483q0 -11 -1.5 -36.5t-10 -57.5t-26.5 -66.5t-51.5 -62.5t-84 -46.5t-124.5 -18.5q-60 0 -111.5 14t-94.5 36l36 94q38 -21 81.5 -32.5t88.5 -11.5q46 0 82.5 9t62 30t39.5 57.5t14 93.5v41q-34 -37 -80 -57.5t-99 -20.5q-54 0 -101 21t-82.5 57t-56 84
t-20.5 103t20.5 103.5t56 84.5t82.5 57t101 21q53 0 99 -20.5t80 -57.5v65zM286 88q33 0 61.5 13t50 35.5t34 52.5t12.5 64q0 35 -12.5 65t-34 52.5t-50 35.5t-61.5 13t-62 -13t-51 -35.5t-34.5 -52.5t-12.5 -65q0 -34 12.5 -64t34.5 -52.5t51 -35.5t62 -13z" />
    <glyph glyph-name="h" unicode="h" horiz-adv-x="589" 
d="M316 519q48 0 89 -16.5t71 -45t47.5 -67.5t17.5 -85v-305h-101v268q0 37 -10.5 66t-29.5 48.5t-45 30t-57 10.5q-32 0 -58 -12.5t-44.5 -34.5t-28.5 -52t-10 -66v-258h-101v744h101v-299q13 19 31.5 32.5t39.5 23t43.5 14t44.5 4.5z" />
    <glyph glyph-name="i" unicode="i" horiz-adv-x="242" 
d="M122 708q28 0 48.5 -20.5t20.5 -48.5q0 -29 -20.5 -49t-48.5 -20q-30 0 -50 20t-20 49q0 28 20 48.5t50 20.5zM71 505h101v-505h-101v505z" />
    <glyph glyph-name="j" unicode="j" horiz-adv-x="250" 
d="M148 571q-29 0 -49 20t-20 49t20 49t49 20t49 -20t20 -49t-20 -49t-49 -20zM99 506h100v-575q0 -40 -15 -75.5t-41.5 -62t-62 -42t-76.5 -15.5h-55v101h55q20 0 37.5 7t30 20t20 30t7.5 37v575z" />
    <glyph glyph-name="k" unicode="k" horiz-adv-x="499" 
d="M152 744v-422l181 184h139l-193 -199l208 -307h-121l-158 233l-56 -57v-176h-100v744h100z" />
    <glyph glyph-name="l" unicode="l" horiz-adv-x="215" 
d="M57 744h101v-744h-101v744z" />
    <glyph glyph-name="m" unicode="m" horiz-adv-x="979" 
d="M702 519q47 0 88.5 -16.5t71.5 -46t47 -69t17 -85.5v-302h-100v268q0 37 -12.5 65t-32.5 47t-45.5 29t-51.5 10q-31 0 -56.5 -12t-45 -32.5t-30 -50t-10.5 -65.5v-259h-101v268q0 37 -12 65t-32 47t-45.5 29t-52.5 10q-30 0 -56 -12t-45 -33.5t-29.5 -50.5t-10.5 -65
v-258h-101v506h101v-61q13 19 31.5 32.5t39.5 23t43.5 14t44.5 4.5q32 0 61 -7.5t54 -21t45 -32.5t35 -43q14 26 35 45.5t46.5 32t53 19.5t55.5 7z" />
    <glyph glyph-name="n" unicode="n" horiz-adv-x="592" 
d="M315 519q48 0 89 -16.5t71 -45t47.5 -67.5t17.5 -85v-305h-101v268q0 37 -10 65t-28.5 47t-44 29t-53.5 10q-37 0 -64 -12t-45.5 -33.5t-28 -50.5t-9.5 -65v-258h-101v506h101v-61q13 19 31.5 32.5t39.5 23t43.5 14t44.5 4.5z" />
    <glyph glyph-name="o" unicode="o" horiz-adv-x="567" 
d="M284 519q54 0 101.5 -21t82.5 -57t55.5 -84.5t20.5 -103.5t-20.5 -103t-55.5 -84t-82.5 -57t-100.5 -21q-54 0 -101.5 21t-82.5 57t-55.5 84t-20.5 103t20.5 103.5t55.5 84.5t82.5 57t100.5 21zM284 419q-33 0 -61.5 -13t-50.5 -35.5t-34.5 -52.5t-12.5 -65
q0 -34 12.5 -64t34.5 -52.5t50.5 -35.5t61.5 -13t62.5 13t51 35.5t34 52.5t12.5 64q0 35 -12.5 65t-34 52.5t-51 35.5t-62.5 13z" />
    <glyph glyph-name="p" unicode="p" horiz-adv-x="620" 
d="M336 519q53 0 100.5 -21t82.5 -57t55.5 -84.5t20.5 -103.5t-20.5 -103t-55.5 -84t-82.5 -57t-100.5 -21t-98 20t-78 54v-300h-101v745h101v-62q33 34 78 54t98 20zM336 88q32 0 61 13t50.5 35.5t34 52.5t12.5 64q0 35 -12.5 64.5t-33.5 52.5t-50 36t-62 13t-62.5 -13
t-51 -35.5t-34 -52.5t-12.5 -65q0 -34 12.5 -64t34 -52.5t51 -35.5t62.5 -13z" />
    <glyph glyph-name="q" unicode="q" horiz-adv-x="624" 
d="M462 507h101v-745h-101v300q-33 -34 -78 -54t-98 -20t-100.5 21t-82.5 57t-55.5 84t-20.5 103t20.5 103.5t55.5 84.5t82.5 57t100.5 21t98 -20t78 -54v62zM286 88q33 0 62.5 13t51 35.5t34 52.5t12.5 64q0 35 -12.5 65t-34 52.5t-51 35.5t-62.5 13t-61.5 -13t-50.5 -35.5
t-34.5 -52.5t-12.5 -65q0 -34 12.5 -64t34.5 -52.5t50.5 -35.5t61.5 -13z" />
    <glyph glyph-name="r" unicode="r" horiz-adv-x="353" 
d="M332 516v-101h-65q-21 0 -39.5 -6t-33 -18.5t-22.5 -30t-8 -39.5v-321h-101v516h101v-59q17 27 42.5 43t60.5 16h65z" />
    <glyph glyph-name="s" unicode="s" horiz-adv-x="426" 
d="M384 165q2 -13 2 -26q0 -27 -12 -58t-43 -56q-17 -13 -47 -25t-75 -12q-34 0 -76 8.5t-95 31.5l38 93q41 -17 73 -24.5t45 -8t15 -0.5q21 0 36 4.5t24 11.5q11 9 13.5 18.5t2.5 16.5q0 5 -1 11q-2 17 -23 29.5t-62 25.5q-20 6 -44.5 15.5t-47.5 24.5t-40.5 38.5
t-22.5 56.5q-2 14 -2 27q0 27 12 57.5t43 55.5q14 12 37.5 23t47 13.5t37.5 2.5q26 0 65.5 -6t102.5 -31l-37 -94q-73 30 -97.5 30.5t-25.5 0.5q-46 0 -67 -17q-11 -8 -15 -17.5t-4 -19.5q0 -4 1 -9q3 -17 24 -29.5t63 -25.5q19 -6 44 -15.5t47.5 -25t40 -38.5t23.5 -57z
" />
    <glyph glyph-name="t" unicode="t" horiz-adv-x="337" 
d="M188 164q0 -24 6 -38t16.5 -20t26.5 -7t35 -1h35v-98h-51q-38 0 -68.5 6t-53 20.5t-35 39.5t-12.5 61v288h-63v101h63v120l101 28v-148h82v-101h-82v-251z" />
    <glyph glyph-name="u" unicode="u" 
d="M531 0h-101v61q-13 -18 -31.5 -32t-39.5 -23.5t-43.5 -13.5t-44.5 -4q-48 0 -89 16.5t-71 45t-47.5 67.5t-17.5 85v304h101v-277q0 -40 11.5 -68.5t30 -46.5t43 -26.5t51.5 -8.5q35 0 62.5 13t46.5 36t28.5 54t9.5 66v258h101v-506z" />
    <glyph glyph-name="v" unicode="v" horiz-adv-x="550" 
d="M538 506l-205 -506h-118l-205 506h108l157 -383l155 383h108z" />
    <glyph glyph-name="w" unicode="w" horiz-adv-x="884" 
d="M766 505h107l-176 -505h-124l-130 359l-130 -359h-126l-175 505h106l133 -381l137 381h109l138 -381z" />
    <glyph glyph-name="x" unicode="x" horiz-adv-x="559" 
d="M542 505l-195 -240l201 -265h-128l-140 188l-139 -188h-129l201 265l-195 240h134l128 -164l129 164h133z" />
    <glyph glyph-name="y" unicode="y" horiz-adv-x="577" 
d="M457 506h109l-325 -770h-109l111 264h-22l-209 506h108l167 -401z" />
    <glyph glyph-name="z" unicode="z" horiz-adv-x="519" 
d="M485 506v-59l-308 -346h309v-101h-456v59l309 346h-303v101h449z" />
    <glyph glyph-name="braceleft" unicode="{" horiz-adv-x="326" 
d="M112 243q0 12 -2.5 25.5t-11.5 25t-26.5 19t-46.5 8.5v60h7q24 0 40.5 7t25.5 18t11.5 25t2.5 28q0 20 -3 41.5t-5 42.5q-4 22 -6 43t-2 41q0 73 43.5 105.5t114.5 32.5h35v-67h-20q-47 0 -65 -23t-18 -65q0 -17 2.5 -33.5t4.5 -34.5q4 -19 6 -38t2 -40v-4
q0 -48 -21 -73.5t-59 -34.5v-2q38 -9 59 -35t21 -73v-4q0 -22 -2 -41.5t-6 -36.5q-2 -19 -4.5 -36t-2.5 -33q0 -44 19.5 -67t63.5 -23h20v-66h-35q-35 0 -64 7.5t-50 25t-32.5 45t-11.5 66.5q0 20 2 41t6 41q2 21 5 41.5t3 40.5z" />
    <glyph glyph-name="bar" unicode="|" horiz-adv-x="296" 
d="M112 820h82v-1040h-82v1040z" />
    <glyph glyph-name="braceright" unicode="}" horiz-adv-x="329" 
d="M235 79q0 -39 -11 -66.5t-32.5 -44.5t-50.5 -25t-64 -8h-35v66h20q44 0 63.5 23t19.5 68q0 16 -2.5 33t-4.5 35q-4 18 -6 37t-2 41v4q0 47 21 73.5t59 34.5v2q-38 9 -59 34.5t-21 73.5v4q0 21 2 40.5t6 37.5q2 18 4.5 35t2.5 33q0 43 -18 65.5t-65 22.5h-20v67h35
q71 0 114.5 -32t43.5 -105q0 -21 -2 -42t-6 -42q-2 -22 -5 -43.5t-3 -41.5q0 -14 3 -28t11.5 -25t26 -18t46.5 -7v-60q-29 -1 -46.5 -8.5t-26 -19t-11.5 -25t-3 -25.5q0 -20 3 -40.5t5 -41.5q4 -20 6 -41t2 -41z" />
    <glyph glyph-name="asciitilde" unicode="~" horiz-adv-x="481" 
d="M352 263q-36 0 -66.5 14t-55.5 30.5t-47 30.5t-41 14q-13 0 -22 -11t-14.5 -25.5t-8 -29.5t-3.5 -23l-71 9q3 24 11.5 50.5t23 49t35.5 37t49 14.5q31 0 57.5 -14t51 -30.5t49 -30.5t52.5 -14q14 0 22 8.5t11.5 21t3.5 26t-1 23.5l71 10q1 -10 1 -20q0 -17 -3 -40.5
t-15.5 -46.5t-34.5 -38t-55 -15z" />
    <glyph glyph-name="uni00A0" unicode="&#xa0;" horiz-adv-x="160" 
 />
    <glyph glyph-name="exclamdown" unicode="&#xa1;" horiz-adv-x="249" 
d="M125 578q-29 0 -48.5 19.5t-19.5 48.5q0 28 19.5 47.5t48.5 19.5q28 0 47.5 -19.5t19.5 -47.5q0 -29 -19.5 -48.5t-47.5 -19.5zM178 0h-105l10 514h84z" />
    <glyph glyph-name="cent" unicode="&#xa2;" horiz-adv-x="499" 
d="M287 418q-33 0 -62 -13t-50.5 -35.5t-34 -52.5t-12.5 -64q0 -35 12.5 -64.5t34 -52t50.5 -35.5t62 -13q34 0 63.5 13.5t50.5 36.5l71 -71q-30 -31 -68.5 -51t-83.5 -27v-101h-78v103q-46 9 -85.5 32.5t-68 58t-45 78.5t-16.5 93t16.5 93t45 78.5t68 58t85.5 31.5v104h78
v-102q45 -6 83.5 -26t68.5 -52l-71 -71q-21 24 -50.5 37.5t-63.5 13.5z" />
    <glyph glyph-name="sterling" unicode="&#xa3;" horiz-adv-x="528" 
d="M503 93v-93h-478v60q27 14 50 32.5t40 40.5t26.5 47.5t9.5 54.5q0 15 -1 28.5t-4 32.5h-113v80h100q-4 22 -6.5 48t-2.5 53q0 48 16 86.5t45.5 66.5t70 43t89.5 15q45 0 76.5 -8.5t50.5 -18.5l-22 -85q-17 9 -42 16t-61 7q-32 0 -54.5 -10t-37 -27t-20.5 -40.5t-6 -50.5
q0 -28 2.5 -51t7.5 -44h161v-80h-151q1 -26 1 -51t-7 -49q-8 -33 -25.5 -57t-40.5 -44v-2h326z" />
    <glyph glyph-name="currency" unicode="&#xa4;" horiz-adv-x="530" 
d="M510 155l-55 -55l-67 67q-26 -19 -57.5 -29.5t-65.5 -10.5q-35 0 -66 10.5t-57 29.5l-67 -67l-55 55l68 68q-18 26 -27.5 57t-9.5 65t9.5 65t27.5 57l-68 68l55 55l67 -66q26 18 57 28.5t66 10.5q34 0 65.5 -10.5t57.5 -28.5l67 66l55 -55l-68 -68q18 -26 27.5 -57
t9.5 -65t-9.5 -65t-27.5 -57zM265 205q28 0 52.5 11t43 30t29.5 44.5t11 54.5t-11 54.5t-29.5 44.5t-43 30t-52.5 11q-29 0 -53.5 -11t-43 -30t-29.5 -44.5t-11 -54.5t11 -54.5t29.5 -44.5t43 -30t53.5 -11z" />
    <glyph glyph-name="yen" unicode="&#xa5;" horiz-adv-x="619" 
d="M603 676l-236 -377h150v-58h-156v-73h156v-58h-156v-110h-101v110h-156v58h156v73h-156v58h149l-235 377h127l165 -283l170 283h123z" />
    <glyph glyph-name="brokenbar" unicode="&#xa6;" horiz-adv-x="326" 
d="M128 800h73v-400h-73v400zM128 200h73v-400h-73v400z" />
    <glyph glyph-name="section" unicode="&#xa7;" horiz-adv-x="455" 
d="M413 319q2 -13 2 -25q0 -30 -12 -62.5t-45 -58.5q22 -17 36 -39.5t19 -50.5q2 -16 2 -30q0 -28 -11 -57.5t-38.5 -53.5t-65 -36.5t-79.5 -12.5q-41 0 -91.5 12t-104.5 33l36 87q40 -16 81 -27.5t80 -11.5q19 0 38 4t34 14t21.5 23.5t6.5 26.5q0 7 -1 15q-2 15 -13.5 26
t-27 19.5t-32.5 14.5t-32 11q-29 9 -57 20.5t-51.5 28.5t-39.5 40.5t-22 56.5q-2 14 -2 27q0 29 12.5 60t45.5 58q-22 17 -37 39.5t-19 50.5q-2 15 -2 30q0 28 11.5 57.5t39 53.5t65 36t78.5 12q40 0 89 -11.5t100 -31.5l-34 -87q-38 15 -78 26t-78 11q-18 0 -37 -4.5
t-34 -13.5t-22 -23t-7 -28q0 -6 1 -12q3 -15 14 -26t26.5 -19.5t33.5 -15t32 -11.5q29 -9 57 -20t51 -28t39.5 -41t21.5 -56zM138 301q3 -17 16.5 -29.5t31.5 -21.5t37 -15t33 -10q31 5 48.5 23t17.5 43q0 6 -1 13q-3 17 -16 29t-30.5 21t-36 15t-32.5 9q-15 -2 -29 -7.5
t-23 -15.5t-13 -21.5t-4 -22.5q0 -5 1 -10z" />
    <glyph glyph-name="dieresis" unicode="&#xa8;" horiz-adv-x="387" 
d="M296 879q26 0 42.5 -17t16.5 -43q0 -23 -16.5 -41t-42.5 -18t-42.5 18t-16.5 41q0 26 17 43t42 17zM92 879q25 0 41 -17t16 -43q0 -23 -16 -41t-41 -18q-26 0 -43 18t-17 41q0 26 17 43t43 17z" />
    <glyph glyph-name="copyright" unicode="&#xa9;" horiz-adv-x="809" 
d="M403 731q80 0 149.5 -30t121 -81.5t81.5 -121t30 -148.5q0 -80 -30 -149.5t-81.5 -121t-121 -81.5t-149.5 -30q-79 0 -148.5 30t-121 82t-81.5 121.5t-30 148.5t30 148.5t82 121t121.5 81.5t147.5 30zM403 37q66 0 122.5 24.5t99.5 67t67.5 99.5t24.5 122t-25 121.5
t-67.5 99.5t-99.5 67.5t-122 24.5q-64 0 -121 -25t-99.5 -67.5t-67 -99.5t-24.5 -121q0 -65 24.5 -122t67 -99.5t99.5 -67t121 -24.5zM406 544q-39 0 -73.5 -15t-60 -41.5t-40 -62t-14.5 -75.5t14.5 -75.5t40 -62t60 -41.5t73.5 -15t73.5 16t60.5 43l53 -52
q-36 -38 -84 -59.5t-103 -21.5q-54 0 -102 21t-83.5 57.5t-56 85.5t-20.5 104q0 56 20.5 104.5t56 85t83.5 57.5t102 21q55 0 103 -21.5t84 -58.5l-53 -53q-26 28 -60.5 43.5t-73.5 15.5z" />
    <glyph glyph-name="ordfeminine" unicode="&#xaa;" horiz-adv-x="402" 
d="M303 701h65v-327h-65v40q-23 -22 -52 -35t-62 -13q-35 0 -65.5 13.5t-53.5 37t-36 54.5t-13 67q0 35 13 66.5t36 54.5t53.5 36.5t65.5 13.5q33 0 62 -13t52 -35v40zM189 431q21 0 39.5 8.5t32.5 22.5t22 33.5t8 42.5q0 22 -8 41.5t-22 33.5t-32.5 22.5t-39.5 8.5
t-40 -8.5t-33 -22.5t-22 -33.5t-8 -41.5q0 -23 8 -42.5t22 -33.5t33 -22.5t40 -8.5z" />
    <glyph glyph-name="guillemotleft" unicode="&#xab;" horiz-adv-x="467" 
d="M245 539l-144 -197l144 -195h-86l-142 195l141 197h87zM432 539l-144 -197l144 -195h-86l-142 195l141 197h87z" />
    <glyph glyph-name="logicalnot" unicode="&#xac;" horiz-adv-x="495" 
d="M475 389v-188h-73v115h-380v73h453z" />
    <glyph glyph-name="uni00AD" unicode="&#xad;" horiz-adv-x="301" 
d="M274 328h-249v45h249v-45z" />
    <glyph glyph-name="registered" unicode="&#xae;" horiz-adv-x="805" 
d="M403 -31q-79 0 -148.5 30t-121 81.5t-81.5 121.5t-30 149q0 78 30 148t81.5 121.5t121 81.5t149.5 30q79 0 148.5 -30t121 -81.5t81.5 -121.5t30 -148q0 -80 -30 -149.5t-81.5 -121t-121 -81.5t-149.5 -30zM403 664q-64 0 -121 -24.5t-99.5 -67.5t-67 -99.5t-24.5 -121.5
t24 -122t67 -99.5t100 -67t121 -24.5q65 0 122 24t99.5 67t67.5 99.5t25 122.5q0 64 -24.5 120.5t-66.5 99.5t-99.5 68t-123.5 25zM586 450q0 -48 -28 -85.5t-71 -51.5l109 -205h-77l-105 198h-101v-198h-69v486h197q30 0 56.5 -11.5t46 -31t31 -45.5t11.5 -56zM441 375
q16 0 30 5.5t24 16t16 24t6 29.5q0 15 -6 29t-16 24t-24 16t-30 6h-128v-150h128z" />
    <glyph glyph-name="macron" unicode="&#xaf;" horiz-adv-x="342" 
d="M79 781h188v-69h-188v69z" />
    <glyph glyph-name="degree" unicode="&#xb0;" horiz-adv-x="400" 
d="M199 730q35 0 62.5 -11.5t46.5 -31.5t29 -45.5t10 -52.5q0 -33 -12 -60t-33 -46.5t-48 -30t-56 -10.5q-33 0 -60.5 11.5t-46.5 30.5t-30 44.5t-11 54.5q0 32 11.5 58.5t31.5 46.5t47.5 31t58.5 11zM198 500q36 0 59 25t23 62q0 14 -4.5 29t-14.5 27.5t-25 20.5t-38 8
q-21 0 -35.5 -7.5t-24.5 -20.5t-15 -29t-5 -31q0 -36 22.5 -60t57.5 -24z" />
    <glyph glyph-name="plusminus" unicode="&#xb1;" horiz-adv-x="608" 
d="M343 646v-239h231v-75h-231v-240h-79v240h-231v75h231v239h79zM34 74h540v-74h-540v74z" />
    <glyph glyph-name="twosuperior" unicode="&#xb2;" horiz-adv-x="359" 
d="M42 409q31 22 66.5 50.5t67 58.5t55 59t28.5 53q2 7 2 14q0 4 -1.5 12t-9.5 17q-10 13 -25.5 19.5t-36.5 6.5q-26 0 -47 -7.5t-36.5 -17t-24 -17l-8.5 -7.5l-44 40q1 1 12.5 12t33 23.5t50 23t64.5 10.5q35 0 63 -13t47 -37q15 -21 18.5 -39t3.5 -29q0 -14 -3 -28
q-6 -25 -23.5 -52t-42.5 -53.5t-55.5 -51.5t-61.5 -47h198v-60h-290v60z" />
    <glyph glyph-name="threesuperior" unicode="&#xb3;" horiz-adv-x="341" 
d="M218 565q40 -6 67.5 -33t27.5 -67q0 -25 -10.5 -47t-31 -38.5t-51 -26.5t-68.5 -10q-41 0 -74 10t-50 21l24 53q7 -4 17 -8t23 -7.5t28 -5.5t31 -2q29 0 48 5.5t30 15t16.5 22.5t5.5 26q0 19 -11 32t-28 21t-37 11t-39 3h-39v50h39q15 0 33 3.5t33.5 11t26 19t10.5 27.5
q0 20 -20.5 35.5t-59.5 15.5q-28 0 -52 -8.5t-39 -18.5l-26 50q20 13 54 23.5t72 10.5q33 0 57.5 -8t40.5 -22t24 -31.5t8 -36.5q0 -31 -19.5 -56t-60.5 -39v-1z" />
    <glyph glyph-name="acute" unicode="&#xb4;" horiz-adv-x="261" 
d="M244 886l-132 -126h-94l94 126h132z" />
    <glyph glyph-name="paragraph" unicode="&#xb6;" horiz-adv-x="494" 
d="M444 707v-804h-73v731h-75v-731h-73v404q-41 1 -76.5 17.5t-61.5 43t-41.5 62.5t-15.5 77q0 42 16 78t43 63t63.5 43t77.5 16h216z" />
    <glyph glyph-name="periodcentered" unicode="&#xb7;" horiz-adv-x="244" 
d="M46 350q0 33 21 54t53 21q34 0 54 -21t21 -54q0 -32 -20.5 -53.5t-54.5 -21.5q-33 0 -53.5 21.5t-20.5 53.5z" />
    <glyph glyph-name="cedilla" unicode="&#xb8;" horiz-adv-x="256" 
d="M151 -38q30 -6 51.5 -26t21.5 -53q0 -24 -9.5 -40.5t-25.5 -27t-36.5 -15t-40.5 -4.5q-22 0 -43 4.5t-36 13.5l16 51q11 -5 26.5 -9t31.5 -4q19 0 31 7t12 22q0 19 -21 28.5t-62 13.5l48 91h66z" />
    <glyph glyph-name="onesuperior" unicode="&#xb9;" horiz-adv-x="243" 
d="M184 755v-404h-66v345l-75 -39l-13 51l95 47h59z" />
    <glyph glyph-name="ordmasculine" unicode="&#xba;" horiz-adv-x="434" 
d="M219 709q41 0 74.5 -13t57.5 -36t37 -54t13 -65q0 -44 -16 -76.5t-42.5 -54.5t-59 -33t-67.5 -11q-37 0 -70.5 12t-58.5 34.5t-39 53.5t-14 68q0 39 14.5 71.5t39.5 55.5t59 35.5t72 12.5zM216 423q23 0 43.5 7t35.5 22t23.5 36.5t8.5 49.5q0 19 -6.5 39.5t-20.5 37
t-35 27t-49 10.5q-29 0 -49.5 -10t-34.5 -27t-20.5 -38t-6.5 -42q0 -25 9 -46t25 -35.5t36 -22.5t41 -8z" />
    <glyph glyph-name="guillemotright" unicode="&#xbb;" horiz-adv-x="464" 
d="M304 539l143 -197l-143 -195h-85l144 195l-145 197h86zM119 539l142 -197l-142 -195h-86l144 195l-144 197h86z" />
    <glyph glyph-name="onequarter" unicode="&#xbc;" horiz-adv-x="770" 
d="M588 701l-404 -701h-66l404 701h66zM184 695v-405h-67v346l-75 -39l-12 51l95 47h59zM675 420v-239h62v-61h-62v-108h-61v108h-205v43l187 257h79zM477 181h137v186z" />
    <glyph glyph-name="onehalf" unicode="&#xbd;" horiz-adv-x="819" 
d="M596 701l-403 -701h-66l404 701h65zM183 695v-405h-67v346l-75 -39l-12 51l95 47h59zM771 277q-7 -25 -25 -52t-44 -54t-57.5 -52t-64.5 -47h205v-60h-290v62q31 21 66.5 49t67.5 58t55 59.5t30 52.5q1 5 1 10q0 7 -2 15.5t-9 18.5q-10 12 -26 19t-37 7q-26 0 -47 -7.5
t-36.5 -17t-24 -17.5l-8.5 -8l-44 41q1 1 12.5 12t33 23.5t50.5 23t64 10.5t63.5 -13t46.5 -37q16 -21 20 -39t4 -29q0 -14 -4 -28z" />
    <glyph glyph-name="threequarters" unicode="&#xbe;" horiz-adv-x="814" 
d="M143 345q29 0 48 6t30 15.5t16.5 22t5.5 25.5q0 20 -11 33t-28 21t-37 11t-39 3h-39v50h39q15 0 33 3.5t33.5 11t26 18.5t10.5 28q0 20 -20.5 35.5t-59.5 15.5q-28 0 -55 -10t-42 -19l-20 52q20 13 54 23.5t72 10.5q33 0 57.5 -8.5t40.5 -22t24 -31t8 -37.5
q0 -31 -20 -56t-60 -38v-1q40 -6 67.5 -33t27.5 -67q0 -25 -10.5 -47.5t-31 -38.5t-50.5 -26t-69 -10q-41 0 -74.5 9.5t-49.5 21.5l19 55q6 -3 17 -7.5t25 -8.5t30 -7t32 -3zM235 0h-65l403 701h66zM720 420v-239h61v-61h-61v-108h-61v108h-206v43l188 257h79zM659 181v186
l-137 -186h137z" />
    <glyph glyph-name="questiondown" unicode="&#xbf;" horiz-adv-x="440" 
d="M234 710q28 0 47.5 -19.5t19.5 -47.5q0 -29 -19.5 -48.5t-47.5 -19.5t-47.5 19.5t-19.5 48.5q0 28 19.5 47.5t47.5 19.5zM225 79q27 0 47 7.5t32.5 21t17 30t4.5 33.5v7h96q1 -8 1 -17q0 -32 -11 -64t-36 -57.5t-63 -40.5t-88 -15q-56 0 -96 14.5t-65 40.5t-34.5 57.5
t-9.5 63.5q0 9 1 18q3 38 17 64t33 46.5t40.5 39.5t39.5 43t30 57.5t12 81.5h94v-9q0 -49 -10.5 -86.5t-27.5 -65t-37.5 -47.5t-39 -38.5t-33 -39t-18.5 -48.5q-2 -10 -2 -20q0 -11 4 -25.5t17.5 -26.5t34.5 -18.5t50 -6.5z" />
    <glyph glyph-name="Agrave" unicode="&#xc0;" horiz-adv-x="685" 
d="M416 701l252 -701h-107l-75 209h-283l-75 -209h-107l252 701h143zM239 310h212l-107 292zM362 887l94 -125h-93l-132 125h131z" />
    <glyph glyph-name="Aacute" unicode="&#xc1;" horiz-adv-x="685" 
d="M416 701l252 -701h-107l-75 209h-283l-75 -209h-107l252 701h143zM239 310h212l-107 292zM456 887l-132 -127h-93l93 127h132z" />
    <glyph glyph-name="Acircumflex" unicode="&#xc2;" horiz-adv-x="685" 
d="M416 701l252 -701h-107l-75 209h-283l-75 -209h-107l252 701h143zM239 310h212l-107 292zM384 886l113 -126h-87l-67 75h-2l-66 -75h-87l112 126h84z" />
    <glyph glyph-name="Atilde" unicode="&#xc3;" horiz-adv-x="685" 
d="M416 701l252 -701h-107l-75 209h-283l-75 -209h-107l252 701h143zM239 310h212l-107 292zM398 829q13 0 19.5 8t8.5 35h57v-10q0 -49 -18.5 -74.5t-56.5 -25.5q-19 0 -35 5t-34 15q-15 8 -27 14t-24 6t-18.5 -12.5t-8.5 -34.5h-58v9q0 48 20 77.5t56 29.5q19 0 34.5 -6.5
t32.5 -15.5q14 -8 27 -14t25 -6z" />
    <glyph glyph-name="Adieresis" unicode="&#xc4;" horiz-adv-x="685" 
d="M416 701l252 -701h-107l-75 209h-283l-75 -209h-107l252 701h143zM239 310h212l-107 292zM446 878q26 0 42 -17t16 -43q0 -23 -16 -41t-42 -18q-27 0 -43 18t-16 41q0 26 17 43t42 17zM242 878q24 0 40.5 -17t16.5 -43q0 -23 -16 -41t-42 -18t-43 18t-17 41q0 26 17.5 43
t43.5 17z" />
    <glyph glyph-name="Aring" unicode="&#xc5;" horiz-adv-x="685" 
d="M416 701l252 -701h-107l-75 209h-283l-75 -209h-107l252 701h143zM239 310h212l-107 292zM344 749q-50 0 -80.5 27.5t-30.5 66.5q0 42 29.5 70.5t81.5 28.5t80.5 -28t28.5 -71q0 -40 -30.5 -67t-78.5 -27zM342 899q-23 0 -36 -16.5t-13 -39.5q0 -19 13.5 -35t36.5 -16
q22 0 36 15t14 38q0 22 -14 38t-37 16z" />
    <glyph glyph-name="AE" unicode="&#xc6;" horiz-adv-x="952" 
d="M876 701v-100h-330l28 -187h292v-100h-277l33 -213h287v-101h-373l-36 234h-251l-116 -234h-112l346 701h509zM298 334h187l-44 286h-2z" />
    <glyph glyph-name="Ccedilla" unicode="&#xc7;" horiz-adv-x="681" 
d="M642 98q-48 -51 -113 -80t-140 -29q-73 0 -137.5 28t-112.5 77.5t-75.5 115t-27.5 140.5t27.5 141t75.5 115t112.5 77.5t137.5 28.5q75 0 140 -29t113 -80l-71 -71q-34 38 -81 59t-101 21q-52 0 -98 -20.5t-80.5 -56t-54.5 -83t-20 -102.5q0 -54 20 -101.5t54.5 -83
t80.5 -56t98 -20.5q54 0 101 21.5t81 58.5zM363 -38q30 -6 51.5 -26t21.5 -53q0 -24 -9.5 -40.5t-25.5 -27t-36.5 -15t-40.5 -4.5q-22 0 -43 4.5t-36 13.5l16 51q11 -5 26.5 -9t31.5 -4q19 0 31 7t12 22q0 19 -21 28.5t-62 13.5l48 91h66z" />
    <glyph glyph-name="Egrave" unicode="&#xc8;" horiz-adv-x="545" 
d="M486 701v-100h-330v-187h312v-101h-312v-212h347v-101h-448v701h431zM291 887l94 -125h-93l-132 125h131z" />
    <glyph glyph-name="Eacute" unicode="&#xc9;" horiz-adv-x="545" 
d="M486 701v-100h-330v-187h312v-101h-312v-212h347v-101h-448v701h431zM385 887l-132 -127h-93l93 127h132z" />
    <glyph glyph-name="Ecircumflex" unicode="&#xca;" horiz-adv-x="545" 
d="M486 701v-100h-330v-187h312v-101h-312v-212h347v-101h-448v701h431zM313 886l113 -126h-87l-67 75h-2l-66 -75h-87l112 126h84z" />
    <glyph glyph-name="Edieresis" unicode="&#xcb;" horiz-adv-x="545" 
d="M486 701v-100h-330v-187h312v-101h-312v-212h347v-101h-448v701h431zM376 878q26 0 42 -17t16 -43q0 -23 -16 -41t-42 -18q-27 0 -43 18t-16 41q0 26 17 43t42 17zM172 878q24 0 40.5 -17t16.5 -43q0 -23 -16 -41t-42 -18t-43 18t-17 41q0 26 17.5 43t43.5 17z" />
    <glyph glyph-name="Igrave" unicode="&#xcc;" horiz-adv-x="223" 
d="M61 701h100v-701h-100v701zM130 887l94 -125h-93l-132 125h131z" />
    <glyph glyph-name="Iacute" unicode="&#xcd;" horiz-adv-x="223" 
d="M61 701h100v-701h-100v701zM224 887l-132 -127h-93l93 127h132z" />
    <glyph glyph-name="Icircumflex" unicode="&#xce;" horiz-adv-x="226" 
d="M63 701h100v-701h-100v701zM154 886l113 -126h-87l-67 75h-2l-66 -75h-87l112 126h84z" />
    <glyph glyph-name="Idieresis" unicode="&#xcf;" horiz-adv-x="225" 
d="M62 701h100v-701h-100v701zM215 878q26 0 42 -17t16 -43q0 -23 -16 -41t-42 -18q-27 0 -43 18t-16 41q0 26 17 43t42 17zM11 878q24 0 40.5 -17t16.5 -43q0 -23 -16 -41t-42 -18t-43 18t-17 41q0 26 17.5 43t43.5 17z" />
    <glyph glyph-name="Eth" unicode="&#xd0;" horiz-adv-x="707" 
d="M318 701q73 0 137 -27.5t111.5 -75.5t75 -111.5t27.5 -136.5q0 -72 -27.5 -136t-75 -111.5t-111.5 -75t-137 -27.5h-265v318h-52v67h52v316h265zM318 101q52 0 97 19.5t79 53.5t54 79t20 97t-20 97.5t-54 79.5t-79 54t-97 20h-165v-216h95v-67h-95v-217h165z" />
    <glyph glyph-name="Ntilde" unicode="&#xd1;" horiz-adv-x="712" 
d="M187 700l367 -564v562h100v-700h-131l-366 563v-561h-101v700h131zM411 829q13 0 19.5 8t8.5 35h57v-10q0 -49 -18.5 -74.5t-56.5 -25.5q-19 0 -35 5t-34 15q-15 8 -27 14t-24 6t-18.5 -12.5t-8.5 -34.5h-58v9q0 48 20 77.5t56 29.5q19 0 34.5 -6.5t32.5 -15.5
q14 -8 27 -14t25 -6z" />
    <glyph glyph-name="Ograve" unicode="&#xd2;" horiz-adv-x="777" 
d="M388 711q73 0 137 -28t112 -77.5t76 -115t28 -140.5t-28 -141t-76 -115t-112 -77.5t-138 -28.5q-73 0 -137.5 28.5t-112 77.5t-75.5 115t-28 141t28 140.5t75.5 115t112 77.5t138.5 28zM387 611q-52 0 -98 -20.5t-80.5 -56t-54 -83t-19.5 -101.5t19.5 -101.5t54 -83
t80.5 -56t98 -20.5q53 0 99 20.5t80.5 56t54.5 83t20 101.5t-20 101.5t-54.5 83t-80.5 56t-99 20.5zM408 887l94 -125h-93l-132 125h131z" />
    <glyph glyph-name="Oacute" unicode="&#xd3;" horiz-adv-x="777" 
d="M388 711q73 0 137 -28t112 -77.5t76 -115t28 -140.5t-28 -141t-76 -115t-112 -77.5t-138 -28.5q-73 0 -137.5 28.5t-112 77.5t-75.5 115t-28 141t28 140.5t75.5 115t112 77.5t138.5 28zM387 611q-52 0 -98 -20.5t-80.5 -56t-54 -83t-19.5 -101.5t19.5 -101.5t54 -83
t80.5 -56t98 -20.5q53 0 99 20.5t80.5 56t54.5 83t20 101.5t-20 101.5t-54.5 83t-80.5 56t-99 20.5zM502 887l-132 -127h-93l93 127h132z" />
    <glyph glyph-name="Ocircumflex" unicode="&#xd4;" horiz-adv-x="777" 
d="M388 711q73 0 137 -28t112 -77.5t76 -115t28 -140.5t-28 -141t-76 -115t-112 -77.5t-138 -28.5q-73 0 -137.5 28.5t-112 77.5t-75.5 115t-28 141t28 140.5t75.5 115t112 77.5t138.5 28zM387 611q-52 0 -98 -20.5t-80.5 -56t-54 -83t-19.5 -101.5t19.5 -101.5t54 -83
t80.5 -56t98 -20.5q53 0 99 20.5t80.5 56t54.5 83t20 101.5t-20 101.5t-54.5 83t-80.5 56t-99 20.5zM430 886l113 -126h-87l-67 75h-2l-66 -75h-87l112 126h84z" />
    <glyph glyph-name="Otilde" unicode="&#xd5;" horiz-adv-x="777" 
d="M388 711q73 0 137 -28t112 -77.5t76 -115t28 -140.5t-28 -141t-76 -115t-112 -77.5t-138 -28.5q-73 0 -137.5 28.5t-112 77.5t-75.5 115t-28 141t28 140.5t75.5 115t112 77.5t138.5 28zM387 611q-52 0 -98 -20.5t-80.5 -56t-54 -83t-19.5 -101.5t19.5 -101.5t54 -83
t80.5 -56t98 -20.5q53 0 99 20.5t80.5 56t54.5 83t20 101.5t-20 101.5t-54.5 83t-80.5 56t-99 20.5zM444 829q13 0 19.5 8t8.5 35h57v-10q0 -49 -18.5 -74.5t-56.5 -25.5q-19 0 -35 5t-34 15q-15 8 -27 14t-24 6t-18.5 -12.5t-8.5 -34.5h-58v9q0 48 20 77.5t56 29.5
q19 0 34.5 -6.5t32.5 -15.5q14 -8 27 -14t25 -6z" />
    <glyph glyph-name="Odieresis" unicode="&#xd6;" horiz-adv-x="777" 
d="M388 711q73 0 137 -28t112 -77.5t76 -115t28 -140.5t-28 -141t-76 -115t-112 -77.5t-138 -28.5q-73 0 -137.5 28.5t-112 77.5t-75.5 115t-28 141t28 140.5t75.5 115t112 77.5t138.5 28zM387 611q-52 0 -98 -20.5t-80.5 -56t-54 -83t-19.5 -101.5t19.5 -101.5t54 -83
t80.5 -56t98 -20.5q53 0 99 20.5t80.5 56t54.5 83t20 101.5t-20 101.5t-54.5 83t-80.5 56t-99 20.5zM492 878q26 0 42 -17t16 -43q0 -23 -16 -41t-42 -18q-27 0 -43 18t-16 41q0 26 17 43t42 17zM288 878q24 0 40.5 -17t16.5 -43q0 -23 -16 -41t-42 -18t-43 18t-17 41
q0 26 17.5 43t43.5 17z" />
    <glyph glyph-name="multiply" unicode="&#xd7;" horiz-adv-x="502" 
d="M475 519l-168 -169l163 -163l-52 -53l-164 163l-170 -169l-55 55l169 170l-163 164l53 52l163 -164l169 169z" />
    <glyph glyph-name="Oslash" unicode="&#xd8;" horiz-adv-x="777" 
d="M673 720l-58 -93q58 -49 92 -120.5t34 -155.5q0 -75 -28 -141t-76 -115t-112 -78t-138 -29q-42 0 -81.5 10t-74.5 28l-52 -82l-57 36l53 82q-65 49 -103 124.5t-38 164.5q0 75 28 140.5t75.5 115t112 78t137.5 28.5q47 0 90.5 -12t82.5 -34l57 89zM134 351
q0 -62 25.5 -115t69.5 -89l277 435q-27 15 -56.5 22.5t-62.5 7.5q-52 0 -98 -20.5t-80.5 -56t-54.5 -83t-20 -101.5zM387 89q53 0 99 20.5t80.5 56t54.5 83.5t20 102q0 57 -22 106t-60 84l-273 -429q23 -12 48.5 -17.5t52.5 -5.5z" />
    <glyph glyph-name="Ugrave" unicode="&#xd9;" horiz-adv-x="659" 
d="M522 701h100v-420q0 -66 -18.5 -119.5t-55.5 -92.5t-91.5 -60t-126.5 -21t-126.5 21t-91.5 60t-56 92.5t-19 119.5v420h101v-420q0 -48 12 -84t36 -60t60 -36t84 -12t84 12t60 36t36 60t12 84v420zM349 887l94 -125h-93l-132 125h131z" />
    <glyph glyph-name="Uacute" unicode="&#xda;" horiz-adv-x="659" 
d="M522 701h100v-420q0 -66 -18.5 -119.5t-55.5 -92.5t-91.5 -60t-126.5 -21t-126.5 21t-91.5 60t-56 92.5t-19 119.5v420h101v-420q0 -48 12 -84t36 -60t60 -36t84 -12t84 12t60 36t36 60t12 84v420zM443 887l-132 -127h-93l93 127h132z" />
    <glyph glyph-name="Ucircumflex" unicode="&#xdb;" horiz-adv-x="659" 
d="M522 701h100v-420q0 -66 -18.5 -119.5t-55.5 -92.5t-91.5 -60t-126.5 -21t-126.5 21t-91.5 60t-56 92.5t-19 119.5v420h101v-420q0 -48 12 -84t36 -60t60 -36t84 -12t84 12t60 36t36 60t12 84v420zM371 886l113 -126h-87l-67 75h-2l-66 -75h-87l112 126h84z" />
    <glyph glyph-name="Udieresis" unicode="&#xdc;" horiz-adv-x="659" 
d="M522 701h100v-420q0 -66 -18.5 -119.5t-55.5 -92.5t-91.5 -60t-126.5 -21t-126.5 21t-91.5 60t-56 92.5t-19 119.5v420h101v-420q0 -48 12 -84t36 -60t60 -36t84 -12t84 12t60 36t36 60t12 84v420zM433 878q26 0 42 -17t16 -43q0 -23 -16 -41t-42 -18q-27 0 -43 18
t-16 41q0 26 17 43t42 17zM229 878q24 0 40.5 -17t16.5 -43q0 -23 -16 -41t-42 -18t-43 18t-17 41q0 26 17.5 43t43.5 17z" />
    <glyph glyph-name="Yacute" unicode="&#xdd;" horiz-adv-x="635" 
d="M619 701l-250 -395v-306h-100v306l-250 395h127l173 -291l177 291h123zM431 887l-132 -127h-93l93 127h132z" />
    <glyph glyph-name="Thorn" unicode="&#xde;" horiz-adv-x="530" 
d="M451 515q28 -25 45 -60.5t17 -77.5q0 -58 -21 -101.5t-59 -71.5t-90.5 -42.5t-114.5 -14.5q-27 0 -50 1.5t-40 5.5v-154h-101v701h101v-134q23 3 50 5t61 2q68 0 117.5 -14.5t84.5 -44.5zM226 235q87 0 131 35.5t44 95.5q0 32 -12.5 55.5t-34.5 38t-51.5 21.5t-64.5 7
t-61 -3t-39 -6v-236q19 -5 41.5 -6.5t46.5 -1.5z" />
    <glyph glyph-name="germandbls" unicode="&#xdf;" horiz-adv-x="591" 
d="M365 417q4 -3 13.5 -8.5t21 -12.5t22 -14t17.5 -12q33 -22 57 -44t39.5 -45.5t23.5 -48.5t8 -54q0 -43 -15.5 -78t-43 -59t-65 -37t-81.5 -13q-51 0 -91 13.5t-65 32.5v100q14 -14 31 -25.5t36 -20.5t40.5 -14t42.5 -5q22 0 43 6t36.5 18t25.5 30t11 42v3q0 27 -20 52.5
t-48 48t-59 41t-52 32.5q-21 13 -31.5 30.5t-11 27t-0.5 10.5q0 17 10 34t31 31l142 91q0 20 -8 41.5t-25.5 38.5t-45 28t-66.5 11q-30 0 -56.5 -8t-46.5 -25t-31.5 -44t-11.5 -63v-548h-101v554q0 58 19.5 99t53.5 67t79.5 38.5t96.5 12.5q63 0 109 -17t76.5 -45.5
t45 -64.5t15.5 -74v-32l-171 -108q-4 -3 -4 -7t4 -6z" />
    <glyph glyph-name="agrave" unicode="&#xe0;" horiz-adv-x="621" 
d="M472 507h101v-507h-101v63q-33 -35 -78 -55t-98 -20t-100.5 21t-82.5 57t-55.5 84.5t-20.5 103.5t20.5 103t55.5 84t82.5 57t100.5 21t98 -20t78 -55v63zM296 88q33 0 62 13t50.5 35.5t34 52.5t12.5 65q0 34 -12.5 64t-34 52.5t-50.5 35.5t-62 13t-61.5 -13t-50.5 -35.5
t-34.5 -52.5t-12.5 -64q0 -35 12.5 -65t34.5 -52.5t50.5 -35.5t61.5 -13zM330 757l94 -125h-93l-131 125h130z" />
    <glyph glyph-name="aacute" unicode="&#xe1;" horiz-adv-x="621" 
d="M472 507h101v-507h-101v63q-33 -35 -78 -55t-98 -20t-100.5 21t-82.5 57t-55.5 84.5t-20.5 103.5t20.5 103t55.5 84t82.5 57t100.5 21t98 -20t78 -55v63zM296 88q33 0 62 13t50.5 35.5t34 52.5t12.5 65q0 34 -12.5 64t-34 52.5t-50.5 35.5t-62 13t-61.5 -13t-50.5 -35.5
t-34.5 -52.5t-12.5 -64q0 -35 12.5 -65t34.5 -52.5t50.5 -35.5t61.5 -13zM423 758l-132 -126h-94l94 126h132z" />
    <glyph glyph-name="acircumflex" unicode="&#xe2;" horiz-adv-x="621" 
d="M472 507h101v-507h-101v63q-33 -35 -78 -55t-98 -20t-100.5 21t-82.5 57t-55.5 84.5t-20.5 103.5t20.5 103t55.5 84t82.5 57t100.5 21t98 -20t78 -55v63zM296 88q33 0 62 13t50.5 35.5t34 52.5t12.5 65q0 34 -12.5 64t-34 52.5t-50.5 35.5t-62 13t-61.5 -13t-50.5 -35.5
t-34.5 -52.5t-12.5 -64q0 -35 12.5 -65t34.5 -52.5t50.5 -35.5t61.5 -13zM351 755l114 -126h-88l-67 75h-2l-66 -75h-86l112 126h83z" />
    <glyph glyph-name="atilde" unicode="&#xe3;" horiz-adv-x="621" 
d="M472 507h101v-507h-101v63q-33 -35 -78 -55t-98 -20t-100.5 21t-82.5 57t-55.5 84.5t-20.5 103.5t20.5 103t55.5 84t82.5 57t100.5 21t98 -20t78 -55v63zM296 88q33 0 62 13t50.5 35.5t34 52.5t12.5 65q0 34 -12.5 64t-34 52.5t-50.5 35.5t-62 13t-61.5 -13t-50.5 -35.5
t-34.5 -52.5t-12.5 -64q0 -35 12.5 -65t34.5 -52.5t50.5 -35.5t61.5 -13zM367 710q12 0 19 8t9 35h57v-6q0 -52 -18.5 -78.5t-56.5 -26.5q-19 0 -35 5.5t-34 14.5l-28 14t-23 6q-13 0 -19.5 -12t-8.5 -35h-57v10q0 48 19.5 77t56.5 29q19 0 34.5 -6t32.5 -16q14 -7 26.5 -13
t25.5 -6z" />
    <glyph glyph-name="adieresis" unicode="&#xe4;" horiz-adv-x="621" 
d="M472 507h101v-507h-101v63q-33 -35 -78 -55t-98 -20t-100.5 21t-82.5 57t-55.5 84.5t-20.5 103.5t20.5 103t55.5 84t82.5 57t100.5 21t98 -20t78 -55v63zM296 88q33 0 62 13t50.5 35.5t34 52.5t12.5 65q0 34 -12.5 64t-34 52.5t-50.5 35.5t-62 13t-61.5 -13t-50.5 -35.5
t-34.5 -52.5t-12.5 -64q0 -35 12.5 -65t34.5 -52.5t50.5 -35.5t61.5 -13zM414 747q26 0 42.5 -17t16.5 -43q0 -23 -16.5 -41t-42.5 -18t-42.5 18t-16.5 41q0 26 17 43t42 17zM210 747q25 0 41 -17t16 -43q0 -23 -16 -41t-41 -18q-26 0 -43 18t-17 41q0 26 17 43t43 17z" />
    <glyph glyph-name="aring" unicode="&#xe5;" horiz-adv-x="621" 
d="M472 507h101v-507h-101v63q-33 -35 -78 -55t-98 -20t-100.5 21t-82.5 57t-55.5 84.5t-20.5 103.5t20.5 103t55.5 84t82.5 57t100.5 21t98 -20t78 -55v63zM296 88q33 0 62 13t50.5 35.5t34 52.5t12.5 65q0 34 -12.5 64t-34 52.5t-50.5 35.5t-62 13t-61.5 -13t-50.5 -35.5
t-34.5 -52.5t-12.5 -64q0 -35 12.5 -65t34.5 -52.5t50.5 -35.5t61.5 -13zM312 622q-51 0 -81 27t-30 67q0 41 29.5 69.5t81.5 28.5q51 0 80 -28t29 -70q0 -40 -30.5 -67t-78.5 -27zM310 772q-23 0 -36.5 -16.5t-13.5 -39.5q0 -20 14 -36t36 -16q23 0 37 15.5t14 37.5
q0 23 -14 39t-37 16z" />
    <glyph glyph-name="ae" unicode="&#xe6;" horiz-adv-x="990" 
d="M705 519q54 0 101 -21t82.5 -57t56 -84t20.5 -103q0 -7 -0.5 -14t-0.5 -14h-416q5 -30 19 -55t35 -43.5t47.5 -28.5t55.5 -10q64 0 101 24t61 79l92 -41q-35 -81 -96.5 -122t-157.5 -41q-41 0 -77.5 14t-65.5 38v-40h-101v63q-33 -35 -78.5 -55t-97.5 -20
q-53 0 -100.5 21t-82.5 57t-55.5 84.5t-20.5 103.5t20.5 103t55.5 84t82.5 57t100.5 21q52 0 97.5 -20t78.5 -55v63h101v-40q29 25 65.5 38.5t77.5 13.5zM857 298q-7 26 -21.5 48t-34 38t-44.5 25.5t-52 9.5t-52 -9.5t-45 -25.5t-34 -38t-21 -48h304zM285 89q33 0 62 12.5
t50.5 35t34 52.5t12.5 65q0 34 -12.5 64t-34 52.5t-50.5 35.5t-62 13t-62 -13t-50.5 -35.5t-34 -52.5t-12.5 -64q0 -35 12.5 -65t34 -52.5t50.5 -35t62 -12.5z" />
    <glyph glyph-name="ccedilla" unicode="&#xe7;" horiz-adv-x="523" 
d="M484 68q-36 -37 -83.5 -58.5t-101.5 -21.5t-101.5 21t-82.5 57t-55.5 84.5t-20.5 103.5t20.5 103t55.5 84t82.5 57t101.5 21t101.5 -21.5t83.5 -58.5l-71 -71q-21 24 -50.5 37.5t-63.5 13.5q-33 0 -62 -13t-50.5 -35.5t-34 -52.5t-12.5 -64q0 -35 12.5 -65t34 -52.5
t50.5 -35.5t62 -13q34 0 63.5 13.5t50.5 37.5zM285 -38q30 -6 51.5 -26t21.5 -53q0 -24 -9.5 -40.5t-25.5 -27t-36.5 -15t-40.5 -4.5q-22 0 -43 4.5t-36 13.5l16 51q11 -5 26.5 -9t31.5 -4q19 0 31 7t12 22q0 19 -21 28.5t-62 13.5l48 91h66z" />
    <glyph glyph-name="egrave" unicode="&#xe8;" horiz-adv-x="599" 
d="M144 226q4 -30 18 -55t35 -43.5t47.5 -29t55.5 -10.5q64 0 101.5 24t60.5 80l92 -41q-35 -82 -96.5 -122.5t-157.5 -40.5q-53 0 -100.5 21t-82.5 57t-55.5 84.5t-20.5 103.5t20.5 103t55.5 84t82.5 57t100.5 21q54 0 101.5 -21t82.5 -57t55.5 -84t20.5 -103
q0 -7 -0.5 -14t-0.5 -14h-415zM452 298q-7 26 -21.5 48t-34 38t-44 25.5t-52.5 9.5q-27 0 -52 -9.5t-44.5 -25.5t-34 -38t-20.5 -48h303zM319 757l94 -125h-93l-131 125h130z" />
    <glyph glyph-name="eacute" unicode="&#xe9;" horiz-adv-x="599" 
d="M144 226q4 -30 18 -55t35 -43.5t47.5 -29t55.5 -10.5q64 0 101.5 24t60.5 80l92 -41q-35 -82 -96.5 -122.5t-157.5 -40.5q-53 0 -100.5 21t-82.5 57t-55.5 84.5t-20.5 103.5t20.5 103t55.5 84t82.5 57t100.5 21q54 0 101.5 -21t82.5 -57t55.5 -84t20.5 -103
q0 -7 -0.5 -14t-0.5 -14h-415zM452 298q-7 26 -21.5 48t-34 38t-44 25.5t-52.5 9.5q-27 0 -52 -9.5t-44.5 -25.5t-34 -38t-20.5 -48h303zM412 758l-132 -126h-94l94 126h132z" />
    <glyph glyph-name="ecircumflex" unicode="&#xea;" horiz-adv-x="599" 
d="M144 226q4 -30 18 -55t35 -43.5t47.5 -29t55.5 -10.5q64 0 101.5 24t60.5 80l92 -41q-35 -82 -96.5 -122.5t-157.5 -40.5q-53 0 -100.5 21t-82.5 57t-55.5 84.5t-20.5 103.5t20.5 103t55.5 84t82.5 57t100.5 21q54 0 101.5 -21t82.5 -57t55.5 -84t20.5 -103
q0 -7 -0.5 -14t-0.5 -14h-415zM452 298q-7 26 -21.5 48t-34 38t-44 25.5t-52.5 9.5q-27 0 -52 -9.5t-44.5 -25.5t-34 -38t-20.5 -48h303zM342 754l114 -126h-88l-67 75h-2l-66 -75h-86l112 126h83z" />
    <glyph glyph-name="edieresis" unicode="&#xeb;" horiz-adv-x="599" 
d="M144 226q4 -30 18 -55t35 -43.5t47.5 -29t55.5 -10.5q64 0 101.5 24t60.5 80l92 -41q-35 -82 -96.5 -122.5t-157.5 -40.5q-53 0 -100.5 21t-82.5 57t-55.5 84.5t-20.5 103.5t20.5 103t55.5 84t82.5 57t100.5 21q54 0 101.5 -21t82.5 -57t55.5 -84t20.5 -103
q0 -7 -0.5 -14t-0.5 -14h-415zM452 298q-7 26 -21.5 48t-34 38t-44 25.5t-52.5 9.5q-27 0 -52 -9.5t-44.5 -25.5t-34 -38t-20.5 -48h303zM403 747q26 0 42.5 -17t16.5 -43q0 -23 -16.5 -41t-42.5 -18t-42.5 18t-16.5 41q0 26 17 43t42 17zM199 747q25 0 41 -17t16 -43
q0 -23 -16 -41t-41 -18q-26 0 -43 18t-17 41q0 26 17 43t43 17z" />
    <glyph glyph-name="igrave" unicode="&#xec;" horiz-adv-x="243" 
d="M173 505v-505h-101v505h101zM140 757l94 -125h-93l-131 125h130z" />
    <glyph glyph-name="iacute" unicode="&#xed;" horiz-adv-x="242" 
d="M172 505v-505h-101v505h101zM233 758l-132 -126h-94l94 126h132z" />
    <glyph glyph-name="icircumflex" unicode="&#xee;" horiz-adv-x="242" 
d="M172 505v-505h-101v505h101zM162 754l114 -126h-88l-67 75h-2l-66 -75h-86l112 126h83z" />
    <glyph glyph-name="idieresis" unicode="&#xef;" horiz-adv-x="240" 
d="M171 505v-505h-101v505h101zM223 747q26 0 42.5 -17t16.5 -43q0 -23 -16.5 -41t-42.5 -18t-42.5 18t-16.5 41q0 26 17 43t42 17zM19 747q25 0 41 -17t16 -43q0 -23 -16 -41t-41 -18q-26 0 -43 18t-17 41q0 26 17 43t43 17z" />
    <glyph glyph-name="eth" unicode="&#xf0;" horiz-adv-x="604" 
d="M377 630q47 -35 84 -78.5t63 -94.5q21 -43 32.5 -91t11.5 -101q0 -70 -23.5 -122.5t-61.5 -86.5t-87 -51t-102 -17q-58 0 -107 19t-85 52.5t-57 80.5t-21 104q0 58 22 105.5t57.5 81t83 51t99.5 17.5q32 0 61.5 -8.5t61.5 -37.5l2 3q-25 37 -57 70.5t-75 62.5l-164 -72
l-22 54l127 57q-25 16 -55 30t-61 25l44 70q44 -15 88.5 -36.5t83.5 -47.5l149 67l26 -54zM293 70q35 0 64 12t50 36t32.5 58t11.5 78q0 50 -9.5 79t-30.5 49q-18 19 -46 32t-67 13q-42 0 -71.5 -17t-48.5 -43.5t-28 -58.5t-9 -63q0 -39 12 -71t32.5 -55t48.5 -36t59 -13z
" />
    <glyph glyph-name="ntilde" unicode="&#xf1;" horiz-adv-x="592" 
d="M315 519q48 0 89 -16.5t71 -45t47.5 -67.5t17.5 -85v-305h-101v268q0 37 -10 65t-28.5 47t-44 29t-53.5 10q-37 0 -64 -12t-45.5 -33.5t-28 -50.5t-9.5 -65v-258h-101v506h101v-61q13 19 31.5 32.5t39.5 23t43.5 14t44.5 4.5zM352 710q12 0 19 8t9 35h57v-6
q0 -52 -18.5 -78.5t-56.5 -26.5q-19 0 -35 5.5t-34 14.5l-28 14t-23 6q-13 0 -19.5 -12t-8.5 -35h-57v10q0 48 19.5 77t56.5 29q19 0 34.5 -6t32.5 -16q14 -7 26.5 -13t25.5 -6z" />
    <glyph glyph-name="ograve" unicode="&#xf2;" horiz-adv-x="596" 
d="M298 519q54 0 101.5 -21t82.5 -57t55.5 -84.5t20.5 -103.5t-20.5 -103t-55.5 -84t-82.5 -57t-100.5 -21q-54 0 -101.5 21t-82.5 57t-55.5 84t-20.5 103t20.5 103.5t55.5 84.5t82.5 57t100.5 21zM298 419q-33 0 -61.5 -13t-50.5 -35.5t-34.5 -52.5t-12.5 -65
q0 -34 12.5 -64t34.5 -52.5t50.5 -35.5t61.5 -13t62.5 13t51 35.5t34 52.5t12.5 64q0 35 -12.5 65t-34 52.5t-51 35.5t-62.5 13zM317 757l94 -125h-93l-131 125h130z" />
    <glyph glyph-name="oacute" unicode="&#xf3;" horiz-adv-x="596" 
d="M298 519q54 0 101.5 -21t82.5 -57t55.5 -84.5t20.5 -103.5t-20.5 -103t-55.5 -84t-82.5 -57t-100.5 -21q-54 0 -101.5 21t-82.5 57t-55.5 84t-20.5 103t20.5 103.5t55.5 84.5t82.5 57t100.5 21zM298 419q-33 0 -61.5 -13t-50.5 -35.5t-34.5 -52.5t-12.5 -65
q0 -34 12.5 -64t34.5 -52.5t50.5 -35.5t61.5 -13t62.5 13t51 35.5t34 52.5t12.5 64q0 35 -12.5 65t-34 52.5t-51 35.5t-62.5 13zM411 758l-132 -126h-94l94 126h132z" />
    <glyph glyph-name="ocircumflex" unicode="&#xf4;" horiz-adv-x="596" 
d="M298 519q54 0 101.5 -21t82.5 -57t55.5 -84.5t20.5 -103.5t-20.5 -103t-55.5 -84t-82.5 -57t-100.5 -21q-54 0 -101.5 21t-82.5 57t-55.5 84t-20.5 103t20.5 103.5t55.5 84.5t82.5 57t100.5 21zM298 419q-33 0 -61.5 -13t-50.5 -35.5t-34.5 -52.5t-12.5 -65
q0 -34 12.5 -64t34.5 -52.5t50.5 -35.5t61.5 -13t62.5 13t51 35.5t34 52.5t12.5 64q0 35 -12.5 65t-34 52.5t-51 35.5t-62.5 13zM339 755l114 -126h-88l-67 75h-2l-66 -75h-86l112 126h83z" />
    <glyph glyph-name="otilde" unicode="&#xf5;" horiz-adv-x="596" 
d="M298 519q54 0 101.5 -21t82.5 -57t55.5 -84.5t20.5 -103.5t-20.5 -103t-55.5 -84t-82.5 -57t-100.5 -21q-54 0 -101.5 21t-82.5 57t-55.5 84t-20.5 103t20.5 103.5t55.5 84.5t82.5 57t100.5 21zM298 419q-33 0 -61.5 -13t-50.5 -35.5t-34.5 -52.5t-12.5 -65
q0 -34 12.5 -64t34.5 -52.5t50.5 -35.5t61.5 -13t62.5 13t51 35.5t34 52.5t12.5 64q0 35 -12.5 65t-34 52.5t-51 35.5t-62.5 13zM354 710q12 0 19 8t9 35h57v-6q0 -52 -18.5 -78.5t-56.5 -26.5q-19 0 -35 5.5t-34 14.5l-28 14t-23 6q-13 0 -19.5 -12t-8.5 -35h-57v10
q0 48 19.5 77t56.5 29q19 0 34.5 -6t32.5 -16q14 -7 26.5 -13t25.5 -6z" />
    <glyph glyph-name="odieresis" unicode="&#xf6;" horiz-adv-x="596" 
d="M298 519q54 0 101.5 -21t82.5 -57t55.5 -84.5t20.5 -103.5t-20.5 -103t-55.5 -84t-82.5 -57t-100.5 -21q-54 0 -101.5 21t-82.5 57t-55.5 84t-20.5 103t20.5 103.5t55.5 84.5t82.5 57t100.5 21zM298 419q-33 0 -61.5 -13t-50.5 -35.5t-34.5 -52.5t-12.5 -65
q0 -34 12.5 -64t34.5 -52.5t50.5 -35.5t61.5 -13t62.5 13t51 35.5t34 52.5t12.5 64q0 35 -12.5 65t-34 52.5t-51 35.5t-62.5 13zM401 748q26 0 42.5 -17t16.5 -43q0 -23 -16.5 -41t-42.5 -18t-42.5 18t-16.5 41q0 26 17 43t42 17zM197 748q25 0 41 -17t16 -43q0 -23 -16 -41
t-41 -18q-26 0 -43 18t-17 41q0 26 17 43t43 17z" />
    <glyph glyph-name="divide" unicode="&#xf7;" horiz-adv-x="494" 
d="M249 587q32 0 52 -21t20 -53t-20 -53t-53 -21q-32 0 -52.5 21t-20.5 53t20.5 53t53.5 21zM20 313v73h456v-73h-456zM249 260q32 0 52 -20.5t20 -53.5q0 -31 -20 -52t-53 -21q-32 0 -52.5 21t-20.5 52q0 33 20.5 53.5t53.5 20.5z" />
    <glyph glyph-name="oslash" unicode="&#xf8;" horiz-adv-x="569" 
d="M493 520l-41 -64q42 -37 66.5 -89.5t24.5 -113.5q0 -55 -20 -103t-55.5 -84t-82.5 -57t-101 -21q-31 0 -59 7t-53 20l-40 -64l-57 36l41 65q-42 37 -66.5 89t-24.5 112q0 55 20 103.5t55.5 84.5t82.5 57t101 21q31 0 59 -7t53 -19l40 63zM125 253q0 -33 12.5 -63
t33.5 -52l171 269q-13 6 -27.5 9t-30.5 3q-33 0 -62 -13t-50.5 -35.5t-34 -52.5t-12.5 -65zM284 89q33 0 62 12.5t50.5 35t34 52.5t12.5 64t-12.5 63.5t-33.5 52.5l-171 -269q14 -5 28 -8t30 -3z" />
    <glyph glyph-name="ugrave" unicode="&#xf9;" 
d="M531 0h-101v61q-13 -18 -31.5 -32t-39.5 -23.5t-43.5 -13.5t-44.5 -4q-48 0 -89 16.5t-71 45t-47.5 67.5t-17.5 85v304h101v-277q0 -40 11.5 -68.5t30 -46.5t43 -26.5t51.5 -8.5q35 0 62.5 13t46.5 36t28.5 54t9.5 66v258h101v-506zM313 757l94 -125h-93l-131 125h130z
" />
    <glyph glyph-name="uacute" unicode="&#xfa;" 
d="M531 0h-101v61q-13 -18 -31.5 -32t-39.5 -23.5t-43.5 -13.5t-44.5 -4q-48 0 -89 16.5t-71 45t-47.5 67.5t-17.5 85v304h101v-277q0 -40 11.5 -68.5t30 -46.5t43 -26.5t51.5 -8.5q35 0 62.5 13t46.5 36t28.5 54t9.5 66v258h101v-506zM407 758l-132 -126h-94l94 126h132z
" />
    <glyph glyph-name="ucircumflex" unicode="&#xfb;" 
d="M531 0h-101v61q-13 -18 -31.5 -32t-39.5 -23.5t-43.5 -13.5t-44.5 -4q-48 0 -89 16.5t-71 45t-47.5 67.5t-17.5 85v304h101v-277q0 -40 11.5 -68.5t30 -46.5t43 -26.5t51.5 -8.5q35 0 62.5 13t46.5 36t28.5 54t9.5 66v258h101v-506zM331 755l114 -126h-88l-67 75h-2
l-66 -75h-86l112 126h83z" />
    <glyph glyph-name="udieresis" unicode="&#xfc;" 
d="M531 0h-101v61q-13 -18 -31.5 -32t-39.5 -23.5t-43.5 -13.5t-44.5 -4q-48 0 -89 16.5t-71 45t-47.5 67.5t-17.5 85v304h101v-277q0 -40 11.5 -68.5t30 -46.5t43 -26.5t51.5 -8.5q35 0 62.5 13t46.5 36t28.5 54t9.5 66v258h101v-506zM397 747q26 0 42.5 -17t16.5 -43
q0 -23 -16.5 -41t-42.5 -18t-42.5 18t-16.5 41q0 26 17 43t42 17zM193 747q25 0 41 -17t16 -43q0 -23 -16 -41t-41 -18q-26 0 -43 18t-17 41q0 26 17 43t43 17z" />
    <glyph glyph-name="yacute" unicode="&#xfd;" horiz-adv-x="579" 
d="M458 506h109l-325 -770h-109l111 264h-22l-209 506h108l167 -401zM402 758l-132 -126h-94l94 126h132z" />
    <glyph glyph-name="thorn" unicode="&#xfe;" horiz-adv-x="612" 
d="M336 518q54 0 101.5 -21t82.5 -57t55.5 -84.5t20.5 -103.5t-20.5 -103.5t-55.5 -84.5t-82.5 -57t-101.5 -21q-52 0 -97 20.5t-78 54.5v-271h-100v953h100v-300q33 34 78 54.5t97 20.5zM336 87q33 0 62.5 13t51 35.5t34 52.5t12.5 64t-12.5 64t-34 52.5t-51 35.5t-62.5 13
t-61.5 -13t-50 -35.5t-34 -52.5t-12.5 -64t12.5 -64t34 -52.5t50 -35.5t61.5 -13z" />
    <glyph glyph-name="ydieresis" unicode="&#xff;" horiz-adv-x="579" 
d="M458 506h109l-325 -770h-109l111 264h-22l-209 506h108l167 -401zM393 747q26 0 42.5 -17t16.5 -43q0 -23 -16.5 -41t-42.5 -18t-42.5 18t-16.5 41q0 26 17 43t42 17zM189 747q25 0 41 -17t16 -43q0 -23 -16 -41t-41 -18q-26 0 -43 18t-17 41q0 26 17 43t43 17z" />
    <glyph glyph-name="Amacron" unicode="&#x100;" horiz-adv-x="685" 
d="M416 701l252 -701h-107l-75 209h-283l-75 -209h-107l252 701h143zM239 310h212l-107 292zM249 828h188v-68h-188v68z" />
    <glyph glyph-name="amacron" unicode="&#x101;" horiz-adv-x="621" 
d="M472 507h101v-507h-101v63q-33 -35 -78 -55t-98 -20t-100.5 21t-82.5 57t-55.5 84.5t-20.5 103.5t20.5 103t55.5 84t82.5 57t100.5 21t98 -20t78 -55v63zM296 88q33 0 62 13t50.5 35.5t34 52.5t12.5 65q0 34 -12.5 64t-34 52.5t-50.5 35.5t-62 13t-61.5 -13t-50.5 -35.5
t-34.5 -52.5t-12.5 -64q0 -35 12.5 -65t34.5 -52.5t50.5 -35.5t61.5 -13zM217 698h188v-69h-188v69z" />
    <glyph glyph-name="Abreve" unicode="&#x102;" horiz-adv-x="685" 
d="M416 701l252 -701h-107l-75 209h-283l-75 -209h-107l252 701h143zM239 310h212l-107 292zM459 849q-8 -37 -40.5 -61t-75.5 -24q-42 0 -74.5 24t-41.5 61l62 12q4 -15 19 -26.5t35 -11.5q21 0 36 11.5t18 26.5z" />
    <glyph glyph-name="abreve" unicode="&#x103;" horiz-adv-x="621" 
d="M472 507h101v-507h-101v63q-33 -35 -78 -55t-98 -20t-100.5 21t-82.5 57t-55.5 84.5t-20.5 103.5t20.5 103t55.5 84t82.5 57t100.5 21t98 -20t78 -55v63zM296 88q33 0 62 13t50.5 35.5t34 52.5t12.5 65q0 34 -12.5 64t-34 52.5t-50.5 35.5t-62 13t-61.5 -13t-50.5 -35.5
t-34.5 -52.5t-12.5 -64q0 -35 12.5 -65t34.5 -52.5t50.5 -35.5t61.5 -13zM427 714q-8 -37 -40.5 -61.5t-75.5 -24.5q-42 0 -74.5 24.5t-41.5 61.5l62 12q4 -16 18.5 -27t35.5 -11t35.5 11t18.5 27z" />
    <glyph glyph-name="Aogonek" unicode="&#x104;" horiz-adv-x="685" 
d="M416 701l252 -701h-107l-75 209h-283l-75 -209h-107l252 701h143zM239 310h212l-107 292zM640 4q-15 -11 -30.5 -25t-28.5 -29t-21 -29.5t-8 -27.5q0 -15 9 -25.5t23 -10.5t27 6.5t25 16.5l25 -54q-5 -5 -15 -11.5t-22.5 -11.5t-27.5 -9t-31 -4q-19 0 -35.5 5.5t-29 16
t-20.5 25.5t-8 35t9.5 39.5t23.5 36.5t30.5 31t30.5 25h74z" />
    <glyph glyph-name="aogonek" unicode="&#x105;" horiz-adv-x="621" 
d="M472 507h101v-507h-101v63q-33 -35 -78 -55t-98 -20t-100.5 21t-82.5 57t-55.5 84.5t-20.5 103.5t20.5 103t55.5 84t82.5 57t100.5 21t98 -20t78 -55v63zM296 88q33 0 62 13t50.5 35.5t34 52.5t12.5 65q0 34 -12.5 64t-34 52.5t-50.5 35.5t-62 13t-61.5 -13t-50.5 -35.5
t-34.5 -52.5t-12.5 -64q0 -35 12.5 -65t34.5 -52.5t50.5 -35.5t61.5 -13zM548 4q-15 -11 -30.5 -25t-28.5 -29t-21 -29.5t-8 -27.5q0 -15 9 -25.5t23 -10.5t27 6.5t25 16.5l25 -54q-5 -5 -15 -11.5t-22.5 -11.5t-27.5 -9t-31 -4q-19 0 -35.5 5.5t-29 16t-20.5 25.5t-8 35
t9.5 39.5t23.5 36.5t30.5 31t30.5 25h74z" />
    <glyph glyph-name="Cacute" unicode="&#x106;" horiz-adv-x="681" 
d="M642 98q-48 -51 -113 -80t-140 -29q-73 0 -137.5 28t-112.5 77.5t-75.5 115t-27.5 140.5t27.5 141t75.5 115t112.5 77.5t137.5 28.5q75 0 140 -29t113 -80l-71 -71q-34 38 -81 59t-101 21q-52 0 -98 -20.5t-80.5 -56t-54.5 -83t-20 -102.5q0 -54 20 -101.5t54.5 -83
t80.5 -56t98 -20.5q54 0 101 21.5t81 58.5zM454 887l-132 -127h-93l93 127h132z" />
    <glyph glyph-name="cacute" unicode="&#x107;" horiz-adv-x="523" 
d="M484 68q-36 -37 -83.5 -58.5t-101.5 -21.5t-101.5 21t-82.5 57t-55.5 84.5t-20.5 103.5t20.5 103t55.5 84t82.5 57t101.5 21t101.5 -21.5t83.5 -58.5l-71 -71q-21 24 -50.5 37.5t-63.5 13.5q-33 0 -62 -13t-50.5 -35.5t-34 -52.5t-12.5 -64q0 -35 12.5 -65t34 -52.5
t50.5 -35.5t62 -13q34 0 63.5 13.5t50.5 37.5zM374 758l-132 -126h-94l94 126h132z" />
    <glyph glyph-name="Ccircumflex" unicode="&#x108;" horiz-adv-x="681" 
d="M642 98q-48 -51 -113 -80t-140 -29q-73 0 -137.5 28t-112.5 77.5t-75.5 115t-27.5 140.5t27.5 141t75.5 115t112.5 77.5t137.5 28.5q75 0 140 -29t113 -80l-71 -71q-34 38 -81 59t-101 21q-52 0 -98 -20.5t-80.5 -56t-54.5 -83t-20 -102.5q0 -54 20 -101.5t54.5 -83
t80.5 -56t98 -20.5q54 0 101 21.5t81 58.5zM382 886l113 -126h-87l-67 75h-2l-66 -75h-87l112 126h84z" />
    <glyph glyph-name="ccircumflex" unicode="&#x109;" horiz-adv-x="523" 
d="M484 68q-36 -37 -83.5 -58.5t-101.5 -21.5t-101.5 21t-82.5 57t-55.5 84.5t-20.5 103.5t20.5 103t55.5 84t82.5 57t101.5 21t101.5 -21.5t83.5 -58.5l-71 -71q-21 24 -50.5 37.5t-63.5 13.5q-33 0 -62 -13t-50.5 -35.5t-34 -52.5t-12.5 -64q0 -35 12.5 -65t34 -52.5
t50.5 -35.5t62 -13q34 0 63.5 13.5t50.5 37.5zM303 755l114 -126h-88l-67 75h-2l-66 -75h-86l112 126h83z" />
    <glyph glyph-name="Cdotaccent" unicode="&#x10a;" horiz-adv-x="681" 
d="M642 98q-48 -51 -113 -80t-140 -29q-73 0 -137.5 28t-112.5 77.5t-75.5 115t-27.5 140.5t27.5 141t75.5 115t112.5 77.5t137.5 28.5q75 0 140 -29t113 -80l-71 -71q-34 38 -81 59t-101 21q-52 0 -98 -20.5t-80.5 -56t-54.5 -83t-20 -102.5q0 -54 20 -101.5t54.5 -83
t80.5 -56t98 -20.5q54 0 101 21.5t81 58.5zM341 753q-29 0 -47 19.5t-18 45.5q0 28 18.5 46.5t46.5 18.5t46 -18.5t18 -46.5q0 -26 -17.5 -45.5t-46.5 -19.5z" />
    <glyph glyph-name="cdotaccent" unicode="&#x10b;" horiz-adv-x="523" 
d="M484 68q-36 -37 -83.5 -58.5t-101.5 -21.5t-101.5 21t-82.5 57t-55.5 84.5t-20.5 103.5t20.5 103t55.5 84t82.5 57t101.5 21t101.5 -21.5t83.5 -58.5l-71 -71q-21 24 -50.5 37.5t-63.5 13.5q-33 0 -62 -13t-50.5 -35.5t-34 -52.5t-12.5 -64q0 -35 12.5 -65t34 -52.5
t50.5 -35.5t62 -13q34 0 63.5 13.5t50.5 37.5zM262 626q-29 0 -47.5 19.5t-18.5 45.5q0 27 18.5 46t47.5 19q28 0 46 -18.5t18 -46.5q0 -26 -18 -45.5t-46 -19.5z" />
    <glyph glyph-name="Ccaron" unicode="&#x10c;" horiz-adv-x="681" 
d="M642 98q-48 -51 -113 -80t-140 -29q-73 0 -137.5 28t-112.5 77.5t-75.5 115t-27.5 140.5t27.5 141t75.5 115t112.5 77.5t137.5 28.5q75 0 140 -29t113 -80l-71 -71q-34 38 -81 59t-101 21q-52 0 -98 -20.5t-80.5 -56t-54.5 -83t-20 -102.5q0 -54 20 -101.5t54.5 -83
t80.5 -56t98 -20.5q54 0 101 21.5t81 58.5zM496 887l-113 -127h-83l-114 127h88l67 -75h2l66 75h87z" />
    <glyph glyph-name="ccaron" unicode="&#x10d;" horiz-adv-x="523" 
d="M484 68q-36 -37 -83.5 -58.5t-101.5 -21.5t-101.5 21t-82.5 57t-55.5 84.5t-20.5 103.5t20.5 103t55.5 84t82.5 57t101.5 21t101.5 -21.5t83.5 -58.5l-71 -71q-21 24 -50.5 37.5t-63.5 13.5q-33 0 -62 -13t-50.5 -35.5t-34 -52.5t-12.5 -64q0 -35 12.5 -65t34 -52.5
t50.5 -35.5t62 -13q34 0 63.5 13.5t50.5 37.5zM417 755l-112 -126h-84l-114 126h88l67 -75h2l67 75h86z" />
    <glyph glyph-name="Dcaron" unicode="&#x10e;" horiz-adv-x="707" 
d="M318 701q72 0 136 -27.5t111.5 -75t75 -111.5t27.5 -136q0 -73 -27.5 -136.5t-75 -111.5t-111.5 -75.5t-136 -27.5h-266v701h266zM153 601v-500h165q52 0 97.5 19.5t79 53.5t53 79.5t19.5 97.5t-19.5 97.5t-53 79.5t-79 53.5t-97.5 19.5h-165zM510 887l-113 -127h-83
l-114 127h88l67 -75h2l66 75h87z" />
    <glyph glyph-name="dcaron" unicode="&#x10f;" horiz-adv-x="719" 
d="M736 703q-1 -18 -9.5 -40t-19 -44t-22 -41.5t-19.5 -31.5l-54 -5q9 26 23.5 59t22.5 67q-14 6 -22.5 15.5t-9.5 25.5v8q0 19 14.5 33.5t41.5 14.5q18 0 29 -6t16.5 -15t7 -17.5t1.5 -15.5v-7zM463 745h101v-745h-101v63q-33 -35 -78 -55t-98 -20t-100.5 21t-82.5 57
t-55.5 84.5t-20.5 103.5t20.5 103t55.5 84t82.5 57t100.5 21t98 -20t78 -55v301zM287 89q33 0 62 12.5t50.5 35t34 52.5t12.5 65q0 34 -12.5 64t-34 52.5t-50.5 35.5t-62 13t-62 -13t-50.5 -35.5t-34 -52.5t-12.5 -64q0 -35 12.5 -65t34 -52.5t50.5 -35t62 -12.5z" />
    <glyph glyph-name="Dcroat" unicode="&#x110;" horiz-adv-x="707" 
d="M318 701q73 0 137 -27.5t111.5 -75.5t75 -111.5t27.5 -136.5q0 -72 -27.5 -136t-75 -111.5t-111.5 -75t-137 -27.5h-265v318h-52v67h52v316h265zM318 101q52 0 97 19.5t79 53.5t54 79t20 97t-20 97.5t-54 79.5t-79 54t-97 20h-165v-216h95v-67h-95v-217h165z" />
    <glyph glyph-name="dcroat" unicode="&#x111;" horiz-adv-x="621" 
d="M633 671v-67h-72v-604h-101v63q-33 -35 -78 -55t-98 -20t-100.5 21t-82.5 57t-55.5 84.5t-20.5 103.5t20.5 103t55.5 84t82.5 57t100.5 21t98 -20t78 -55v160h-75v67h75v74h101v-74h72zM284 89q33 0 62 12.5t50.5 35t34 52.5t12.5 65q0 34 -12.5 64t-34 52.5t-50.5 35.5
t-62 13t-62 -13t-50.5 -35.5t-34 -52.5t-12.5 -64q0 -35 12.5 -65t34 -52.5t50.5 -35t62 -12.5z" />
    <glyph glyph-name="Emacron" unicode="&#x112;" horiz-adv-x="545" 
d="M486 701v-100h-330v-187h312v-101h-312v-212h347v-101h-448v701h431zM178 828h188v-68h-188v68z" />
    <glyph glyph-name="emacron" unicode="&#x113;" horiz-adv-x="599" 
d="M144 226q4 -30 18 -55t35 -43.5t47.5 -29t55.5 -10.5q64 0 101.5 24t60.5 80l92 -41q-35 -82 -96.5 -122.5t-157.5 -40.5q-53 0 -100.5 21t-82.5 57t-55.5 84.5t-20.5 103.5t20.5 103t55.5 84t82.5 57t100.5 21q54 0 101.5 -21t82.5 -57t55.5 -84t20.5 -103
q0 -7 -0.5 -14t-0.5 -14h-415zM452 298q-7 26 -21.5 48t-34 38t-44 25.5t-52.5 9.5q-27 0 -52 -9.5t-44.5 -25.5t-34 -38t-20.5 -48h303zM206 697h188v-69h-188v69z" />
    <glyph glyph-name="Ebreve" unicode="&#x114;" horiz-adv-x="545" 
d="M486 701v-100h-330v-187h312v-101h-312v-212h347v-101h-448v701h431zM388 849q-8 -37 -40.5 -61t-75.5 -24q-42 0 -74.5 24t-41.5 61l62 12q4 -15 19 -26.5t35 -11.5q21 0 36 11.5t18 26.5z" />
    <glyph glyph-name="ebreve" unicode="&#x115;" horiz-adv-x="599" 
d="M144 226q4 -30 18 -55t35 -43.5t47.5 -29t55.5 -10.5q64 0 101.5 24t60.5 80l92 -41q-35 -82 -96.5 -122.5t-157.5 -40.5q-53 0 -100.5 21t-82.5 57t-55.5 84.5t-20.5 103.5t20.5 103t55.5 84t82.5 57t100.5 21q54 0 101.5 -21t82.5 -57t55.5 -84t20.5 -103
q0 -7 -0.5 -14t-0.5 -14h-415zM452 298q-7 26 -21.5 48t-34 38t-44 25.5t-52.5 9.5q-27 0 -52 -9.5t-44.5 -25.5t-34 -38t-20.5 -48h303zM416 714q-8 -37 -40.5 -61.5t-75.5 -24.5q-42 0 -74.5 24.5t-41.5 61.5l62 12q4 -16 18.5 -27t35.5 -11t35.5 11t18.5 27z" />
    <glyph glyph-name="Edotaccent" unicode="&#x116;" horiz-adv-x="545" 
d="M486 701v-100h-330v-187h312v-101h-312v-212h347v-101h-448v701h431zM272 753q-29 0 -47 19.5t-18 45.5q0 28 18.5 46.5t46.5 18.5t46 -18.5t18 -46.5q0 -26 -17.5 -45.5t-46.5 -19.5z" />
    <glyph glyph-name="edotaccent" unicode="&#x117;" horiz-adv-x="599" 
d="M144 226q4 -30 18 -55t35 -43.5t47.5 -29t55.5 -10.5q64 0 101.5 24t60.5 80l92 -41q-35 -82 -96.5 -122.5t-157.5 -40.5q-53 0 -100.5 21t-82.5 57t-55.5 84.5t-20.5 103.5t20.5 103t55.5 84t82.5 57t100.5 21q54 0 101.5 -21t82.5 -57t55.5 -84t20.5 -103
q0 -7 -0.5 -14t-0.5 -14h-415zM452 298q-7 26 -21.5 48t-34 38t-44 25.5t-52.5 9.5q-27 0 -52 -9.5t-44.5 -25.5t-34 -38t-20.5 -48h303zM301 628q-29 0 -47.5 19.5t-18.5 45.5q0 27 18.5 46t47.5 19q28 0 46 -18.5t18 -46.5q0 -26 -18 -45.5t-46 -19.5z" />
    <glyph glyph-name="Eogonek" unicode="&#x118;" horiz-adv-x="545" 
d="M486 701v-100h-330v-187h312v-101h-312v-212h347v-101h-448v701h431zM483 4q-15 -11 -30.5 -25t-28.5 -29t-21 -29.5t-8 -27.5q0 -15 9 -25.5t23 -10.5t27 6.5t25 16.5l25 -54q-5 -5 -15 -11.5t-22.5 -11.5t-27.5 -9t-31 -4q-19 0 -35.5 5.5t-29 16t-20.5 25.5t-8 35
t9.5 39.5t23.5 36.5t30.5 31t30.5 25h74z" />
    <glyph glyph-name="eogonek" unicode="&#x119;" horiz-adv-x="599" 
d="M144 226q4 -30 18 -55t35 -43.5t47.5 -29t55.5 -10.5q64 0 101.5 24t60.5 80l92 -41q-35 -82 -96.5 -122.5t-157.5 -40.5q-53 0 -100.5 21t-82.5 57t-55.5 84.5t-20.5 103.5t20.5 103t55.5 84t82.5 57t100.5 21q54 0 101.5 -21t82.5 -57t55.5 -84t20.5 -103
q0 -7 -0.5 -14t-0.5 -14h-415zM452 298q-7 26 -21.5 48t-34 38t-44 25.5t-52.5 9.5q-27 0 -52 -9.5t-44.5 -25.5t-34 -38t-20.5 -48h303zM404 4q-15 -11 -30.5 -25t-28.5 -29t-21 -29.5t-8 -27.5q0 -15 9 -25.5t23 -10.5t27 6.5t25 16.5l25 -54q-5 -5 -15 -11.5t-22.5 -11.5
t-27.5 -9t-31 -4q-19 0 -35.5 5.5t-29 16t-20.5 25.5t-8 35t9.5 39.5t23.5 36.5t30.5 31t30.5 25h74z" />
    <glyph glyph-name="Ecaron" unicode="&#x11a;" horiz-adv-x="545" 
d="M486 701v-100h-330v-187h312v-101h-312v-212h347v-101h-448v701h431zM428 887l-113 -127h-83l-114 127h88l67 -75h2l66 75h87z" />
    <glyph glyph-name="ecaron" unicode="&#x11b;" horiz-adv-x="599" 
d="M144 226q4 -30 18 -55t35 -43.5t47.5 -29t55.5 -10.5q64 0 101.5 24t60.5 80l92 -41q-35 -82 -96.5 -122.5t-157.5 -40.5q-53 0 -100.5 21t-82.5 57t-55.5 84.5t-20.5 103.5t20.5 103t55.5 84t82.5 57t100.5 21q54 0 101.5 -21t82.5 -57t55.5 -84t20.5 -103
q0 -7 -0.5 -14t-0.5 -14h-415zM452 298q-7 26 -21.5 48t-34 38t-44 25.5t-52.5 9.5q-27 0 -52 -9.5t-44.5 -25.5t-34 -38t-20.5 -48h303zM455 755l-112 -126h-84l-114 126h88l67 -75h2l67 75h86z" />
    <glyph glyph-name="Gcircumflex" unicode="&#x11c;" horiz-adv-x="708" 
d="M676 120q-29 -37 -59 -62.5t-64.5 -40.5t-74.5 -21.5t-89 -6.5q-73 0 -137.5 28.5t-112.5 77.5t-76 115t-28 141t28 140.5t76 115t112.5 77.5t137.5 28q74 0 139 -29t113 -80l-71 -71q-34 38 -80.5 59.5t-100.5 21.5q-53 0 -98.5 -20.5t-80 -56t-54.5 -83.5t-20 -102
q0 -55 20 -102t54.5 -82.5t80 -56t98.5 -20.5q59 0 108 16.5t79 59.5v127h-206v100h306v-273zM395 886l113 -126h-87l-67 75h-2l-66 -75h-87l112 126h84z" />
    <glyph glyph-name="gcircumflex" unicode="&#x11d;" horiz-adv-x="633" 
d="M477 506h100v-483q0 -11 -1.5 -36.5t-10 -57.5t-26.5 -66.5t-51.5 -62.5t-84 -46.5t-124.5 -18.5q-60 0 -111.5 14t-94.5 36l36 94q38 -21 81.5 -32.5t88.5 -11.5q46 0 82.5 9t62 30t39.5 57.5t14 93.5v41q-34 -37 -80 -57.5t-99 -20.5q-54 0 -101 21t-82.5 57t-56 84
t-20.5 103t20.5 103.5t56 84.5t82.5 57t101 21q53 0 99 -20.5t80 -57.5v65zM298 88q33 0 61.5 13t50 35.5t34 52.5t12.5 64q0 35 -12.5 65t-34 52.5t-50 35.5t-61.5 13t-62 -13t-51 -35.5t-34.5 -52.5t-12.5 -65q0 -34 12.5 -64t34.5 -52.5t51 -35.5t62 -13zM357 755
l114 -126h-88l-67 75h-2l-66 -75h-86l112 126h83z" />
    <glyph glyph-name="Gbreve" unicode="&#x11e;" horiz-adv-x="708" 
d="M676 120q-29 -37 -59 -62.5t-64.5 -40.5t-74.5 -21.5t-89 -6.5q-73 0 -137.5 28.5t-112.5 77.5t-76 115t-28 141t28 140.5t76 115t112.5 77.5t137.5 28q74 0 139 -29t113 -80l-71 -71q-34 38 -80.5 59.5t-100.5 21.5q-53 0 -98.5 -20.5t-80 -56t-54.5 -83.5t-20 -102
q0 -55 20 -102t54.5 -82.5t80 -56t98.5 -20.5q59 0 108 16.5t79 59.5v127h-206v100h306v-273zM470 849q-8 -37 -40.5 -61t-75.5 -24q-42 0 -74.5 24t-41.5 61l62 12q4 -15 19 -26.5t35 -11.5q21 0 36 11.5t18 26.5z" />
    <glyph glyph-name="gbreve" unicode="&#x11f;" horiz-adv-x="633" 
d="M477 506h100v-483q0 -11 -1.5 -36.5t-10 -57.5t-26.5 -66.5t-51.5 -62.5t-84 -46.5t-124.5 -18.5q-60 0 -111.5 14t-94.5 36l36 94q38 -21 81.5 -32.5t88.5 -11.5q46 0 82.5 9t62 30t39.5 57.5t14 93.5v41q-34 -37 -80 -57.5t-99 -20.5q-54 0 -101 21t-82.5 57t-56 84
t-20.5 103t20.5 103.5t56 84.5t82.5 57t101 21q53 0 99 -20.5t80 -57.5v65zM298 88q33 0 61.5 13t50 35.5t34 52.5t12.5 64q0 35 -12.5 65t-34 52.5t-50 35.5t-61.5 13t-62 -13t-51 -35.5t-34.5 -52.5t-12.5 -65q0 -34 12.5 -64t34.5 -52.5t51 -35.5t62 -13zM433 714
q-8 -37 -40.5 -61.5t-75.5 -24.5q-42 0 -74.5 24.5t-41.5 61.5l62 12q4 -16 18.5 -27t35.5 -11t35.5 11t18.5 27z" />
    <glyph glyph-name="Gdotaccent" unicode="&#x120;" horiz-adv-x="708" 
d="M676 120q-29 -37 -59 -62.5t-64.5 -40.5t-74.5 -21.5t-89 -6.5q-73 0 -137.5 28.5t-112.5 77.5t-76 115t-28 141t28 140.5t76 115t112.5 77.5t137.5 28q74 0 139 -29t113 -80l-71 -71q-34 38 -80.5 59.5t-100.5 21.5q-53 0 -98.5 -20.5t-80 -56t-54.5 -83.5t-20 -102
q0 -55 20 -102t54.5 -82.5t80 -56t98.5 -20.5q59 0 108 16.5t79 59.5v127h-206v100h306v-273zM354 753q-29 0 -47 19.5t-18 45.5q0 28 18.5 46.5t46.5 18.5t46 -18.5t18 -46.5q0 -26 -17.5 -45.5t-46.5 -19.5z" />
    <glyph glyph-name="gdotaccent" unicode="&#x121;" horiz-adv-x="633" 
d="M477 506h100v-483q0 -11 -1.5 -36.5t-10 -57.5t-26.5 -66.5t-51.5 -62.5t-84 -46.5t-124.5 -18.5q-60 0 -111.5 14t-94.5 36l36 94q38 -21 81.5 -32.5t88.5 -11.5q46 0 82.5 9t62 30t39.5 57.5t14 93.5v41q-34 -37 -80 -57.5t-99 -20.5q-54 0 -101 21t-82.5 57t-56 84
t-20.5 103t20.5 103.5t56 84.5t82.5 57t101 21q53 0 99 -20.5t80 -57.5v65zM298 88q33 0 61.5 13t50 35.5t34 52.5t12.5 64q0 35 -12.5 65t-34 52.5t-50 35.5t-61.5 13t-62 -13t-51 -35.5t-34.5 -52.5t-12.5 -65q0 -34 12.5 -64t34.5 -52.5t51 -35.5t62 -13zM318 629
q-29 0 -47.5 19.5t-18.5 45.5q0 27 18.5 46t47.5 19q28 0 46 -18.5t18 -46.5q0 -26 -18 -45.5t-46 -19.5z" />
    <glyph glyph-name="uni0122" unicode="&#x122;" horiz-adv-x="708" 
d="M676 120q-29 -37 -59 -62.5t-64.5 -40.5t-74.5 -21.5t-89 -6.5q-73 0 -137.5 28.5t-112.5 77.5t-76 115t-28 141t28 140.5t76 115t112.5 77.5t137.5 28q74 0 139 -29t113 -80l-71 -71q-34 38 -80.5 59.5t-100.5 21.5q-53 0 -98.5 -20.5t-80 -56t-54.5 -83.5t-20 -102
q0 -55 20 -102t54.5 -82.5t80 -56t98.5 -20.5q59 0 108 16.5t79 59.5v127h-206v100h306v-273zM417 -149q-2 -18 -10 -40t-19 -44t-22.5 -41t-18.5 -31l-55 -6q9 27 24 59.5t23 67.5q-15 6 -23 15.5t-10 24.5v7q0 20 15 34.5t42 14.5q18 0 29 -6t16.5 -15t7 -18t1.5 -15v-7z
" />
    <glyph glyph-name="uni0123" unicode="&#x123;" horiz-adv-x="621" 
d="M227 649q1 19 10 42.5t20.5 46.5t23.5 43.5t19 33.5l58 5q-11 -27 -26.5 -62t-22.5 -71q14 -6 23 -16t11 -27v-8q0 -20 -15.5 -35t-44.5 -15q-18 0 -29 6t-17.5 15t-8 18.5t-1.5 16.5v7zM465 506h100v-483q0 -11 -1.5 -36.5t-10 -57.5t-26.5 -66.5t-51.5 -62.5t-84 -46.5
t-124.5 -18.5q-60 0 -111.5 14t-94.5 36l35 94q38 -21 81.5 -32.5t89.5 -11.5q45 0 81.5 9t62.5 30t40 57.5t14 93.5v41q-34 -36 -80.5 -57t-99.5 -21t-100.5 21t-82.5 57t-55.5 84t-20.5 103t20.5 103.5t55.5 84.5t82.5 57t100.5 21t99.5 -20.5t80.5 -57.5v65zM285 88
q33 0 62 13t50.5 35.5t34 52.5t12.5 64q0 35 -12.5 65t-34 52.5t-50.5 35.5t-62 13q-32 0 -61 -13t-51 -35.5t-34.5 -52.5t-12.5 -65q0 -34 12.5 -64t34.5 -52.5t51 -35.5t61 -13z" />
    <glyph glyph-name="Hcircumflex" unicode="&#x124;" horiz-adv-x="682" 
d="M154 0h-101v701h101v-286h374v286h100v-701h-100v314h-374v-314zM382 886l113 -126h-87l-67 75h-2l-66 -75h-87l112 126h84z" />
    <glyph glyph-name="hcircumflex" unicode="&#x125;" horiz-adv-x="589" 
d="M146 894l114 -127h-89l-67 74h-2l-66 -74h-87l113 127h84zM316 519q48 0 89 -16t71 -44t47.5 -66.5t17.5 -84.5v-308h-101v268q0 37 -12 65t-32 47t-45.5 29t-52.5 10q-30 0 -56 -12t-45 -33.5t-29.5 -51t-10.5 -64.5v-258h-101v744h101v-299q13 19 31.5 32.5t39.5 23
t43.5 14t44.5 4.5z" />
    <glyph glyph-name="Hbar" unicode="&#x126;" horiz-adv-x="682" 
d="M628 701v-106h36v-67h-36v-528h-101v314h-373v-314h-100v528h-36v67h36v106h100v-106h373v106h101zM154 415h373v113h-373v-113z" />
    <glyph glyph-name="hbar" unicode="&#x127;" horiz-adv-x="589" 
d="M316 519q48 0 89 -16t71 -44t47.5 -66.5t17.5 -84.5v-308h-101v268q0 37 -12 65t-32 47t-45.5 29t-52.5 10q-30 0 -56 -12t-45 -33.5t-29.5 -51t-10.5 -64.5v-258h-101v603h-73v67h73v74h101v-74h74v-67h-74v-158q13 19 31.5 32.5t39.5 23t43.5 14t44.5 4.5z" />
    <glyph glyph-name="Itilde" unicode="&#x128;" horiz-adv-x="222" 
d="M60 701h100v-701h-100v701zM165 829q13 0 19.5 8t8.5 35h57v-10q0 -49 -18.5 -74.5t-56.5 -25.5q-19 0 -35 5t-34 15q-15 8 -27 14t-24 6t-18.5 -12.5t-8.5 -34.5h-58v9q0 48 20 77.5t56 29.5q19 0 34.5 -6.5t32.5 -15.5q14 -8 27 -14t25 -6z" />
    <glyph glyph-name="itilde" unicode="&#x129;" horiz-adv-x="242" 
d="M172 505v-505h-101v505h101zM177 710q12 0 19 8t9 35h57v-6q0 -52 -18.5 -78.5t-56.5 -26.5q-19 0 -35 5.5t-34 14.5l-28 14t-23 6q-13 0 -19.5 -12t-8.5 -35h-57v10q0 48 19.5 77t56.5 29q19 0 34.5 -6t32.5 -16q14 -7 26.5 -13t25.5 -6z" />
    <glyph glyph-name="Imacron" unicode="&#x12a;" horiz-adv-x="225" 
d="M62 701h100v-701h-100v701zM18 828h188v-68h-188v68z" />
    <glyph glyph-name="imacron" unicode="&#x12b;" horiz-adv-x="242" 
d="M172 505v-505h-101v505h101zM27 698h188v-69h-188v69z" />
    <glyph glyph-name="Ibreve" unicode="&#x12c;" horiz-adv-x="225" 
d="M62 701h100v-701h-100v701zM228 849q-8 -37 -40.5 -61t-75.5 -24q-42 0 -74.5 24t-41.5 61l62 12q4 -15 19 -26.5t35 -11.5q21 0 36 11.5t18 26.5z" />
    <glyph glyph-name="ibreve" unicode="&#x12d;" horiz-adv-x="242" 
d="M172 505v-505h-101v505h101zM237 714q-8 -37 -40.5 -61.5t-75.5 -24.5q-42 0 -74.5 24.5t-41.5 61.5l62 12q4 -16 18.5 -27t35.5 -11t35.5 11t18.5 27z" />
    <glyph glyph-name="Iogonek" unicode="&#x12e;" horiz-adv-x="225" 
d="M62 701h100v-701h-100v701zM136 4q-15 -11 -30.5 -25t-28.5 -29t-21 -29.5t-8 -27.5q0 -15 9 -25.5t23 -10.5t27 6.5t25 16.5l25 -54q-5 -5 -15 -11.5t-22.5 -11.5t-27.5 -9t-31 -4q-19 0 -35.5 5.5t-29 16t-20.5 25.5t-8 35t9.5 39.5t23.5 36.5t30.5 31t30.5 25h74z" />
    <glyph glyph-name="iogonek" unicode="&#x12f;" horiz-adv-x="242" 
d="M122 708q28 0 48.5 -20.5t20.5 -48.5q0 -29 -20.5 -49t-48.5 -20q-30 0 -50 20t-20 49q0 28 20 48.5t50 20.5zM71 505h101v-505h-101v505zM145 3q-15 -11 -30.5 -25t-28.5 -29t-21 -29.5t-8 -27.5q0 -15 9 -25.5t23 -10.5t27 6.5t25 16.5l25 -54q-5 -5 -15 -11.5
t-22.5 -11.5t-27.5 -9t-31 -4q-19 0 -35.5 5.5t-29 16t-20.5 25.5t-8 35t9.5 39.5t23.5 36.5t30.5 31t30.5 25h74z" />
    <glyph glyph-name="Idotaccent" unicode="&#x130;" horiz-adv-x="225" 
d="M62 701h100v-701h-100v701zM113 753q-29 0 -47 19.5t-18 45.5q0 28 18.5 46.5t46.5 18.5t46 -18.5t18 -46.5q0 -26 -17.5 -45.5t-46.5 -19.5z" />
    <glyph glyph-name="dotlessi" unicode="&#x131;" horiz-adv-x="242" 
d="M172 505v-505h-101v505h101z" />
    <glyph glyph-name="IJ" unicode="&#x132;" horiz-adv-x="520" 
d="M62 701h100v-701h-100v701zM456 39q0 -46 -17.5 -86.5t-47 -70t-70 -47t-85.5 -17.5h-69v100h69q25 0 47 9.5t38 26t25.5 38t9.5 47.5v662h100v-662z" />
    <glyph glyph-name="ij" unicode="&#x133;" horiz-adv-x="492" 
d="M122 708q28 0 48.5 -20.5t20.5 -48.5q0 -29 -20.5 -49t-48.5 -20q-30 0 -50 20t-20 49q0 28 20 48.5t50 20.5zM71 505h101v-505h-101v505zM390 571q-29 0 -49 20t-20 49t20 49t49 20t49 -20t20 -49t-20 -49t-49 -20zM341 506h100v-575q0 -40 -15 -75.5t-41.5 -62t-62 -42
t-76.5 -15.5h-55v101h55q20 0 37.5 7t30 20t20 30t7.5 37v575z" />
    <glyph glyph-name="Jcircumflex" unicode="&#x134;" horiz-adv-x="295" 
d="M231 39q0 -46 -17.5 -86.5t-47 -70t-70 -47t-85.5 -17.5h-69v100h69q25 0 47 9.5t38 26t25.5 38t9.5 47.5v662h100v-662zM188 886l113 -126h-87l-67 75h-2l-66 -75h-87l112 126h84z" />
    <glyph glyph-name="jcircumflex" unicode="&#x135;" horiz-adv-x="250" 
d="M192 754l113 -127h-88l-67 76h-2l-66 -76h-87l113 127h84zM99 506h100v-575q0 -40 -15 -75.5t-41.5 -62t-62 -42t-76.5 -15.5h-55v101h55q20 0 37.5 7t30 20t20 30t7.5 37v575z" />
    <glyph glyph-name="uni0136" unicode="&#x136;" horiz-adv-x="631" 
d="M155 259v-259h-101v701h101v-299l299 299h142l-287 -287l307 -414h-125l-254 342zM378 -149q-2 -18 -10 -40t-19 -44t-22.5 -41t-18.5 -31l-55 -6q9 27 24 59.5t23 67.5q-15 6 -23 15.5t-10 24.5v7q0 20 15 34.5t42 14.5q18 0 29 -6t16.5 -15t7 -18t1.5 -15v-7z" />
    <glyph glyph-name="uni0137" unicode="&#x137;" horiz-adv-x="499" 
d="M152 744v-422l181 184h139l-193 -199l208 -307h-121l-158 233l-56 -57v-176h-100v744h100zM312 -149q-2 -18 -10 -40t-19 -44t-22.5 -41t-18.5 -31l-55 -6q9 27 24 59.5t23 67.5q-15 6 -23 15.5t-10 24.5v7q0 20 15 34.5t42 14.5q18 0 29 -6t16.5 -15t7 -18t1.5 -15v-7z
" />
    <glyph glyph-name="kgreenlandic" unicode="&#x138;" horiz-adv-x="499" 
d="M152 506v-185l181 185h139l-193 -199l207 -307h-121l-157 232l-56 -57v-175h-100v506h100z" />
    <glyph glyph-name="Lacute" unicode="&#x139;" horiz-adv-x="537" 
d="M57 0v701h101v-600h341v-101h-442zM282 887l-132 -127h-93l93 127h132z" />
    <glyph glyph-name="lacute" unicode="&#x13a;" horiz-adv-x="215" 
d="M282 894l-132 -127h-93l94 127h131zM58 743h100v-743h-100v743z" />
    <glyph glyph-name="uni013B" unicode="&#x13b;" horiz-adv-x="537" 
d="M57 0v701h101v-600h341v-101h-442zM332 -149q-2 -18 -10 -40t-19 -44t-22.5 -41t-18.5 -31l-55 -6q9 27 24 59.5t23 67.5q-15 6 -23 15.5t-10 24.5v7q0 20 15 34.5t42 14.5q18 0 29 -6t16.5 -15t7 -18t1.5 -15v-7z" />
    <glyph glyph-name="uni013C" unicode="&#x13c;" horiz-adv-x="216" 
d="M58 744h101v-744h-101v744zM170 -149q-2 -18 -10 -40t-19 -44t-22.5 -41t-18.5 -31l-55 -6q9 27 24 59.5t23 67.5q-15 6 -23 15.5t-10 24.5v7q0 20 15 34.5t42 14.5q18 0 29 -6t16.5 -15t7 -18t1.5 -15v-7z" />
    <glyph glyph-name="Lcaron" unicode="&#x13d;" horiz-adv-x="537" 
d="M367 649q-1 -17 -9.5 -39t-19 -44t-22 -41.5t-19.5 -31.5l-55 -5q10 27 24.5 59.5t22.5 66.5q-14 6 -22.5 15.5t-9.5 25.5v7q0 19 14.5 33.5t41.5 14.5q18 0 29 -5.5t16.5 -14.5t7 -18t1.5 -16v-7zM157 701v-600h342v-101h-442v701h100z" />
    <glyph glyph-name="lcaron" unicode="&#x13e;" horiz-adv-x="331" 
d="M335 703q-1 -17 -9.5 -39.5t-19.5 -44.5t-22.5 -41t-18.5 -32l-55 -5q10 27 24.5 59.5t22.5 67.5q-14 5 -22.5 14.5t-10.5 25.5v7q0 20 15 34.5t43 14.5q17 0 27.5 -5.5t16.5 -15t7.5 -18t1.5 -15.5v-7zM57 0v743h101v-743h-101z" />
    <glyph glyph-name="Ldot" unicode="&#x13f;" horiz-adv-x="537" 
d="M57 0v701h101v-600h341v-101h-442zM280 380q0 33 21 54t53 21q34 0 54 -21t21 -54q0 -32 -20.5 -53.5t-54.5 -21.5q-33 0 -53.5 21.5t-20.5 53.5z" />
    <glyph glyph-name="ldot" unicode="&#x140;" horiz-adv-x="340" 
d="M57 744h101v-744h-101v744zM193 350q0 33 21 54t53 21q34 0 54 -21t21 -54q0 -32 -20.5 -53.5t-54.5 -21.5q-33 0 -53.5 21.5t-20.5 53.5z" />
    <glyph glyph-name="Lslash" unicode="&#x141;" horiz-adv-x="537" 
d="M157 701v-260l89 88v-94l-89 -89v-245h342v-101h-442v245l-74 -73v95l74 74v360h100z" />
    <glyph glyph-name="lslash" unicode="&#x142;" horiz-adv-x="215" 
d="M158 743v-274l81 81v-94l-81 -82v-374h-101v274l-82 -81v95l82 81v374h101z" />
    <glyph glyph-name="Nacute" unicode="&#x143;" horiz-adv-x="712" 
d="M187 700l367 -564v562h100v-700h-131l-366 563v-561h-101v700h131zM469 887l-132 -127h-93l93 127h132z" />
    <glyph glyph-name="nacute" unicode="&#x144;" horiz-adv-x="592" 
d="M315 519q48 0 89 -16.5t71 -45t47.5 -67.5t17.5 -85v-305h-101v268q0 37 -10 65t-28.5 47t-44 29t-53.5 10q-37 0 -64 -12t-45.5 -33.5t-28 -50.5t-9.5 -65v-258h-101v506h101v-61q13 19 31.5 32.5t39.5 23t43.5 14t44.5 4.5zM409 758l-132 -126h-94l94 126h132z" />
    <glyph glyph-name="uni0145" unicode="&#x145;" horiz-adv-x="712" 
d="M187 700l367 -564v562h100v-700h-131l-366 563v-561h-101v700h131zM419 -149q-2 -18 -10 -40t-19 -44t-22.5 -41t-18.5 -31l-55 -6q9 27 24 59.5t23 67.5q-15 6 -23 15.5t-10 24.5v7q0 20 15 34.5t42 14.5q18 0 29 -6t16.5 -15t7 -18t1.5 -15v-7z" />
    <glyph glyph-name="uni0146" unicode="&#x146;" horiz-adv-x="592" 
d="M315 519q48 0 89 -16.5t71 -45t47.5 -67.5t17.5 -85v-305h-101v268q0 37 -10 65t-28.5 47t-44 29t-53.5 10q-37 0 -64 -12t-45.5 -33.5t-28 -50.5t-9.5 -65v-258h-101v506h101v-61q13 19 31.5 32.5t39.5 23t43.5 14t44.5 4.5zM358 -149q-2 -18 -10 -40t-19 -44t-22.5 -41
t-18.5 -31l-55 -6q9 27 24 59.5t23 67.5q-15 6 -23 15.5t-10 24.5v7q0 20 15 34.5t42 14.5q18 0 29 -6t16.5 -15t7 -18t1.5 -15v-7z" />
    <glyph glyph-name="Ncaron" unicode="&#x147;" horiz-adv-x="712" 
d="M187 700l367 -564v562h100v-700h-131l-366 563v-561h-101v700h131zM511 887l-113 -127h-83l-114 127h88l67 -75h2l66 75h87z" />
    <glyph glyph-name="ncaron" unicode="&#x148;" horiz-adv-x="592" 
d="M315 519q48 0 89 -16.5t71 -45t47.5 -67.5t17.5 -85v-305h-101v268q0 37 -10 65t-28.5 47t-44 29t-53.5 10q-37 0 -64 -12t-45.5 -33.5t-28 -50.5t-9.5 -65v-258h-101v506h101v-61q13 19 31.5 32.5t39.5 23t43.5 14t44.5 4.5zM452 755l-112 -126h-84l-114 126h88l67 -75
h2l67 75h86z" />
    <glyph glyph-name="napostrophe" unicode="&#x149;" horiz-adv-x="616" 
d="M30 691q18 0 28.5 -6t16.5 -15t7.5 -17.5t1.5 -15.5v-7q-1 -17 -9.5 -39.5t-19.5 -44.5t-22.5 -41t-18.5 -32l-55 -4q9 26 24 58.5t23 67.5q-14 5 -22.5 14.5t-10.5 25.5v8q0 19 14.5 33.5t42.5 14.5zM339 519q48 0 89 -16t71 -44t47.5 -66.5t17.5 -84.5v-308h-101v268
q0 37 -12 65t-32 47t-45.5 29t-52.5 10q-30 0 -56 -12t-45 -33.5t-29.5 -51t-10.5 -64.5v-258h-101v506h101v-61q13 19 31.5 32.5t39.5 23t43.5 14t44.5 4.5z" />
    <glyph glyph-name="Eng" unicode="&#x14a;" horiz-adv-x="712" 
d="M654 701v-714q0 -64 -20 -103t-53 -61t-75.5 -29t-86.5 -7v100q22 0 44.5 3t40.5 12.5t29 25.5t11 41l-387 595v-563h-101v700h131l367 -563v563h100z" />
    <glyph glyph-name="eng" unicode="&#x14b;" horiz-adv-x="592" 
d="M313 519q49 0 89.5 -16t71 -44t47.5 -66.5t17 -84.5v-300q0 -56 -19.5 -96.5t-52.5 -67.5t-75.5 -40t-88.5 -13v100q26 0 50.5 9t43 25t30.5 38t12 47v258q0 37 -12.5 65t-32.5 47t-45.5 29t-51.5 10q-30 0 -56 -12t-45 -33.5t-30 -51t-11 -64.5v-258h-100v506h100v-61
q14 19 32.5 32.5t39.5 23t43 14t44 4.5z" />
    <glyph glyph-name="Omacron" unicode="&#x14c;" horiz-adv-x="777" 
d="M388 711q73 0 137 -28t112 -77.5t76 -115t28 -140.5t-28 -141t-76 -115t-112 -77.5t-138 -28.5q-73 0 -137.5 28.5t-112 77.5t-75.5 115t-28 141t28 140.5t75.5 115t112 77.5t138.5 28zM387 611q-52 0 -98 -20.5t-80.5 -56t-54 -83t-19.5 -101.5t19.5 -101.5t54 -83
t80.5 -56t98 -20.5q53 0 99 20.5t80.5 56t54.5 83t20 101.5t-20 101.5t-54.5 83t-80.5 56t-99 20.5zM295 828h188v-68h-188v68z" />
    <glyph glyph-name="omacron" unicode="&#x14d;" horiz-adv-x="596" 
d="M298 519q54 0 101.5 -21t82.5 -57t55.5 -84.5t20.5 -103.5t-20.5 -103t-55.5 -84t-82.5 -57t-100.5 -21q-54 0 -101.5 21t-82.5 57t-55.5 84t-20.5 103t20.5 103.5t55.5 84.5t82.5 57t100.5 21zM298 419q-33 0 -61.5 -13t-50.5 -35.5t-34.5 -52.5t-12.5 -65
q0 -34 12.5 -64t34.5 -52.5t50.5 -35.5t61.5 -13t62.5 13t51 35.5t34 52.5t12.5 64q0 35 -12.5 65t-34 52.5t-51 35.5t-62.5 13zM204 697h188v-69h-188v69z" />
    <glyph glyph-name="Obreve" unicode="&#x14e;" horiz-adv-x="777" 
d="M388 711q73 0 137 -28t112 -77.5t76 -115t28 -140.5t-28 -141t-76 -115t-112 -77.5t-138 -28.5q-73 0 -137.5 28.5t-112 77.5t-75.5 115t-28 141t28 140.5t75.5 115t112 77.5t138.5 28zM387 611q-52 0 -98 -20.5t-80.5 -56t-54 -83t-19.5 -101.5t19.5 -101.5t54 -83
t80.5 -56t98 -20.5q53 0 99 20.5t80.5 56t54.5 83t20 101.5t-20 101.5t-54.5 83t-80.5 56t-99 20.5zM504 849q-8 -37 -40.5 -61t-75.5 -24q-42 0 -74.5 24t-41.5 61l62 12q4 -15 19 -26.5t35 -11.5q21 0 36 11.5t18 26.5z" />
    <glyph glyph-name="obreve" unicode="&#x14f;" horiz-adv-x="596" 
d="M298 519q54 0 101.5 -21t82.5 -57t55.5 -84.5t20.5 -103.5t-20.5 -103t-55.5 -84t-82.5 -57t-100.5 -21q-54 0 -101.5 21t-82.5 57t-55.5 84t-20.5 103t20.5 103.5t55.5 84.5t82.5 57t100.5 21zM298 419q-33 0 -61.5 -13t-50.5 -35.5t-34.5 -52.5t-12.5 -65
q0 -34 12.5 -64t34.5 -52.5t50.5 -35.5t61.5 -13t62.5 13t51 35.5t34 52.5t12.5 64q0 35 -12.5 65t-34 52.5t-51 35.5t-62.5 13zM414 714q-8 -37 -40.5 -61.5t-75.5 -24.5q-42 0 -74.5 24.5t-41.5 61.5l62 12q4 -16 18.5 -27t35.5 -11t35.5 11t18.5 27z" />
    <glyph glyph-name="Ohungarumlaut" unicode="&#x150;" horiz-adv-x="777" 
d="M388 711q73 0 137 -28t112 -77.5t76 -115t28 -140.5t-28 -141t-76 -115t-112 -77.5t-138 -28.5q-73 0 -137.5 28.5t-112 77.5t-75.5 115t-28 141t28 140.5t75.5 115t112 77.5t138.5 28zM387 611q-52 0 -98 -20.5t-80.5 -56t-54 -83t-19.5 -101.5t19.5 -101.5t54 -83
t80.5 -56t98 -20.5q53 0 99 20.5t80.5 56t54.5 83t20 101.5t-20 101.5t-54.5 83t-80.5 56t-99 20.5zM412 887l-96 -126h-93l93 126h96zM556 887l-96 -126h-94l94 126h96z" />
    <glyph glyph-name="ohungarumlaut" unicode="&#x151;" horiz-adv-x="596" 
d="M298 519q54 0 101.5 -21t82.5 -57t55.5 -84.5t20.5 -103.5t-20.5 -103t-55.5 -84t-82.5 -57t-100.5 -21q-54 0 -101.5 21t-82.5 57t-55.5 84t-20.5 103t20.5 103.5t55.5 84.5t82.5 57t100.5 21zM298 419q-33 0 -61.5 -13t-50.5 -35.5t-34.5 -52.5t-12.5 -65
q0 -34 12.5 -64t34.5 -52.5t50.5 -35.5t61.5 -13t62.5 13t51 35.5t34 52.5t12.5 64q0 35 -12.5 65t-34 52.5t-51 35.5t-62.5 13zM322 755l-97 -127h-93l93 127h97zM466 755l-97 -127h-93l94 127h96z" />
    <glyph glyph-name="OE" unicode="&#x152;" horiz-adv-x="962" 
d="M574 100h348v-100h-448q-20 -5 -42 -8.5t-45 -3.5q-73 0 -137.5 28.5t-112 77.5t-75.5 115t-28 141t28 140.5t75.5 115t112 77.5t137.5 28q23 0 44 -2.5t42 -7.5h431v-100h-330v-187h313v-100h-313v-214zM474 595q-20 8 -41.5 12.5t-45.5 4.5q-52 0 -98 -20.5t-80.5 -56
t-54 -83.5t-19.5 -102q0 -55 19.5 -102.5t54 -83t80.5 -56t98 -20.5q24 0 45.5 4t41.5 12v491z" />
    <glyph glyph-name="oe" unicode="&#x153;" horiz-adv-x="988" 
d="M704 519q54 0 101 -21t82.5 -57t56 -84t20.5 -103q0 -7 -0.5 -14t-0.5 -14h-416q5 -30 19 -55t35 -43.5t47.5 -28.5t55.5 -10q64 0 101 24t60 79l92 -41q-34 -81 -96 -122t-157 -41q-33 0 -63.5 8t-57 23t-49 35t-40.5 46q-17 -26 -39.5 -46t-49 -35t-57 -23t-63.5 -8
q-53 0 -100.5 21t-82.5 57t-55.5 84.5t-20.5 103.5t20.5 103t55.5 84t82.5 57t100.5 21q33 0 63.5 -8t57 -22.5t49 -35t39.5 -45.5q18 25 40.5 45.5t49 35t57 22.5t63.5 8zM855 298q-6 26 -20.5 48t-34.5 38t-44.5 25.5t-51.5 9.5t-52 -9.5t-45 -25.5t-34 -38t-21 -48h303z
M285 89q33 0 62.5 12.5t51 35t34 52.5t12.5 65q0 34 -12.5 64t-34 52.5t-51 35.5t-62.5 13t-61.5 -13t-50.5 -35.5t-34 -52.5t-12 -64q0 -35 12 -65t34 -52.5t50.5 -35t61.5 -12.5z" />
    <glyph glyph-name="Racute" unicode="&#x154;" 
d="M457 0l-153 285h-143v-285h-101v701h286q43 0 81 -16.5t66.5 -44.5t44.5 -66t16 -81q0 -34 -10.5 -65.5t-29.5 -57t-45 -45t-56 -29.5l157 -296h-113zM346 386q23 0 42.5 8.5t34 23t23 34t8.5 41.5t-8.5 42t-23 34.5t-34 23t-42.5 8.5h-185v-215h185zM407 887l-132 -127
h-93l93 127h132z" />
    <glyph glyph-name="racute" unicode="&#x155;" horiz-adv-x="353" 
d="M332 516v-101h-65q-21 0 -39.5 -6t-33 -18.5t-22.5 -30t-8 -39.5v-321h-101v516h101v-59q17 27 42.5 43t60.5 16h65zM289 758l-132 -126h-94l94 126h132z" />
    <glyph glyph-name="uni0156" unicode="&#x156;" 
d="M457 0l-153 285h-143v-285h-101v701h286q43 0 81 -16.5t66.5 -44.5t44.5 -66t16 -81q0 -34 -10.5 -65.5t-29.5 -57t-45 -45t-56 -29.5l157 -296h-113zM346 386q23 0 42.5 8.5t34 23t23 34t8.5 41.5t-8.5 42t-23 34.5t-34 23t-42.5 8.5h-185v-215h185zM357 -149
q-2 -18 -10 -40t-19 -44t-22.5 -41t-18.5 -31l-55 -6q9 27 24 59.5t23 67.5q-15 6 -23 15.5t-10 24.5v7q0 20 15 34.5t42 14.5q18 0 29 -6t16.5 -15t7 -18t1.5 -15v-7z" />
    <glyph glyph-name="uni0157" unicode="&#x157;" horiz-adv-x="353" 
d="M332 516v-101h-65q-21 0 -39.5 -6t-33 -18.5t-22.5 -30t-8 -39.5v-321h-101v516h101v-59q17 27 42.5 43t60.5 16h65zM239 -149q-2 -18 -10 -40t-19 -44t-22.5 -41t-18.5 -31l-55 -6q9 27 24 59.5t23 67.5q-15 6 -23 15.5t-10 24.5v7q0 20 15 34.5t42 14.5q18 0 29 -6
t16.5 -15t7 -18t1.5 -15v-7z" />
    <glyph glyph-name="Rcaron" unicode="&#x158;" 
d="M457 0l-153 285h-143v-285h-101v701h286q43 0 81 -16.5t66.5 -44.5t44.5 -66t16 -81q0 -34 -10.5 -65.5t-29.5 -57t-45 -45t-56 -29.5l157 -296h-113zM346 386q23 0 42.5 8.5t34 23t23 34t8.5 41.5t-8.5 42t-23 34.5t-34 23t-42.5 8.5h-185v-215h185zM449 887l-113 -127
h-83l-114 127h88l67 -75h2l66 75h87z" />
    <glyph glyph-name="rcaron" unicode="&#x159;" horiz-adv-x="353" 
d="M332 516v-101h-65q-21 0 -39.5 -6t-33 -18.5t-22.5 -30t-8 -39.5v-321h-101v516h101v-59q17 27 42.5 43t60.5 16h65zM334 755l-112 -126h-84l-114 126h88l67 -75h2l67 75h86z" />
    <glyph glyph-name="Sacute" unicode="&#x15a;" horiz-adv-x="546" 
d="M298 399q42 -13 81 -30t69 -42t47 -59t17 -82v-5q-1 -47 -21 -83t-53 -60.5t-75.5 -37t-88.5 -12.5q-47 0 -105 12t-133 42l38 93q60 -24 110 -35t91 -11q24 0 48.5 4.5t44 16.5t31.5 30t12 44v4q0 26 -13.5 45t-35 32t-46.5 22t-47 16q-41 13 -79 29.5t-68 41
t-47.5 59.5t-17.5 84q0 48 20 84.5t53 61t76.5 36.5t88.5 12t101.5 -11t127.5 -40l-37 -93q-55 22 -103.5 33.5t-89.5 11.5q-24 0 -48 -5t-44 -17t-32.5 -29.5t-12.5 -44.5q0 -28 13.5 -47.5t35 -32.5t46.5 -21.5t46 -15.5zM386 887l-132 -127h-93l93 127h132z" />
    <glyph glyph-name="sacute" unicode="&#x15b;" horiz-adv-x="420" 
d="M381 165q2 -13 2 -26q0 -27 -12 -58t-43 -56q-17 -13 -47 -25t-75 -12q-34 0 -76 8.5t-95 31.5l38 93q41 -17 73 -24.5t45 -8t15 -0.5q21 0 36 4.5t24 11.5q11 9 13.5 18.5t2.5 16.5q0 5 -1 11q-2 17 -23 29.5t-62 25.5q-20 6 -44.5 15.5t-47.5 24.5t-40.5 38.5
t-22.5 56.5q-2 14 -2 27q0 27 12 57.5t43 55.5q14 12 37.5 23t47 13.5t37.5 2.5q26 0 65.5 -6t102.5 -31l-37 -94q-73 30 -97.5 30.5t-25.5 0.5q-46 0 -67 -17q-11 -8 -15 -17.5t-4 -19.5q0 -4 1 -9q3 -17 24 -29.5t63 -25.5q19 -6 44 -15.5t47.5 -25t40 -38.5t23.5 -57z
M323 758l-132 -126h-94l94 126h132z" />
    <glyph glyph-name="Scircumflex" unicode="&#x15c;" horiz-adv-x="546" 
d="M298 399q42 -13 81 -30t69 -42t47 -59t17 -82v-5q-1 -47 -21 -83t-53 -60.5t-75.5 -37t-88.5 -12.5q-47 0 -105 12t-133 42l38 93q60 -24 110 -35t91 -11q24 0 48.5 4.5t44 16.5t31.5 30t12 44v4q0 26 -13.5 45t-35 32t-46.5 22t-47 16q-41 13 -79 29.5t-68 41
t-47.5 59.5t-17.5 84q0 48 20 84.5t53 61t76.5 36.5t88.5 12t101.5 -11t127.5 -40l-37 -93q-55 22 -103.5 33.5t-89.5 11.5q-24 0 -48 -5t-44 -17t-32.5 -29.5t-12.5 -44.5q0 -28 13.5 -47.5t35 -32.5t46.5 -21.5t46 -15.5zM314 886l113 -126h-87l-67 75h-2l-66 -75h-87
l112 126h84z" />
    <glyph glyph-name="scircumflex" unicode="&#x15d;" horiz-adv-x="420" 
d="M381 165q2 -13 2 -26q0 -27 -12 -58t-43 -56q-17 -13 -47 -25t-75 -12q-34 0 -76 8.5t-95 31.5l38 93q41 -17 73 -24.5t45 -8t15 -0.5q21 0 36 4.5t24 11.5q11 9 13.5 18.5t2.5 16.5q0 5 -1 11q-2 17 -23 29.5t-62 25.5q-20 6 -44.5 15.5t-47.5 24.5t-40.5 38.5
t-22.5 56.5q-2 14 -2 27q0 27 12 57.5t43 55.5q14 12 37.5 23t47 13.5t37.5 2.5q26 0 65.5 -6t102.5 -31l-37 -94q-73 30 -97.5 30.5t-25.5 0.5q-46 0 -67 -17q-11 -8 -15 -17.5t-4 -19.5q0 -4 1 -9q3 -17 24 -29.5t63 -25.5q19 -6 44 -15.5t47.5 -25t40 -38.5t23.5 -57z
M251 755l114 -126h-88l-67 75h-2l-66 -75h-86l112 126h83z" />
    <glyph glyph-name="Scedilla" unicode="&#x15e;" horiz-adv-x="546" 
d="M298 399q42 -13 81 -30t69 -42t47 -59t17 -82v-5q-1 -47 -21 -83t-53 -60.5t-75.5 -37t-88.5 -12.5q-47 0 -105 12t-133 42l38 93q60 -24 110 -35t91 -11q24 0 48.5 4.5t44 16.5t31.5 30t12 44v4q0 26 -13.5 45t-35 32t-46.5 22t-47 16q-41 13 -79 29.5t-68 41
t-47.5 59.5t-17.5 84q0 48 20 84.5t53 61t76.5 36.5t88.5 12t101.5 -11t127.5 -40l-37 -93q-55 22 -103.5 33.5t-89.5 11.5q-24 0 -48 -5t-44 -17t-32.5 -29.5t-12.5 -44.5q0 -28 13.5 -47.5t35 -32.5t46.5 -21.5t46 -15.5zM296 -38q30 -6 51.5 -26t21.5 -53
q0 -24 -9.5 -40.5t-25.5 -27t-36.5 -15t-40.5 -4.5q-22 0 -43 4.5t-36 13.5l16 51q11 -5 26.5 -9t31.5 -4q19 0 31 7t12 22q0 19 -21 28.5t-62 13.5l48 91h66z" />
    <glyph glyph-name="scedilla" unicode="&#x15f;" horiz-adv-x="420" 
d="M381 165q2 -13 2 -26q0 -27 -12 -58t-43 -56q-17 -13 -47 -25t-75 -12q-34 0 -76 8.5t-95 31.5l38 93q41 -17 73 -24.5t45 -8t15 -0.5q21 0 36 4.5t24 11.5q11 9 13.5 18.5t2.5 16.5q0 5 -1 11q-2 17 -23 29.5t-62 25.5q-20 6 -44.5 15.5t-47.5 24.5t-40.5 38.5
t-22.5 56.5q-2 14 -2 27q0 27 12 57.5t43 55.5q14 12 37.5 23t47 13.5t37.5 2.5q26 0 65.5 -6t102.5 -31l-37 -94q-73 30 -97.5 30.5t-25.5 0.5q-46 0 -67 -17q-11 -8 -15 -17.5t-4 -19.5q0 -4 1 -9q3 -17 24 -29.5t63 -25.5q19 -6 44 -15.5t47.5 -25t40 -38.5t23.5 -57z
M233 -38q30 -6 51.5 -26t21.5 -53q0 -24 -9.5 -40.5t-25.5 -27t-36.5 -15t-40.5 -4.5q-22 0 -43 4.5t-36 13.5l16 51q11 -5 26.5 -9t31.5 -4q19 0 31 7t12 22q0 19 -21 28.5t-62 13.5l48 91h66z" />
    <glyph glyph-name="Scaron" unicode="&#x160;" horiz-adv-x="546" 
d="M298 399q42 -13 81 -30t69 -42t47 -59t17 -82v-5q-1 -47 -21 -83t-53 -60.5t-75.5 -37t-88.5 -12.5q-47 0 -105 12t-133 42l38 93q60 -24 110 -35t91 -11q24 0 48.5 4.5t44 16.5t31.5 30t12 44v4q0 26 -13.5 45t-35 32t-46.5 22t-47 16q-41 13 -79 29.5t-68 41
t-47.5 59.5t-17.5 84q0 48 20 84.5t53 61t76.5 36.5t88.5 12t101.5 -11t127.5 -40l-37 -93q-55 22 -103.5 33.5t-89.5 11.5q-24 0 -48 -5t-44 -17t-32.5 -29.5t-12.5 -44.5q0 -28 13.5 -47.5t35 -32.5t46.5 -21.5t46 -15.5zM429 887l-113 -127h-83l-114 127h88l67 -75h2
l66 75h87z" />
    <glyph glyph-name="scaron" unicode="&#x161;" horiz-adv-x="420" 
d="M381 165q2 -13 2 -26q0 -27 -12 -58t-43 -56q-17 -13 -47 -25t-75 -12q-34 0 -76 8.5t-95 31.5l38 93q41 -17 73 -24.5t45 -8t15 -0.5q21 0 36 4.5t24 11.5q11 9 13.5 18.5t2.5 16.5q0 5 -1 11q-2 17 -23 29.5t-62 25.5q-20 6 -44.5 15.5t-47.5 24.5t-40.5 38.5
t-22.5 56.5q-2 14 -2 27q0 27 12 57.5t43 55.5q14 12 37.5 23t47 13.5t37.5 2.5q26 0 65.5 -6t102.5 -31l-37 -94q-73 30 -97.5 30.5t-25.5 0.5q-46 0 -67 -17q-11 -8 -15 -17.5t-4 -19.5q0 -4 1 -9q3 -17 24 -29.5t63 -25.5q19 -6 44 -15.5t47.5 -25t40 -38.5t23.5 -57z
M366 754l-112 -126h-84l-114 126h88l67 -75h2l67 75h86z" />
    <glyph glyph-name="uni0162" unicode="&#x162;" horiz-adv-x="647" 
d="M33 701h583v-100h-242v-601h-100v601h-241v100zM316 -38q30 -6 51.5 -26t21.5 -53q0 -24 -9.5 -40.5t-25.5 -27t-36.5 -15t-40.5 -4.5q-22 0 -43 4.5t-36 13.5l16 51q11 -5 26.5 -9t31.5 -4q19 0 31 7t12 22q0 19 -21 28.5t-62 13.5l48 91h66z" />
    <glyph glyph-name="uni0163" unicode="&#x163;" horiz-adv-x="337" 
d="M188 164q0 -24 6 -38t16.5 -20t26.5 -7t35 -1h35v-98h-51q-38 0 -68.5 6t-53 20.5t-35 39.5t-12.5 61v288h-63v101h63v120l101 28v-148h82v-101h-82v-251zM236 -38q30 -6 51.5 -26t21.5 -53q0 -24 -9.5 -40.5t-25.5 -27t-36.5 -15t-40.5 -4.5q-22 0 -43 4.5t-36 13.5
l16 51q11 -5 26.5 -9t31.5 -4q19 0 31 7t12 22q0 19 -21 28.5t-62 13.5l48 91h66z" />
    <glyph glyph-name="Tcaron" unicode="&#x164;" horiz-adv-x="647" 
d="M33 701h583v-100h-242v-601h-100v601h-241v100zM479 887l-113 -127h-83l-114 127h88l67 -75h2l66 75h87z" />
    <glyph glyph-name="tcaron" unicode="&#x165;" horiz-adv-x="337" 
d="M378 738q-2 -19 -10.5 -41t-19 -43.5t-22 -41t-19.5 -31.5l-54 -5l25.5 59.5t20.5 66.5q-13 6 -22 15.5t-10 24.5v8q0 20 14.5 34.5t42.5 14.5q17 0 28 -6.5t17 -15.5t7.5 -19.5t1.5 -19.5zM188 164q0 -24 6 -38t17 -20t26.5 -7t34.5 -1h35v-98h-51q-37 0 -68 6
t-53.5 20.5t-35 39.5t-12.5 61v288h-63v101h63v120l101 28v-148h82v-101h-82v-251z" />
    <glyph glyph-name="Tbar" unicode="&#x166;" horiz-adv-x="647" 
d="M614 701v-100h-241v-232h94v-67h-94v-302h-100v302h-94v67h94v232h-241v100h582z" />
    <glyph glyph-name="tbar" unicode="&#x167;" horiz-adv-x="337" 
d="M307 98v-98h-51q-38 0 -68.5 6t-53 20.5t-35 39.5t-12.5 61v107h-62v68h62v113h-63v101h63v120l101 28v-148h82v-101h-82v-113h76v-68h-76v-70q0 -24 5.5 -38t16.5 -20t27 -7t35 -1h35z" />
    <glyph glyph-name="Utilde" unicode="&#x168;" horiz-adv-x="659" 
d="M522 701h100v-420q0 -66 -18.5 -119.5t-55.5 -92.5t-91.5 -60t-126.5 -21t-126.5 21t-91.5 60t-56 92.5t-19 119.5v420h101v-420q0 -48 12 -84t36 -60t60 -36t84 -12t84 12t60 36t36 60t12 84v420zM385 829q13 0 19.5 8t8.5 35h57v-10q0 -49 -18.5 -74.5t-56.5 -25.5
q-19 0 -35 5t-34 15q-15 8 -27 14t-24 6t-18.5 -12.5t-8.5 -34.5h-58v9q0 48 20 77.5t56 29.5q19 0 34.5 -6.5t32.5 -15.5q14 -8 27 -14t25 -6z" />
    <glyph glyph-name="utilde" unicode="&#x169;" 
d="M531 0h-101v61q-13 -18 -31.5 -32t-39.5 -23.5t-43.5 -13.5t-44.5 -4q-48 0 -89 16.5t-71 45t-47.5 67.5t-17.5 85v304h101v-277q0 -40 11.5 -68.5t30 -46.5t43 -26.5t51.5 -8.5q35 0 62.5 13t46.5 36t28.5 54t9.5 66v258h101v-506zM350 710q12 0 19 8t9 35h57v-6
q0 -52 -18.5 -78.5t-56.5 -26.5q-19 0 -35 5.5t-34 14.5l-28 14t-23 6q-13 0 -19.5 -12t-8.5 -35h-57v10q0 48 19.5 77t56.5 29q19 0 34.5 -6t32.5 -16q14 -7 26.5 -13t25.5 -6z" />
    <glyph glyph-name="Umacron" unicode="&#x16a;" horiz-adv-x="659" 
d="M522 701h100v-420q0 -66 -18.5 -119.5t-55.5 -92.5t-91.5 -60t-126.5 -21t-126.5 21t-91.5 60t-56 92.5t-19 119.5v420h101v-420q0 -48 12 -84t36 -60t60 -36t84 -12t84 12t60 36t36 60t12 84v420zM236 828h188v-68h-188v68z" />
    <glyph glyph-name="umacron" unicode="&#x16b;" 
d="M531 0h-101v61q-13 -18 -31.5 -32t-39.5 -23.5t-43.5 -13.5t-44.5 -4q-48 0 -89 16.5t-71 45t-47.5 67.5t-17.5 85v304h101v-277q0 -40 11.5 -68.5t30 -46.5t43 -26.5t51.5 -8.5q35 0 62.5 13t46.5 36t28.5 54t9.5 66v258h101v-506zM201 697h188v-69h-188v69z" />
    <glyph glyph-name="Ubreve" unicode="&#x16c;" horiz-adv-x="659" 
d="M522 701h100v-420q0 -66 -18.5 -119.5t-55.5 -92.5t-91.5 -60t-126.5 -21t-126.5 21t-91.5 60t-56 92.5t-19 119.5v420h101v-420q0 -48 12 -84t36 -60t60 -36t84 -12t84 12t60 36t36 60t12 84v420zM446 849q-8 -37 -40.5 -61t-75.5 -24q-42 0 -74.5 24t-41.5 61l62 12
q4 -15 19 -26.5t35 -11.5q21 0 36 11.5t18 26.5z" />
    <glyph glyph-name="ubreve" unicode="&#x16d;" 
d="M531 0h-101v61q-13 -18 -31.5 -32t-39.5 -23.5t-43.5 -13.5t-44.5 -4q-48 0 -89 16.5t-71 45t-47.5 67.5t-17.5 85v304h101v-277q0 -40 11.5 -68.5t30 -46.5t43 -26.5t51.5 -8.5q35 0 62.5 13t46.5 36t28.5 54t9.5 66v258h101v-506zM410 714q-8 -37 -40.5 -61.5
t-75.5 -24.5q-42 0 -74.5 24.5t-41.5 61.5l62 12q4 -16 18.5 -27t35.5 -11t35.5 11t18.5 27z" />
    <glyph glyph-name="Uring" unicode="&#x16e;" horiz-adv-x="659" 
d="M522 701h100v-420q0 -66 -18.5 -119.5t-55.5 -92.5t-91.5 -60t-126.5 -21t-126.5 21t-91.5 60t-56 92.5t-19 119.5v420h101v-420q0 -48 12 -84t36 -60t60 -36t84 -12t84 12t60 36t36 60t12 84v420zM331 749q-50 0 -80.5 27.5t-30.5 66.5q0 42 29.5 70.5t81.5 28.5
t80.5 -28t28.5 -71q0 -40 -30.5 -67t-78.5 -27zM329 899q-23 0 -36 -16.5t-13 -39.5q0 -19 13.5 -35t36.5 -16q22 0 36 15t14 38q0 22 -14 38t-37 16z" />
    <glyph glyph-name="uring" unicode="&#x16f;" 
d="M531 0h-101v61q-13 -18 -31.5 -32t-39.5 -23.5t-43.5 -13.5t-44.5 -4q-48 0 -89 16.5t-71 45t-47.5 67.5t-17.5 85v304h101v-277q0 -40 11.5 -68.5t30 -46.5t43 -26.5t51.5 -8.5q35 0 62.5 13t46.5 36t28.5 54t9.5 66v258h101v-506zM295 624q-51 0 -81 27t-30 67
q0 41 29.5 69.5t81.5 28.5q51 0 80 -28t29 -70q0 -40 -30.5 -67t-78.5 -27zM293 774q-23 0 -36.5 -16.5t-13.5 -39.5q0 -20 14 -36t36 -16q23 0 37 15.5t14 37.5q0 23 -14 39t-37 16z" />
    <glyph glyph-name="Uhungarumlaut" unicode="&#x170;" horiz-adv-x="659" 
d="M522 701h100v-420q0 -66 -18.5 -119.5t-55.5 -92.5t-91.5 -60t-126.5 -21t-126.5 21t-91.5 60t-56 92.5t-19 119.5v420h101v-420q0 -48 12 -84t36 -60t60 -36t84 -12t84 12t60 36t36 60t12 84v420zM353 887l-96 -126h-93l93 126h96zM497 887l-96 -126h-94l94 126h96z" />
    <glyph glyph-name="uhungarumlaut" unicode="&#x171;" 
d="M531 0h-101v61q-13 -18 -31.5 -32t-39.5 -23.5t-43.5 -13.5t-44.5 -4q-48 0 -89 16.5t-71 45t-47.5 67.5t-17.5 85v304h101v-277q0 -40 11.5 -68.5t30 -46.5t43 -26.5t51.5 -8.5q35 0 62.5 13t46.5 36t28.5 54t9.5 66v258h101v-506zM317 757l-97 -127h-93l93 127h97z
M461 757l-97 -127h-93l94 127h96z" />
    <glyph glyph-name="Uogonek" unicode="&#x172;" horiz-adv-x="659" 
d="M522 701h100v-420q0 -66 -18.5 -119.5t-55.5 -92.5t-91.5 -60t-126.5 -21t-126.5 21t-91.5 60t-56 92.5t-19 119.5v420h101v-420q0 -48 12 -84t36 -60t60 -36t84 -12t84 12t60 36t36 60t12 84v420zM439 4q-15 -11 -30.5 -25t-28.5 -29t-21 -29.5t-8 -27.5q0 -15 9 -25.5
t23 -10.5t27 6.5t25 16.5l25 -54q-5 -5 -15 -11.5t-22.5 -11.5t-27.5 -9t-31 -4q-19 0 -35.5 5.5t-29 16t-20.5 25.5t-8 35t9.5 39.5t23.5 36.5t30.5 31t30.5 25h74z" />
    <glyph glyph-name="uogonek" unicode="&#x173;" 
d="M531 0h-101v61q-13 -18 -31.5 -32t-39.5 -23.5t-43.5 -13.5t-44.5 -4q-48 0 -89 16.5t-71 45t-47.5 67.5t-17.5 85v304h101v-277q0 -40 11.5 -68.5t30 -46.5t43 -26.5t51.5 -8.5q35 0 62.5 13t46.5 36t28.5 54t9.5 66v258h101v-506zM508 4q-15 -11 -30.5 -25t-28.5 -29
t-21 -29.5t-8 -27.5q0 -15 9 -25.5t23 -10.5t27 6.5t25 16.5l25 -54q-5 -5 -15 -11.5t-22.5 -11.5t-27.5 -9t-31 -4q-19 0 -35.5 5.5t-29 16t-20.5 25.5t-8 35t9.5 39.5t23.5 36.5t30.5 31t30.5 25h74z" />
    <glyph glyph-name="Wcircumflex" unicode="&#x174;" horiz-adv-x="992" 
d="M872 701h104l-195 -701h-131l-153 526l-153 -526h-131l-195 701h104l156 -563l163 563h112l162 -563zM537 886l113 -126h-87l-67 75h-2l-66 -75h-87l112 126h84z" />
    <glyph glyph-name="wcircumflex" unicode="&#x175;" horiz-adv-x="884" 
d="M766 505h107l-176 -505h-124l-130 359l-130 -359h-126l-175 505h106l133 -381l137 381h109l138 -381zM483 755l114 -126h-88l-67 75h-2l-66 -75h-86l112 126h83z" />
    <glyph glyph-name="Ycircumflex" unicode="&#x176;" horiz-adv-x="635" 
d="M619 701l-250 -395v-306h-100v306l-250 395h127l173 -291l177 291h123zM359 886l113 -126h-87l-67 75h-2l-66 -75h-87l112 126h84z" />
    <glyph glyph-name="ycircumflex" unicode="&#x177;" horiz-adv-x="579" 
d="M458 506h109l-325 -770h-109l111 264h-22l-209 506h108l167 -401zM331 754l114 -126h-88l-67 75h-2l-66 -75h-86l112 126h83z" />
    <glyph glyph-name="Ydieresis" unicode="&#x178;" horiz-adv-x="635" 
d="M619 701l-250 -395v-306h-100v306l-250 395h127l173 -291l177 291h123zM421 878q26 0 42 -17t16 -43q0 -23 -16 -41t-42 -18q-27 0 -43 18t-16 41q0 26 17 43t42 17zM217 878q24 0 40.5 -17t16.5 -43q0 -23 -16 -41t-42 -18t-43 18t-17 41q0 26 17.5 43t43.5 17z" />
    <glyph glyph-name="Zacute" unicode="&#x179;" horiz-adv-x="628" 
d="M597 701v-66l-419 -534h424v-101h-577v66l418 535h-382v100h536zM427 887l-132 -127h-93l93 127h132z" />
    <glyph glyph-name="zacute" unicode="&#x17a;" horiz-adv-x="521" 
d="M486 506v-59l-308 -346h309v-101h-456v59l309 346h-303v101h449zM373 758l-132 -126h-94l94 126h132z" />
    <glyph glyph-name="Zdotaccent" unicode="&#x17b;" horiz-adv-x="628" 
d="M597 701v-66l-419 -534h424v-101h-577v66l418 535h-382v100h536zM314 753q-29 0 -47 19.5t-18 45.5q0 28 18.5 46.5t46.5 18.5t46 -18.5t18 -46.5q0 -26 -17.5 -45.5t-46.5 -19.5z" />
    <glyph glyph-name="zdotaccent" unicode="&#x17c;" horiz-adv-x="521" 
d="M486 506v-59l-308 -346h309v-101h-456v59l309 346h-303v101h449zM260 627q-29 0 -47.5 19.5t-18.5 45.5q0 27 18.5 46t47.5 19q28 0 46 -18.5t18 -46.5q0 -26 -18 -45.5t-46 -19.5z" />
    <glyph glyph-name="Zcaron" unicode="&#x17d;" horiz-adv-x="628" 
d="M597 701v-66l-419 -534h424v-101h-577v66l418 535h-382v100h536zM470 887l-113 -127h-83l-114 127h88l67 -75h2l66 75h87z" />
    <glyph glyph-name="zcaron" unicode="&#x17e;" horiz-adv-x="521" 
d="M486 506v-59l-308 -346h309v-101h-456v59l309 346h-303v101h449zM414 754l-112 -126h-84l-114 126h88l67 -75h2l67 75h86z" />
    <glyph glyph-name="florin" unicode="&#x192;" horiz-adv-x="586" 
d="M584 780v-94h-81q-18 0 -35 -6.5t-31 -18.5t-24 -27.5t-14 -33.5l-21 -103h73v-60h-85l-76 -371q-8 -38 -28.5 -70.5t-50 -57.5t-65 -39t-73.5 -14h-72v94h92q17 0 34 7t31 18.5t24 27.5t14 34l75 371h-73v60h86l21 103q8 37 28.5 69.5t50.5 57.5t65.5 39t72.5 14h62z
" />
    <glyph glyph-name="uni01F4" unicode="&#x1f4;" horiz-adv-x="708" 
d="M676 120q-29 -37 -59 -62.5t-64.5 -40.5t-74.5 -21.5t-89 -6.5q-73 0 -137.5 28.5t-112.5 77.5t-76 115t-28 141t28 140.5t76 115t112.5 77.5t137.5 28q74 0 139 -29t113 -80l-71 -71q-34 38 -80.5 59.5t-100.5 21.5q-53 0 -98.5 -20.5t-80 -56t-54.5 -83.5t-20 -102
q0 -55 20 -102t54.5 -82.5t80 -56t98.5 -20.5q59 0 108 16.5t79 59.5v127h-206v100h306v-273zM467 887l-132 -127h-93l93 127h132z" />
    <glyph glyph-name="uni01F5" unicode="&#x1f5;" horiz-adv-x="633" 
d="M477 506h100v-483q0 -11 -1.5 -36.5t-10 -57.5t-26.5 -66.5t-51.5 -62.5t-84 -46.5t-124.5 -18.5q-60 0 -111.5 14t-94.5 36l36 94q38 -21 81.5 -32.5t88.5 -11.5q46 0 82.5 9t62 30t39.5 57.5t14 93.5v41q-34 -37 -80 -57.5t-99 -20.5q-54 0 -101 21t-82.5 57t-56 84
t-20.5 103t20.5 103.5t56 84.5t82.5 57t101 21q53 0 99 -20.5t80 -57.5v65zM298 88q33 0 61.5 13t50 35.5t34 52.5t12.5 64q0 35 -12.5 65t-34 52.5t-50 35.5t-61.5 13t-62 -13t-51 -35.5t-34.5 -52.5t-12.5 -65q0 -34 12.5 -64t34.5 -52.5t51 -35.5t62 -13zM430 755
l-132 -126h-94l94 126h132z" />
    <glyph glyph-name="AEacute" unicode="&#x1fc;" horiz-adv-x="952" 
d="M876 701v-100h-330l28 -187h292v-100h-277l33 -213h287v-101h-373l-36 234h-251l-116 -234h-112l346 701h509zM298 334h187l-44 286h-2zM590 887l-132 -127h-93l93 127h132z" />
    <glyph glyph-name="aeacute" unicode="&#x1fd;" horiz-adv-x="1017" 
d="M717 519q54 0 101 -21t82.5 -57t56 -84t20.5 -103q0 -7 -0.5 -14t-0.5 -14h-416q5 -30 19 -55t35 -43.5t47.5 -28.5t55.5 -10q64 0 101 24t61 79l92 -41q-35 -81 -96.5 -122t-157.5 -41q-41 0 -77.5 14t-65.5 38v-40h-101v63q-33 -35 -78.5 -55t-97.5 -20
q-53 0 -100.5 21t-82.5 57t-55.5 84.5t-20.5 103.5t20.5 103t55.5 84t82.5 57t100.5 21q52 0 97.5 -20t78.5 -55v63h101v-40q29 25 65.5 38.5t77.5 13.5zM869 298q-7 26 -21.5 48t-34 38t-44.5 25.5t-52 9.5t-52 -9.5t-45 -25.5t-34 -38t-21 -48h304zM297 89q33 0 62 12.5
t50.5 35t34 52.5t12.5 65q0 34 -12.5 64t-34 52.5t-50.5 35.5t-62 13t-62 -13t-50.5 -35.5t-34 -52.5t-12.5 -64q0 -35 12.5 -65t34 -52.5t50.5 -35t62 -12.5zM621 758l-132 -126h-94l94 126h132z" />
    <glyph glyph-name="Oslashacute" unicode="&#x1fe;" horiz-adv-x="779" 
d="M674 720l-58 -93q58 -49 92 -120.5t34 -155.5q0 -75 -28 -141t-76 -115t-112 -78t-138 -29q-42 0 -81.5 10t-74.5 28l-52 -82l-57 36l53 82q-65 49 -103 124.5t-38 164.5q0 75 28 140.5t75.5 115t112 78t137.5 28.5q47 0 90.5 -12t82.5 -34l57 89zM135 351
q0 -62 25.5 -115t69.5 -89l277 435q-27 15 -56.5 22.5t-62.5 7.5q-52 0 -98 -20.5t-80.5 -56t-54.5 -83t-20 -101.5zM388 89q53 0 99 20.5t80.5 56t54.5 83.5t20 102q0 57 -22 106t-60 84l-273 -429q23 -12 48.5 -17.5t52.5 -5.5zM503 887l-132 -127h-93l93 127h132z" />
    <glyph glyph-name="oslashacute" unicode="&#x1ff;" horiz-adv-x="596" 
d="M507 520l-41 -64q42 -37 66.5 -89.5t24.5 -113.5q0 -55 -20 -103t-55.5 -84t-82.5 -57t-101 -21q-31 0 -59 7t-53 20l-40 -64l-57 36l41 65q-42 37 -66.5 89t-24.5 112q0 55 20 103.5t55.5 84.5t82.5 57t101 21q31 0 59 -7t53 -19l40 63zM139 253q0 -33 12.5 -63
t33.5 -52l171 269q-13 6 -27.5 9t-30.5 3q-33 0 -62 -13t-50.5 -35.5t-34 -52.5t-12.5 -65zM298 89q33 0 62 12.5t50.5 35t34 52.5t12.5 64t-12.5 63.5t-33.5 52.5l-171 -269q14 -5 28 -8t30 -3zM411 758l-132 -126h-94l94 126h132z" />
    <glyph glyph-name="uni0218" unicode="&#x218;" horiz-adv-x="546" 
d="M298 399q42 -13 81 -30t69 -42t47 -59t17 -82v-5q-1 -47 -21 -83t-53 -60.5t-75.5 -37t-88.5 -12.5q-47 0 -105 12t-133 42l38 93q60 -24 110 -35t91 -11q24 0 48.5 4.5t44 16.5t31.5 30t12 44v4q0 26 -13.5 45t-35 32t-46.5 22t-47 16q-41 13 -79 29.5t-68 41
t-47.5 59.5t-17.5 84q0 48 20 84.5t53 61t76.5 36.5t88.5 12t101.5 -11t127.5 -40l-37 -93q-55 22 -103.5 33.5t-89.5 11.5q-24 0 -48 -5t-44 -17t-32.5 -29.5t-12.5 -44.5q0 -28 13.5 -47.5t35 -32.5t46.5 -21.5t46 -15.5zM336 -149q-2 -18 -10 -40t-19 -44t-22.5 -41
t-18.5 -31l-55 -6q9 27 24 59.5t23 67.5q-15 6 -23 15.5t-10 24.5v7q0 20 15 34.5t42 14.5q18 0 29 -6t16.5 -15t7 -18t1.5 -15v-7z" />
    <glyph glyph-name="uni0219" unicode="&#x219;" horiz-adv-x="420" 
d="M381 165q2 -13 2 -26q0 -27 -12 -58t-43 -56q-17 -13 -47 -25t-75 -12q-34 0 -76 8.5t-95 31.5l38 93q41 -17 73 -24.5t45 -8t15 -0.5q21 0 36 4.5t24 11.5q11 9 13.5 18.5t2.5 16.5q0 5 -1 11q-2 17 -23 29.5t-62 25.5q-20 6 -44.5 15.5t-47.5 24.5t-40.5 38.5
t-22.5 56.5q-2 14 -2 27q0 27 12 57.5t43 55.5q14 12 37.5 23t47 13.5t37.5 2.5q26 0 65.5 -6t102.5 -31l-37 -94q-73 30 -97.5 30.5t-25.5 0.5q-46 0 -67 -17q-11 -8 -15 -17.5t-4 -19.5q0 -4 1 -9q3 -17 24 -29.5t63 -25.5q19 -6 44 -15.5t47.5 -25t40 -38.5t23.5 -57z
M273 -149q-2 -18 -10 -40t-19 -44t-22.5 -41t-18.5 -31l-55 -6q9 27 24 59.5t23 67.5q-15 6 -23 15.5t-10 24.5v7q0 20 15 34.5t42 14.5q18 0 29 -6t16.5 -15t7 -18t1.5 -15v-7z" />
    <glyph glyph-name="uni021A" unicode="&#x21a;" horiz-adv-x="647" 
d="M33 701h583v-100h-242v-601h-100v601h-241v100zM386 -149q-2 -18 -10 -40t-19 -44t-22.5 -41t-18.5 -31l-55 -6q9 27 24 59.5t23 67.5q-15 6 -23 15.5t-10 24.5v7q0 20 15 34.5t42 14.5q18 0 29 -6t16.5 -15t7 -18t1.5 -15v-7z" />
    <glyph glyph-name="uni021B" unicode="&#x21b;" horiz-adv-x="337" 
d="M188 164q0 -24 6 -38t16.5 -20t26.5 -7t35 -1h35v-98h-51q-38 0 -68.5 6t-53 20.5t-35 39.5t-12.5 61v288h-63v101h63v120l101 28v-148h82v-101h-82v-251zM232 -149q-2 -18 -10 -40t-19 -44t-22.5 -41t-18.5 -31l-55 -6q9 27 24 59.5t23 67.5q-15 6 -23 15.5t-10 24.5v7
q0 20 15 34.5t42 14.5q18 0 29 -6t16.5 -15t7 -18t1.5 -15v-7z" />
    <glyph glyph-name="uni0237" unicode="&#x237;" horiz-adv-x="250" 
d="M99 506h100v-575q0 -40 -15 -75.5t-41.5 -62t-62 -42t-76.5 -15.5h-55v101h55q20 0 37.5 7t30 20t20 30t7.5 37v575z" />
    <glyph glyph-name="uni02BC" unicode="&#x2bc;" horiz-adv-x="194" 
d="M151 884q0 -18 -8.5 -40t-19.5 -44t-23 -41l-18 -32l-55 -4q9 26 24 58.5t23 67.5q-14 5 -23 14.5t-10 25.5v8q0 19 14.5 33.5t42.5 14.5q18 0 28.5 -6t16.5 -15t7 -17.5t1 -14.5v-8z" />
    <glyph glyph-name="circumflex" unicode="&#x2c6;" horiz-adv-x="340" 
d="M211 886l114 -126h-88l-67 75h-2l-66 -75h-86l112 126h83z" />
    <glyph glyph-name="caron" unicode="&#x2c7;" horiz-adv-x="352" 
d="M331 887l-112 -126h-84l-114 126h88l67 -75h2l67 75h86z" />
    <glyph glyph-name="uni02C9" unicode="&#x2c9;" horiz-adv-x="238" 
d="M24 828h188v-68h-188v68z" />
    <glyph glyph-name="breve" unicode="&#x2d8;" horiz-adv-x="265" 
d="M249 845q-8 -37 -40.5 -61.5t-75.5 -24.5q-42 0 -74.5 24.5t-41.5 61.5l62 12q4 -16 18.5 -27t35.5 -11t35.5 11t18.5 27z" />
    <glyph glyph-name="dotaccent" unicode="&#x2d9;" horiz-adv-x="197" 
d="M101 743q-29 0 -47.5 19.5t-18.5 45.5q0 27 18.5 46t47.5 19q28 0 46 -18.5t18 -46.5q0 -26 -18 -45.5t-46 -19.5z" />
    <glyph glyph-name="ring" unicode="&#x2da;" horiz-adv-x="264" 
d="M134 750q-51 0 -81 27t-30 67q0 41 29.5 69.5t81.5 28.5q51 0 80 -28t29 -70q0 -40 -30.5 -67t-78.5 -27zM132 900q-23 0 -36.5 -16.5t-13.5 -39.5q0 -20 14 -36t36 -16q23 0 37 15.5t14 37.5q0 23 -14 39t-37 16z" />
    <glyph glyph-name="ogonek" unicode="&#x2db;" horiz-adv-x="238" 
d="M201 4q-15 -11 -30.5 -25t-28.5 -29t-21 -29.5t-8 -27.5q0 -15 9 -25.5t23 -10.5t27 6.5t25 16.5l25 -54q-5 -5 -15 -11.5t-22.5 -11.5t-27.5 -9t-31 -4q-19 0 -35.5 5.5t-29 16t-20.5 25.5t-8 35t9.5 39.5t23.5 36.5t30.5 31t30.5 25h74z" />
    <glyph glyph-name="tilde" unicode="&#x2dc;" horiz-adv-x="338" 
d="M224 739q12 0 19 8t9 35h57v-6q0 -52 -18.5 -78.5t-56.5 -26.5q-19 0 -35 5.5t-34 14.5l-28 14t-23 6q-13 0 -19.5 -12t-8.5 -35h-57v10q0 48 19.5 77t56.5 29q19 0 34.5 -6t32.5 -16q14 -7 26.5 -13t25.5 -6z" />
    <glyph glyph-name="hungarumlaut" unicode="&#x2dd;" horiz-adv-x="369" 
d="M208 887l-97 -127h-93l93 127h97zM352 887l-97 -127h-93l94 127h96z" />
    <glyph glyph-name="gravecomb" unicode="&#x300;" horiz-adv-x="263" 
d="M150 757l94 -125h-93l-131 125h130z" />
    <glyph glyph-name="acutecomb" unicode="&#x301;" horiz-adv-x="259" 
d="M243 758l-132 -126h-94l94 126h132z" />
    <glyph glyph-name="uni0302" unicode="&#x302;" horiz-adv-x="340" 
d="M211 758l114 -126h-88l-67 75h-2l-66 -75h-86l112 126h83z" />
    <glyph glyph-name="tildecomb" unicode="&#x303;" horiz-adv-x="338" 
d="M224 710q12 0 19 8t9 35h57v-6q0 -52 -18.5 -78.5t-56.5 -26.5q-19 0 -35 5.5t-34 14.5l-28 14t-23 6q-13 0 -19.5 -12t-8.5 -35h-57v10q0 48 19.5 77t56.5 29q19 0 34.5 -6t32.5 -16q14 -7 26.5 -13t25.5 -6z" />
    <glyph glyph-name="uni0304" unicode="&#x304;" horiz-adv-x="342" 
d="M79 725h188v-69h-188v69z" />
    <glyph glyph-name="uni0306" unicode="&#x306;" horiz-adv-x="265" 
d="M249 718q-8 -37 -40.5 -61.5t-75.5 -24.5q-42 0 -74.5 24.5t-41.5 61.5l62 12q4 -16 18.5 -27t35.5 -11t35.5 11t18.5 27z" />
    <glyph glyph-name="uni0307" unicode="&#x307;" horiz-adv-x="197" 
d="M101 627q-29 0 -47.5 19.5t-18.5 45.5q0 27 18.5 46t47.5 19q28 0 46 -18.5t18 -46.5q0 -26 -18 -45.5t-46 -19.5z" />
    <glyph glyph-name="uni0308" unicode="&#x308;" horiz-adv-x="386" 
d="M295 751q26 0 42.5 -17t16.5 -43q0 -23 -16.5 -41t-42.5 -18t-42.5 18t-16.5 41q0 26 17 43t42 17zM91 751q25 0 41 -17t16 -43q0 -23 -16 -41t-41 -18q-26 0 -43 18t-17 41q0 26 17 43t43 17z" />
    <glyph glyph-name="uni030A" unicode="&#x30a;" horiz-adv-x="264" 
d="M134 626q-51 0 -81 27t-30 67q0 41 29.5 69.5t81.5 28.5q51 0 80 -28t29 -70q0 -40 -30.5 -67t-78.5 -27zM132 776q-23 0 -36.5 -16.5t-13.5 -39.5q0 -20 14 -36t36 -16q23 0 37 15.5t14 37.5q0 23 -14 39t-37 16z" />
    <glyph glyph-name="uni030B" unicode="&#x30b;" horiz-adv-x="369" 
d="M208 758l-97 -127h-93l93 127h97zM352 758l-97 -127h-93l94 127h96z" />
    <glyph glyph-name="uni030C" unicode="&#x30c;" horiz-adv-x="352" 
d="M331 758l-112 -126h-84l-114 126h88l67 -75h2l67 75h86z" />
    <glyph glyph-name="uni0326" unicode="&#x326;" horiz-adv-x="238" 
d="M191 -149q-2 -18 -10 -40t-19 -44t-22.5 -41t-18.5 -31l-55 -6q9 27 24 59.5t23 67.5q-15 6 -23 15.5t-10 24.5v7q0 20 15 34.5t42 14.5q18 0 29 -6t16.5 -15t7 -18t1.5 -15v-7z" />
    <glyph glyph-name="uni0327" unicode="&#x327;" horiz-adv-x="257" 
d="M152 -38q30 -6 51.5 -26t21.5 -53q0 -24 -9.5 -40.5t-25.5 -27t-36.5 -15t-40.5 -4.5q-22 0 -43 4.5t-36 13.5l16 51q11 -5 26.5 -9t31.5 -4q19 0 31 7t12 22q0 19 -21 28.5t-62 13.5l48 91h66z" />
    <glyph glyph-name="uni0328" unicode="&#x328;" horiz-adv-x="238" 
d="M201 4q-15 -11 -30.5 -25t-28.5 -29t-21 -29.5t-8 -27.5q0 -15 9 -25.5t23 -10.5t27 6.5t25 16.5l25 -54q-5 -5 -15 -11.5t-22.5 -11.5t-27.5 -9t-31 -4q-19 0 -35.5 5.5t-29 16t-20.5 25.5t-8 35t9.5 39.5t23.5 36.5t30.5 31t30.5 25h74z" />
    <glyph glyph-name="uni03BC" unicode="&#x3bc;" horiz-adv-x="583" 
d="M436 506h100v-506h-101v61q-13 -18 -32 -32t-39.5 -23.5t-43 -13.5t-44.5 -4q-36 0 -68 10.5t-57 28.5v-293h-100v772h100v-268q0 -37 12.5 -65t32.5 -47t45.5 -28.5t51.5 -9.5q31 0 57 12t45 33t29.5 50.5t10.5 64.5z" />
    <glyph glyph-name="Wgrave" unicode="&#x1e80;" horiz-adv-x="992" 
d="M872 701h104l-195 -701h-131l-153 526l-153 -526h-131l-195 701h104l156 -563l163 563h112l162 -563zM516 887l94 -125h-93l-132 125h131z" />
    <glyph glyph-name="wgrave" unicode="&#x1e81;" horiz-adv-x="884" 
d="M766 505h107l-176 -505h-124l-130 359l-130 -359h-126l-175 505h106l133 -381l137 381h109l138 -381zM462 755l94 -125h-93l-131 125h130z" />
    <glyph glyph-name="Wacute" unicode="&#x1e82;" horiz-adv-x="992" 
d="M872 701h104l-195 -701h-131l-153 526l-153 -526h-131l-195 701h104l156 -563l163 563h112l162 -563zM610 887l-132 -127h-93l93 127h132z" />
    <glyph glyph-name="wacute" unicode="&#x1e83;" horiz-adv-x="884" 
d="M766 505h107l-176 -505h-124l-130 359l-130 -359h-126l-175 505h106l133 -381l137 381h109l138 -381zM555 758l-132 -126h-94l94 126h132z" />
    <glyph glyph-name="Wdieresis" unicode="&#x1e84;" horiz-adv-x="992" 
d="M872 701h104l-195 -701h-131l-153 526l-153 -526h-131l-195 701h104l156 -563l163 563h112l162 -563zM600 878q26 0 42 -17t16 -43q0 -23 -16 -41t-42 -18q-27 0 -43 18t-16 41q0 26 17 43t42 17zM396 878q24 0 40.5 -17t16.5 -43q0 -23 -16 -41t-42 -18t-43 18t-17 41
q0 26 17.5 43t43.5 17z" />
    <glyph glyph-name="wdieresis" unicode="&#x1e85;" horiz-adv-x="884" 
d="M766 505h107l-176 -505h-124l-130 359l-130 -359h-126l-175 505h106l133 -381l137 381h109l138 -381zM545 746q26 0 42.5 -17t16.5 -43q0 -23 -16.5 -41t-42.5 -18t-42.5 18t-16.5 41q0 26 17 43t42 17zM341 746q25 0 41 -17t16 -43q0 -23 -16 -41t-41 -18q-26 0 -43 18
t-17 41q0 26 17 43t43 17z" />
    <glyph glyph-name="Ygrave" unicode="&#x1ef2;" horiz-adv-x="635" 
d="M619 701l-250 -395v-306h-100v306l-250 395h127l173 -291l177 291h123zM337 887l94 -125h-93l-132 125h131z" />
    <glyph glyph-name="ygrave" unicode="&#x1ef3;" horiz-adv-x="579" 
d="M458 506h109l-325 -770h-109l111 264h-22l-209 506h108l167 -401zM309 757l94 -125h-93l-131 125h130z" />
    <glyph glyph-name="endash" unicode="&#x2013;" horiz-adv-x="300" 
d="M24 390h249v-79h-249v79z" />
    <glyph glyph-name="emdash" unicode="&#x2014;" horiz-adv-x="977" 
d="M0 387h977v-73h-977v73z" />
    <glyph glyph-name="quoteleft" unicode="&#x2018;" horiz-adv-x="214" 
d="M203 743q-9 -26 -18.5 -58t-18 -66t-16 -68.5t-11.5 -64.5l-114 -9q10 34 23 71t27 71.5t28.5 65t27.5 51.5z" />
    <glyph glyph-name="quoteright" unicode="&#x2019;" horiz-adv-x="213" 
d="M13 433q9 26 18.5 58t18.5 66t16 68t11 64l114 10q-10 -34 -23 -71t-27 -72t-28.5 -65t-27.5 -51z" />
    <glyph glyph-name="quotesinglbase" unicode="&#x201a;" horiz-adv-x="212" 
d="M17 -151q9 25 18.5 57t18 66.5t16 69t11.5 64.5l114 10q-10 -35 -23 -72t-27 -72t-28.5 -65t-27.5 -51z" />
    <glyph glyph-name="quotedblleft" unicode="&#x201c;" horiz-adv-x="394" 
d="M196 477q10 34 23 71t27 71.5t28.5 65t26.5 51.5l73 7q-10 -26 -19.5 -58t-18 -66t-15.5 -68t-11 -64zM21 477q10 34 23.5 71t27.5 71.5t28.5 65t26.5 51.5l73 7q-10 -26 -19.5 -58t-18 -66t-15.5 -68t-12 -64z" />
    <glyph glyph-name="quotedblright" unicode="&#x201d;" horiz-adv-x="394" 
d="M374 701q-10 -34 -23.5 -71.5t-27.5 -72t-28.5 -64.5t-27.5 -52l-72 -6q10 26 19 58t18 66t16 68t11 64zM199 701q-10 -34 -23 -71.5t-27 -72t-28.5 -64.5t-27.5 -52l-72 -6q9 26 18.5 58t18 66t15.5 68t12 64z" />
    <glyph glyph-name="quotedblbase" unicode="&#x201e;" horiz-adv-x="388" 
d="M370 111q-10 -34 -23 -71.5t-27.5 -72t-29 -64.5t-26.5 -52l-73 -6q10 26 19 57.5t18 66t16 68.5t12 64zM195 111q-10 -34 -23 -71.5t-27 -72t-28.5 -64.5t-27.5 -52l-72 -6q9 26 18.5 57.5t18.5 66t16 68.5t12 64z" />
    <glyph glyph-name="dagger" unicode="&#x2020;" horiz-adv-x="400" 
d="M237 701v-202h141v-74h-141v-521h-74v521h-141v74h141v202h74z" />
    <glyph glyph-name="daggerdbl" unicode="&#x2021;" horiz-adv-x="400" 
d="M236 701v-202h142v-74h-142v-245h142v-73h-142v-203h-73v203h-141v73h141v245h-141v74h141v202h73z" />
    <glyph glyph-name="bullet" unicode="&#x2022;" horiz-adv-x="353" 
d="M298 350q0 -25 -9.5 -47t-25.5 -38t-38.5 -26t-47.5 -10q-24 0 -46 9.5t-38.5 26t-26 38t-9.5 47.5v4q0 22 9.5 43t25.5 37.5t38.5 26t46.5 9.5q25 0 47.5 -9.5t38.5 -26t25.5 -38.5t9.5 -46z" />
    <glyph glyph-name="ellipsis" unicode="&#x2026;" horiz-adv-x="845" 
d="M20 68q0 33 21 54t53 21q34 0 54 -21t21 -54q0 -32 -20.5 -54t-54.5 -22q-33 0 -53.5 22t-20.5 54zM350 68q0 33 20.5 54t53.5 21t53.5 -21t20.5 -54q0 -32 -20.5 -54t-53.5 -22t-53.5 21.5t-20.5 51.5v3zM679 68q0 33 21 54t54 21t53 -21t21 -54q0 -32 -20.5 -54
t-53.5 -22q-34 0 -54.5 22t-20.5 54z" />
    <glyph glyph-name="perthousand" unicode="&#x2030;" horiz-adv-x="1261" 
d="M278 0h-82l404 701h81zM197 701q77 0 126 -54.5t49 -153.5t-49 -153.5t-126 -54.5q-78 0 -126 54.5t-48 153.5t48 153.5t126 54.5zM282 493q0 14 -2.5 35.5t-11.5 41.5t-25.5 34.5t-45.5 14.5q-28 0 -45 -14.5t-25.5 -34.5t-11.5 -41.5t-3 -35.5t3 -35.5t11.5 -41.5
t25.5 -34t45 -14q29 0 45.5 14t25.5 34t11.5 41.5t2.5 35.5zM681 421q77 0 125.5 -54t48.5 -153q0 -100 -48.5 -154.5t-125.5 -54.5q-78 0 -126.5 54.5t-48.5 153.5q0 100 48.5 154t126.5 54zM1060 421q77 0 125.5 -54t48.5 -154q0 -99 -48.5 -153.5t-125.5 -54.5
q-78 0 -126.5 54.5t-48.5 153.5q0 100 48.5 154t126.5 54zM766 213q0 14 -2.5 35.5t-11.5 41.5t-25.5 34t-45.5 14t-46 -14t-25.5 -34t-11 -41.5t-2.5 -35.5t2.5 -35.5t11 -41.5t25.5 -34t46 -14t45.5 14t25.5 34t11.5 41.5t2.5 35.5zM1144 213q0 14 -2.5 35.5t-11 41.5
t-25.5 34t-45 14q-29 0 -46 -14t-25.5 -34t-11 -41.5t-2.5 -35.5t2.5 -35.5t11 -41.5t25.5 -34t46 -14q28 0 45 14t25.5 34t11 41.5t2.5 35.5z" />
    <glyph glyph-name="guilsinglleft" unicode="&#x2039;" horiz-adv-x="283" 
d="M249 539l-144 -196l144 -196h-86l-142 196l141 196h87z" />
    <glyph glyph-name="guilsinglright" unicode="&#x203a;" horiz-adv-x="283" 
d="M118 539l143 -196l-143 -196h-85l144 196l-145 196h86z" />
    <glyph glyph-name="fraction" unicode="&#x2044;" horiz-adv-x="496" 
d="M482 701l-403 -701h-66l404 701h65z" />
    <glyph glyph-name="uni2070" unicode="&#x2070;" horiz-adv-x="379" 
d="M190 757q36 0 65.5 -14.5t51 -41.5t33 -65.5t11.5 -86.5t-11.5 -86.5t-33 -65.5t-51 -41.5t-65.5 -14.5t-65.5 14.5t-51 41.5t-33 65.5t-11.5 86.5t11.5 86.5t33 65.5t51 41.5t65.5 14.5zM291 549q0 21 -4 47t-15.5 48.5t-31 37.5t-50.5 15q-30 0 -50 -15t-31 -37.5
t-16 -48.5t-5 -47q0 -22 5 -47.5t16 -48t31 -37.5t50 -15q31 0 50.5 15t31 37.5t15.5 48t4 47.5z" />
    <glyph glyph-name="uni2074" unicode="&#x2074;" horiz-adv-x="379" 
d="M290 749v-239h61v-61h-61v-101h-60v101h-206v44l187 256h79zM93 510h137v186z" />
    <glyph glyph-name="uni2075" unicode="&#x2075;" horiz-adv-x="326" 
d="M125 689l-12 -85q7 1 14.5 1.5t14.5 0.5q37 0 67 -8.5t51.5 -25t32 -40.5t10.5 -53v-5q-1 -28 -13.5 -52t-34 -42t-50.5 -28.5t-63 -10.5q-31 0 -62 6.5t-56 20.5l26 55q11 -7 35 -15t57 -8q19 0 36.5 5t31 14.5t22 23t11.5 31.5q1 5 1 10q0 8 -2.5 19t-13.5 22.5
t-31.5 18.5t-54.5 7q-16 0 -32.5 -1.5t-30 -3.5t-23 -4t-11.5 -3q1 12 3 25t3.5 28t4 32t5.5 37t5.5 41.5t6.5 46.5h206v-60h-154z" />
    <glyph glyph-name="uni2076" unicode="&#x2076;" horiz-adv-x="361" 
d="M200 617q28 0 52.5 -9.5t42.5 -26.5t28.5 -41.5t10.5 -55.5q0 -28 -11 -53.5t-30.5 -45.5t-46.5 -32t-61 -12q-37 0 -66.5 12.5t-49.5 35.5t-31.5 55t-11.5 72q0 58 20.5 104t52.5 75q29 26 65.5 40.5t82.5 18.5q13 2 23 2h18l1 -53q-7 1 -14 1q-3 0 -10 -0.5t-20 -2.5
q-34 -4 -60.5 -16t-45 -29t-29.5 -39t-14 -45h1q16 19 42 32t61 13zM184 401q19 0 35 5t27.5 16t18 25.5t6.5 32.5q0 47 -26 67.5t-66 20.5q-26 0 -48 -14t-32 -35q-3 -4 -4.5 -10t-1.5 -12q0 -19 5 -36.5t16.5 -31t28.5 -21t41 -7.5z" />
    <glyph glyph-name="uni2077" unicode="&#x2077;" horiz-adv-x="333" 
d="M316 705l-186 -357h-67l178 341h-206v60h281v-44z" />
    <glyph glyph-name="uni2078" unicode="&#x2078;" horiz-adv-x="358" 
d="M30 452q0 37 20.5 62.5t60.5 40.5v3q-35 15 -50.5 38t-15.5 50q0 25 10.5 45t29 34.5t44 22.5t55.5 8q33 0 58 -8.5t41 -22.5t24 -32.5t8 -37.5q0 -26 -15.5 -51t-52.5 -40v-2q38 -13 61 -38t23 -63q0 -27 -11.5 -49.5t-32 -37.5t-48.5 -24t-60 -9q-36 0 -64 9t-47 24
t-28.5 35.5t-9.5 42.5zM107 650v-2q0 -27 21.5 -42.5t59.5 -23.5q26 6 45 23t19 44q0 10 -4 21t-12.5 20t-22.5 14.5t-34 5.5q-36 0 -54 -18t-18 -42zM172 534q-37 -8 -57 -27.5t-20 -46.5v-4q0 -26 23 -46.5t63 -20.5q38 0 60.5 19.5t22.5 45.5q0 35 -24.5 52.5t-67.5 27.5
z" />
    <glyph glyph-name="uni2079" unicode="&#x2079;" horiz-adv-x="362" 
d="M178 756q36 0 65 -12.5t49 -35.5t30.5 -55.5t10.5 -70.5q0 -51 -15 -93t-43 -73t-68 -49.5t-89 -23.5q-15 -1 -26 -1.5t-20 -0.5v54q6 -1 13 -1q3 0 10.5 0.5t20.5 1.5q35 4 61 15.5t44 29t28.5 39.5t15.5 46h-2q-17 -20 -43 -32t-60 -12q-29 0 -53 9.5t-41.5 26.5
t-27.5 41t-10 53t11 55t30.5 46t47 31.5t61.5 11.5zM262 578q2 4 3.5 9t1.5 12q0 19 -5 37t-16 31.5t-28 21.5t-41 8q-18 0 -34 -6t-27.5 -16.5t-18.5 -25.5t-7 -33q0 -44 25.5 -64.5t64.5 -20.5q28 0 50 13.5t32 33.5z" />
    <glyph glyph-name="uni2080" unicode="&#x2080;" horiz-adv-x="407" 
d="M205 344q36 0 65.5 -14.5t50.5 -41.5t33 -65t12 -87q0 -48 -12 -86.5t-33 -65.5t-50.5 -41.5t-65.5 -14.5t-65.5 14.5t-51 41.5t-33 65.5t-11.5 86.5q0 49 11.5 87t33 65t51 41.5t65.5 14.5zM306 136q0 22 -4 47.5t-15.5 48t-31 37.5t-50.5 15q-30 0 -50 -15t-31 -37.5
t-16 -48t-5 -47.5q0 -21 5 -47t16 -48.5t31 -37.5t50 -15q31 0 50.5 15t31 37.5t15.5 48.5t4 47z" />
    <glyph glyph-name="uni2081" unicode="&#x2081;" horiz-adv-x="275" 
d="M188 339v-404h-66v345l-75 -39l-13 51l96 47h58z" />
    <glyph glyph-name="uni2082" unicode="&#x2082;" horiz-adv-x="379" 
d="M48 -5q31 22 66.5 50t67 58t55 59.5t29.5 52.5q1 6 1 12t-1.5 14.5t-9.5 17.5q-10 13 -26 20t-36 7q-26 0 -47 -8t-36.5 -17t-24 -17t-8.5 -9l-45 40q1 2 13 12.5t33 23.5t50 23.5t65 10.5q34 0 62.5 -13t46.5 -37q16 -20 19.5 -38t3.5 -30q0 -14 -3 -28q-6 -25 -24 -52
t-43 -53.5t-55 -52t-61 -46.5h198v-60h-290v60z" />
    <glyph glyph-name="uni2083" unicode="&#x2083;" horiz-adv-x="340" 
d="M216 150q40 -6 67.5 -33t27.5 -68q0 -24 -10.5 -46.5t-31 -39t-50.5 -26t-69 -9.5q-41 0 -74 9.5t-50 20.5l25 54q6 -4 16.5 -8.5t23 -7.5t28 -6t31.5 -3q28 0 47 6t30.5 16t16.5 22.5t5 25.5q0 20 -11 33t-28 21t-37 11t-39 3h-39v50h39q16 0 34 3.5t33 10.5t25.5 19
t10.5 27q0 21 -20 36t-60 15q-27 0 -51.5 -8.5t-39.5 -18.5l-25 51q20 13 53.5 23.5t72.5 10.5q32 0 56.5 -8t41 -22t24.5 -32t8 -36q0 -32 -20 -57t-61 -38v-1z" />
    <glyph glyph-name="uni2084" unicode="&#x2084;" horiz-adv-x="382" 
d="M293 343v-239h61v-60h-61v-102h-61v102h-205v43l187 256h79zM96 104h136v186z" />
    <glyph glyph-name="uni2085" unicode="&#x2085;" horiz-adv-x="332" 
d="M127 283l-12 -85q8 1 14.5 1.5t14.5 0.5q36 0 66.5 -8.5t52 -25t32 -40.5t10.5 -53v-5q-2 -28 -14.5 -52t-33.5 -42t-50 -28.5t-63 -10.5q-31 0 -62.5 6t-55.5 20l26 56q11 -7 35 -15t57 -8q20 0 36.5 5t30 14.5t22.5 23t12 31.5q1 5 1 10q0 8 -2.5 19t-13.5 22.5
t-31.5 18.5t-54.5 7q-16 0 -32.5 -1.5t-30.5 -3.5t-23 -4t-11 -3q1 12 3 25t4 28t4 32t5 37t5.5 41.5t6.5 46.5h207v-60h-155z" />
    <glyph glyph-name="uni2086" unicode="&#x2086;" horiz-adv-x="375" 
d="M207 212q29 0 53.5 -9.5t42.5 -26.5t28 -41.5t10 -55.5q0 -28 -10.5 -54t-30 -46t-47 -31.5t-61.5 -11.5q-37 0 -66 12.5t-49.5 35.5t-31.5 55t-11 71q0 59 20 104.5t53 75.5q29 25 65.5 40t82.5 19q13 2 23 2t17 -1l1 -52q-9 0 -20 -0.5t-24 -1.5q-34 -4 -60 -16
t-44.5 -29.5t-29.5 -39t-15 -44.5h1q17 19 42.5 32t60.5 13zM192 -5q19 0 34.5 5.5t27 16t18.5 25.5t7 33q0 47 -26 67t-66 20q-26 0 -48 -13.5t-33 -34.5q-3 -5 -4 -10.5t-1 -11.5q0 -19 5 -36.5t16 -31t28.5 -21.5t41.5 -8z" />
    <glyph glyph-name="uni2087" unicode="&#x2087;" horiz-adv-x="327" 
d="M307 299l-186 -357h-67l178 341h-206v60h281v-44z" />
    <glyph glyph-name="uni2088" unicode="&#x2088;" horiz-adv-x="354" 
d="M26 46q0 37 21 63t61 40v3q-35 15 -50.5 38.5t-15.5 50.5q0 24 10.5 44.5t29 35t43.5 22.5t55 8q34 0 58.5 -9t40.5 -23t24 -32t8 -37q0 -26 -15 -51t-52 -41v-2q38 -12 61 -37.5t23 -62.5q0 -27 -12 -49.5t-32 -38.5t-48 -24t-61 -8q-35 0 -63 9t-47 24t-29 35t-10 42z
M103 244v-2q0 -26 22 -42t59 -23q27 6 45.5 22.5t18.5 43.5q0 10 -3.5 21t-12.5 20t-23 14.5t-33 5.5q-37 0 -55 -18t-18 -42zM168 128q-36 -7 -56.5 -27t-20.5 -47v-2q0 -26 23.5 -47.5t62.5 -21.5t61.5 19.5t22.5 45.5q0 35 -24.5 53t-68.5 27z" />
    <glyph glyph-name="uni2089" unicode="&#x2089;" horiz-adv-x="358" 
d="M177 351q37 0 65.5 -12.5t48.5 -35.5t31 -55t11 -72q0 -50 -15 -91.5t-43.5 -73t-68.5 -50.5t-90 -23q-13 -2 -20.5 -2.5t-11.5 -0.5q-7 0 -12 1v53q6 -1 13 -1q3 0 10 0.5t20 2.5q35 3 61 15t44.5 29.5t29 39.5t14.5 46h-2q-17 -21 -43 -32.5t-60 -11.5q-28 0 -52.5 9.5
t-42 26.5t-27 41t-9.5 53t10.5 55t30.5 46t47.5 31.5t60.5 11.5zM261 173q2 4 4 9.5t2 11.5q0 19 -5.5 36.5t-16 31.5t-28 21.5t-41.5 7.5q-18 0 -34 -5t-27.5 -16t-18.5 -25.5t-7 -33.5q0 -44 25.5 -64.5t64.5 -20.5q28 0 49.5 13.5t32.5 33.5z" />
    <glyph glyph-name="Euro" unicode="&#x20ac;" horiz-adv-x="603" 
d="M392 89q30 0 58 7.5t54 22.5l51 -85q-36 -22 -77 -33.5t-86 -11.5q-54 0 -103 17t-89 47.5t-69.5 72t-43.5 91.5h-58v60h46q-1 8 -1.5 15.5t-0.5 15.5t0.5 16t1.5 15h-46v60h58q14 50 43.5 91.5t69.5 72t89 47.5t103 17q45 0 86 -11.5t77 -33.5l-51 -85q-25 15 -53 22.5
t-59 7.5t-61.5 -9t-57 -25.5t-47 -40.5t-33.5 -53h211v-60h-229q-1 -7 -1.5 -15t-0.5 -16t0.5 -15.5t1.5 -15.5h229v-60h-210q12 -29 32.5 -53t47 -40.5t57 -25.5t61.5 -9z" />
    <glyph glyph-name="uni2116" unicode="&#x2116;" horiz-adv-x="1255" 
d="M964 706q54 0 101.5 -20.5t82.5 -57t55.5 -84.5t20.5 -103t-20.5 -103.5t-55.5 -84.5t-82.5 -57t-101.5 -21q-53 0 -100.5 21t-82.5 57t-55.5 84.5t-20.5 103.5t20.5 103t55.5 84.5t82.5 57t100.5 20.5zM546 698h101v-700h-131l-367 563v-561h-100v700h130l367 -564v562z
M964 275q33 0 62 13t50.5 35.5t34 53t12.5 64.5q0 33 -12.5 63.5t-34 52.5t-50.5 35t-62 13q-32 0 -61 -13t-50.5 -35t-34 -52.5t-12.5 -63.5q0 -34 12.5 -64.5t34 -53t50.5 -35.5t61 -13zM738 -2v74h453v-74h-453z" />
    <glyph glyph-name="uni2117" unicode="&#x2117;" horiz-adv-x="807" 
d="M404 731q79 0 148.5 -30t121 -81.5t81.5 -121t30 -149.5q0 -79 -30 -148.5t-81.5 -121t-121 -81.5t-148.5 -30q-80 0 -149.5 30t-121 82t-81 121.5t-29.5 147.5q0 80 30 149.5t81.5 121t121 81.5t148.5 30zM717 350q0 64 -24.5 121t-67 99.5t-99.5 67.5t-123 25
q-64 0 -121 -25t-99.5 -67.5t-67 -99.5t-24.5 -121q0 -65 24.5 -121.5t67 -99.5t99 -67.5t121.5 -24.5t122 24t99.5 67t67.5 99.5t25 122.5zM265 601h193q34 0 63 -12.5t50.5 -34.5t34.5 -50.5t13 -62.5q0 -36 -13 -65t-38 -50.5t-62 -33.5t-85 -12q-27 0 -48 3t-37 6v-191
h-71v503zM421 352q25 0 47.5 4.5t40 14.5t28 27t10.5 43q0 18 -7 34.5t-19 28.5t-28 19t-35 7h-122v-167q11 -3 31.5 -7t53.5 -4z" />
    <glyph glyph-name="trademark" unicode="&#x2122;" horiz-adv-x="729" 
d="M17 701h297v-51h-123v-305h-51v305h-123v51zM678 701l34 -356h-52l-26 274l-22 -89l-68 -185h-64l-69 185l-22 89l-27 -274h-50l34 356h57l108 -295l109 295h58z" />
    <glyph glyph-name="onethird" unicode="&#x2153;" horiz-adv-x="827" 
d="M606 701l-404 -701h-65l404 701h65zM181 694v-403h-61v344l-75 -39l-13 52l96 46h53zM700 230q41 -7 68 -34t27 -67q0 -25 -10.5 -47t-31 -38.5t-50 -26t-69.5 -9.5q-41 0 -74 10t-50 20l19 57q6 -5 17.5 -9.5t25.5 -8.5t30 -6.5t32 -2.5q28 0 47 6t30.5 15.5t16.5 22
t5 25.5q0 19 -11 32t-27.5 21t-37 11.5t-38.5 3.5h-40v49h39q16 0 34 3.5t33.5 11t26 19t10.5 27.5q0 21 -20.5 36t-59.5 15q-28 0 -55.5 -9.5t-42.5 -19.5l-19 53q20 13 54 23.5t72 10.5q32 0 57 -8.5t41 -22t24 -31t8 -36.5q0 -32 -20 -57t-61 -38v-1z" />
    <glyph glyph-name="twothirds" unicode="&#x2154;" horiz-adv-x="972" 
d="M749 701l-404 -701h-65l404 701h65zM320 554q-7 -25 -26 -52.5t-45 -54.5t-55.5 -52t-58.5 -46h200v-59h-290v60q30 22 65.5 49.5t67.5 58t55 60t30 52.5q1 5 1 10q0 7 -2 15.5t-9 17.5q-10 13 -26 20t-37 7q-25 0 -46 -7.5t-36.5 -17t-24.5 -17.5l-9 -8l-44 41
q1 1 13 11.5t33 23.5t50 23.5t64 10.5t63.5 -13t46.5 -37q16 -21 20 -39t4 -29q0 -14 -4 -28zM846 230q39 -7 66.5 -34t27.5 -67q0 -25 -10.5 -47t-30.5 -38.5t-50.5 -26t-69.5 -9.5q-40 0 -73.5 10t-49.5 20l19 57q6 -5 17 -9.5t25 -8.5t30 -6.5t32 -2.5q28 0 47 6
t30.5 15.5t16.5 22t5 25.5q0 19 -11 32t-27.5 21t-36.5 11.5t-40 3.5h-39v49h40q15 0 33 3.5t33.5 11t26 19t10.5 27.5q0 21 -20.5 36t-60.5 15q-27 0 -54.5 -9.5t-42.5 -19.5l-19 53q20 13 54 23.5t71 10.5q34 0 58 -8.5t40 -22t24 -31t8 -36.5q0 -32 -19.5 -57t-59.5 -38
v-1z" />
    <glyph glyph-name="oneeighth" unicode="&#x215b;" horiz-adv-x="856" 
d="M604 701l-403 -701h-66l404 701h65zM181 695v-404h-61v345l-75 -39l-12 51l95 47h53zM737 228q39 -12 62 -37.5t23 -62.5q0 -27 -11.5 -49t-32 -38t-48.5 -24.5t-61 -8.5q-35 0 -63 9.5t-47 24.5t-29 35t-10 42q0 36 21 62t61 41v2q-35 15 -50.5 39t-15.5 51
q0 24 10.5 44t29 35t44 23t55.5 8q33 0 57.5 -9t41 -23t24 -32t7.5 -37q0 -26 -15 -51.5t-53 -40.5v-3zM670 376q-36 0 -54.5 -17.5t-18.5 -41.5q0 -27 21.5 -43.5t60.5 -23.5q26 6 44.5 22.5t18.5 43.5q0 10 -4 21t-12.5 19.5t-22 14t-33.5 5.5zM671 56q38 0 61 19t23 46
q0 34 -25 52t-68 28q-37 -8 -57 -27.5t-20 -46.5v-2q0 -26 23 -47.5t63 -21.5z" />
    <glyph glyph-name="threeeighths" unicode="&#x215c;" horiz-adv-x="947" 
d="M696 701l-403 -701h-66l404 701h65zM225 507q40 -6 67 -33t27 -67q0 -25 -10 -47.5t-30.5 -38.5t-51 -26t-69.5 -10q-40 0 -73.5 9.5t-49.5 21.5l19 55q6 -3 17 -7.5t25 -8.5t30 -7t32 -3q28 0 47 6t30.5 15.5t16.5 22t5 25.5q0 20 -11 33t-27.5 21t-36.5 11t-40 3h-39
v50h40q15 0 33 3.5t33.5 11t26 18.5t10.5 28q0 20 -20.5 35.5t-60.5 15.5q-27 0 -54.5 -10t-41.5 -19l-20 52q20 13 54 23.5t71 10.5q34 0 58 -8.5t40.5 -22t24 -31t7.5 -37.5q0 -31 -19.5 -56t-59.5 -38v-1zM830 228q38 -12 61 -37.5t23 -62.5q0 -28 -11.5 -49.5t-32 -37.5
t-48.5 -24.5t-60 -8.5q-36 0 -63.5 9.5t-47 24.5t-29 35t-9.5 42q0 36 21 62t60 41v2q-35 15 -50.5 39t-15.5 51q0 24 10.5 44t29 35t44 23t55.5 8q34 0 58.5 -9t40.5 -23t24 -32t8 -37q0 -26 -15.5 -51.5t-52.5 -40.5v-3zM763 376q-37 0 -55 -17.5t-18 -41.5v-2
q0 -26 21.5 -42t59.5 -23q26 6 45 22.5t19 43.5q0 10 -4 21t-12.5 19.5t-22 14t-33.5 5.5zM764 56q38 0 60.5 19t22.5 46q0 34 -24.5 52t-67.5 27q-37 -7 -57 -26.5t-20 -46.5v-4q0 -25 23 -46t63 -21z" />
    <glyph glyph-name="fiveeighths" unicode="&#x215d;" horiz-adv-x="943" 
d="M699 701l-404 -701h-65l404 701h65zM146 553q37 0 67 -8t51.5 -24.5t32 -39.5t10.5 -50v-9q-1 -28 -13.5 -52t-33.5 -42t-50.5 -28.5t-63.5 -10.5q-31 0 -62 6t-56 21l17 57q12 -9 40 -17t61 -8q20 0 37 5t30.5 14.5t22 23t11.5 31.5q1 5 1 11q0 7 -2 18t-13.5 22.5
t-32 18.5t-54.5 7q-16 0 -32.5 -1.5t-30 -3.5t-23 -4.5t-11.5 -2.5l28 210h207v-60h-155l-11 -85q7 0 14 0.5t14 0.5zM832 228q38 -12 61 -37.5t23 -62.5q0 -27 -11.5 -49t-32 -38t-48.5 -24.5t-61 -8.5q-35 0 -63 9.5t-47 24.5t-29 35t-10 42q0 36 21 62t61 41v2
q-35 15 -50.5 39t-15.5 51q0 24 10.5 44t29 35t43.5 23t55 8q34 0 59 -9t40.5 -23t23.5 -32t8 -37q0 -26 -15 -51.5t-52 -40.5v-3zM764 376q-37 0 -55 -17.5t-18 -41.5v-2q0 -26 22 -42t59 -23q27 6 45.5 22.5t18.5 43.5q0 10 -3.5 21t-12.5 19.5t-23 14t-33 5.5zM765 56
q39 0 61.5 19t22.5 46q0 34 -25 52t-68 28q-36 -8 -56.5 -27.5t-20.5 -46.5v-2q0 -26 23 -47.5t63 -21.5z" />
    <glyph glyph-name="seveneighths" unicode="&#x215e;" horiz-adv-x="923" 
d="M673 701l-404 -701h-65l404 701h65zM316 693v-44l-186 -357h-67l178 342h-206v59h281zM806 228q38 -12 61 -37.5t23 -62.5q0 -27 -11.5 -49t-32 -38t-48.5 -24.5t-60 -8.5q-36 0 -64 9.5t-47 24.5t-28.5 35t-9.5 42q0 36 21 62t60 41v2q-35 15 -50.5 39t-15.5 51
q0 24 10.5 44t29 35t44 23t55.5 8q33 0 58 -9t41 -23t24 -32t8 -37q0 -26 -15.5 -51.5t-52.5 -40.5v-3zM738 376q-36 0 -54.5 -17.5t-18.5 -41.5q0 -27 22 -43.5t60 -23.5q26 6 45 22.5t19 43.5q0 10 -4 21t-12.5 19.5t-22 14t-34.5 5.5zM740 56q38 0 60.5 19t22.5 46
q0 34 -24.5 52t-67.5 28q-37 -8 -57 -27.5t-20 -46.5v-4q0 -25 23 -46t63 -21z" />
    <glyph glyph-name="minus" unicode="&#x2212;" horiz-adv-x="510" 
d="M27 387h456v-73h-456v73z" />
    <glyph glyph-name="integral" unicode="&#x222b;" horiz-adv-x="387" 
d="M66 -158h-10v94h10q17 0 32.5 7t27.5 18.5t18.5 27.5t6.5 34v534q0 37 14.5 69.5t39 57.5t57 39t69.5 14v-94q-17 0 -33 -6.5t-27.5 -18.5t-18.5 -27.5t-7 -33.5v-534q0 -38 -14 -70.5t-38 -57.5t-57 -39t-70 -14z" />
    <glyph glyph-name="approxequal" unicode="&#x2248;" horiz-adv-x="492" 
d="M99 356l-71 9q3 24 11.5 50.5t22.5 48.5t35 37t50 15q31 0 57.5 -14t51 -30.5t49 -31t52.5 -14.5q14 0 22 9t11.5 21.5t3.5 26t-1 24.5l70 9q2 -15 2 -30q0 -13 -2.5 -34t-15 -44t-35 -38t-55.5 -15q-37 0 -67 14.5t-55.5 30.5t-47 30.5t-40.5 14.5q-13 0 -21.5 -11.5
t-14 -26t-8.5 -29t-4 -22.5zM99 172l-71 9q3 23 11.5 49.5t22.5 49t35 37.5t50 15q31 0 57.5 -14.5t51 -31t49 -30.5t52.5 -14q14 0 22 8.5t11.5 21t3.5 26.5t-1 24l70 9q2 -15 2 -30q0 -13 -2.5 -34t-15.5 -43.5t-35 -37.5t-55 -15q-37 0 -67 14t-55.5 30.5t-47 30.5
t-40.5 14q-13 0 -22 -11t-14.5 -25.5t-8 -29.5t-3.5 -22z" />
    <glyph glyph-name="notequal" unicode="&#x2260;" horiz-adv-x="670" 
d="M643 608l-115 -115h76v-74h-149l-137 -137h286v-73h-359l-164 -166l-52 52l113 114h-74v73h147l137 137h-284v74h356l167 167z" />
    <glyph glyph-name="lessequal" unicode="&#x2264;" horiz-adv-x="556" 
d="M515 575l-402 -193v-2l402 -192v-84l-487 243v69l487 241v-82zM28 74h487v-74h-487v74z" />
    <glyph glyph-name="greaterequal" unicode="&#x2265;" horiz-adv-x="560" 
d="M533 416v-69l-487 -243v84l400 192v2l-400 193v82zM46 74h487v-74h-487v74z" />
    <glyph glyph-name="zero.dnom" horiz-adv-x="385" 
d="M192 409q36 0 65.5 -14.5t51 -41.5t33 -65.5t11.5 -86.5t-11.5 -86.5t-33 -65.5t-51 -41.5t-65.5 -14.5t-65.5 14.5t-50.5 41.5t-33 65.5t-12 86.5t12 86.5t33 65.5t50.5 41.5t65.5 14.5zM294 201q0 21 -4.5 47t-16 48.5t-31 37.5t-50.5 15q-30 0 -50 -15t-31 -37.5
t-15.5 -48.5t-4.5 -47q0 -22 4.5 -47.5t15.5 -48t31 -37.5t50 -15q31 0 50.5 15t31 37.5t16 48t4.5 47.5z" />
    <glyph glyph-name="one.dnom" horiz-adv-x="257" 
d="M185 401v-401h-65v342l-76 -39l-13 50l96 48h58z" />
    <glyph glyph-name="two.dnom" horiz-adv-x="355" 
d="M38 61q31 21 66.5 49t67.5 58t55 59.5t29 52.5q2 7 2 13q0 5 -2 13.5t-10 17.5q-10 13 -25.5 20t-36.5 7q-25 0 -46 -8t-36.5 -17t-24.5 -17t-9 -9l-45 40q1 2 13.5 12.5t33 23.5t50 23.5t64.5 10.5t63.5 -13t45.5 -37q17 -20 20.5 -37.5t3.5 -28.5q0 -15 -4 -30
q-6 -25 -23.5 -52t-42.5 -53.5t-55.5 -52t-61.5 -46.5h198v-60h-290v61z" />
    <glyph glyph-name="three.dnom" horiz-adv-x="329" 
d="M213 217q40 -7 67.5 -33.5t27.5 -67.5q0 -24 -10.5 -46.5t-31 -39t-51 -26t-68.5 -9.5q-41 0 -74 9.5t-50 21.5l24 52q6 -3 16.5 -7.5t23.5 -8t28 -5.5t31 -2q29 0 48 6t30 15.5t16.5 21.5t5.5 25q0 20 -11 33.5t-28 21t-37 11t-39 3.5h-39v50h39q15 0 33 3.5t33.5 10.5
t26 18.5t10.5 27.5q0 21 -20.5 36t-59.5 15q-28 0 -52 -8.5t-39 -18.5l-26 51q20 13 54 23.5t72 10.5q33 0 57.5 -8.5t40.5 -22t24 -31.5t8 -37q0 -32 -19.5 -56.5t-60.5 -37.5v-1z" />
    <glyph glyph-name="four.dnom" horiz-adv-x="364" 
d="M284 401v-239h61v-60h-61v-102h-60v102h-205v43l186 256h79zM87 162h137v186z" />
    <glyph glyph-name="five.dnom" horiz-adv-x="322" 
d="M123 341l-12 -85q6 1 13.5 1.5t15.5 0.5q36 0 66 -8.5t51 -25t32 -40.5t11 -53v-5q-1 -28 -13.5 -52t-34 -42t-50.5 -28.5t-62 -10.5q-32 0 -63 6.5t-56 20.5l27 55q11 -7 34.5 -15t57.5 -8q19 0 36 5t30.5 14.5t22 23t11.5 31.5q1 6 1 12t-2.5 17t-13.5 22.5t-31.5 18.5
t-53.5 7q-17 0 -33.5 -1.5t-30 -3.5t-23 -4t-11.5 -3q1 12 3 25t4 28t4.5 32t4.5 37t5.5 41.5t6.5 46.5h206v-60h-153z" />
    <glyph glyph-name="six.dnom" horiz-adv-x="356" 
d="M199 261q28 0 52.5 -9.5t42.5 -26.5t28 -41.5t10 -55.5q0 -28 -10.5 -53.5t-30 -45.5t-47 -32t-60.5 -12q-37 0 -66.5 12.5t-49.5 35.5t-31.5 55t-11.5 72q0 58 20.5 104t52.5 75q29 26 65.5 40.5t82.5 18.5q12 2 22.5 2h18.5v-53q-7 1 -14 1q-3 0 -10 -0.5t-19 -2.5
q-35 -4 -61.5 -16t-45 -29t-29 -39t-13.5 -45h1q15 19 41.5 32t61.5 13zM183 45q18 0 34.5 5t28 16t18 25.5t6.5 32.5q0 47 -26.5 67.5t-65.5 20.5q-27 0 -48.5 -14t-32.5 -35q-2 -4 -4 -10t-2 -12q0 -19 5.5 -36.5t17 -31t28.5 -21t41 -7.5z" />
    <glyph glyph-name="seven.dnom" horiz-adv-x="320" 
d="M303 357l-186 -357h-67l178 341h-206v60h281v-44z" />
    <glyph glyph-name="eight.dnom" horiz-adv-x="338" 
d="M19 104q0 37 20.5 62.5t60.5 40.5v3q-35 15 -50.5 38t-15.5 50q0 25 10.5 45t29 34.5t44 22.5t55.5 8q33 0 58 -8.5t41 -22.5t24 -32.5t8 -37.5q0 -26 -15.5 -51t-52.5 -40v-2q38 -13 61 -38t23 -63q0 -27 -11.5 -49.5t-32 -37.5t-48.5 -24t-60 -9q-36 0 -64 9t-47 24
t-28.5 35.5t-9.5 42.5zM96 302v-2q0 -27 21.5 -42.5t59.5 -23.5q26 6 45 23t19 44q0 10 -4 21t-12.5 20t-22.5 14.5t-34 5.5q-36 0 -54 -18t-18 -42zM161 186q-37 -8 -57 -27.5t-20 -46.5v-4q0 -26 23 -46.5t63 -20.5q38 0 60.5 19.5t22.5 45.5q0 35 -24.5 52.5t-67.5 27.5z
" />
    <glyph glyph-name="nine.dnom" horiz-adv-x="356" 
d="M176 408q36 0 64.5 -12.5t49 -35.5t31 -55t10.5 -71q0 -50 -15 -92.5t-43.5 -73.5t-68 -50t-89.5 -23q-14 -1 -25 -1.5t-20 -0.5v54q6 -1 13 -1q3 0 10 0.5l21 1.5q34 4 60 15.5t44.5 29t29 39.5t15.5 46h-2q-18 -20 -43.5 -32t-59.5 -12q-29 0 -53 9.5t-41.5 26.5
t-27.5 41t-10 53t11 55t30.5 46t47 31.5t61.5 11.5zM260 230q2 4 3.5 9t1.5 12q0 19 -5 37t-16 31.5t-28 21.5t-42 8q-18 0 -33.5 -6t-27 -16.5t-18.5 -25.5t-7 -33q0 -44 25.5 -64.5t64.5 -20.5q28 0 50 14t32 33z" />
    <glyph glyph-name="zero.numr" horiz-adv-x="370" 
d="M185 688q36 0 66 -14.5t51 -41.5t33 -65t12 -87q0 -48 -12 -86.5t-33 -65.5t-51 -41.5t-66 -14.5t-65.5 14.5t-50.5 41.5t-33 65.5t-12 86.5q0 49 12 87t33 65t50.5 41.5t65.5 14.5zM287 480q0 22 -4.5 47.5t-16 48t-31 37.5t-50.5 15q-30 0 -49.5 -15t-31 -37.5t-16 -48
t-4.5 -47.5q0 -21 4.5 -47t16 -48.5t31 -37.5t49.5 -15q31 0 50.5 15t31 37.5t16 48.5t4.5 47z" />
    <glyph glyph-name="one.numr" horiz-adv-x="246" 
d="M187 679v-404h-66v345l-75 -39l-13 51l96 47h58z" />
    <glyph glyph-name="two.numr" horiz-adv-x="361" 
d="M46 341q31 21 66.5 49t67 58t55 59.5t28.5 52.5q2 7 2 14q0 5 -2 13t-9 17q-10 13 -25.5 20t-37.5 7q-25 0 -46 -8t-36.5 -17t-24.5 -17t-9 -9l-43 40q1 2 12.5 12.5t33 23.5t50 23.5t63.5 10.5q36 0 64 -13t47 -37q15 -20 18.5 -38t3.5 -30q0 -14 -3 -28
q-6 -25 -23.5 -52t-42.5 -53.5t-55.5 -52t-62.5 -46.5h199v-60h-290v61z" />
    <glyph glyph-name="three.numr" horiz-adv-x="328" 
d="M212 494q40 -6 67.5 -33t27.5 -67q0 -25 -10.5 -47t-31 -38.5t-51 -26.5t-68.5 -10q-41 0 -74 10t-50 21l24 53q7 -4 17 -8t23 -7.5t28 -5.5t31 -2q29 0 48 5.5t30 15t16.5 22.5t5.5 26q0 19 -11 32t-28 21t-37 11t-39 3h-39v50h39q15 0 33 3.5t33.5 11t26 19t10.5 27.5
q0 20 -20 35.5t-61 15.5q-26 0 -50.5 -8.5t-39.5 -18.5l-25 50q20 13 53.5 23.5t71.5 10.5q33 0 57.5 -8t40.5 -22t24 -31.5t8 -36.5q0 -31 -19.5 -56t-60.5 -39v-1z" />
    <glyph glyph-name="four.numr" horiz-adv-x="374" 
d="M289 676v-239h62v-61h-62v-101h-60v101h-205v44l187 256h78zM92 437h137v186z" />
    <glyph glyph-name="five.numr" horiz-adv-x="330" 
d="M128 616l-12 -86q8 1 14.5 1.5t14.5 0.5q36 0 66 -8.5t52 -25t32.5 -40.5t10.5 -53v-5q-2 -28 -14.5 -52t-33.5 -42t-50 -28.5t-63 -10.5q-31 0 -62 6.5t-56 20.5l26 55q11 -7 35 -14.5t57 -7.5q19 0 36 4.5t30.5 14t22.5 23t12 31.5q1 5 1 11q0 7 -2 18t-13.5 22.5
t-32 19t-54.5 7.5q-16 0 -32.5 -2t-30.5 -4t-23 -4t-11 -3q1 12 3 25t4 28t4 32.5t5 37t5.5 41.5t6.5 46h207v-59h-155z" />
    <glyph glyph-name="six.numr" horiz-adv-x="358" 
d="M198 537q29 0 53.5 -9.5t42 -26.5t28 -41.5t10.5 -55.5q0 -28 -11 -53.5t-30.5 -46t-46.5 -32t-61 -11.5q-37 0 -66 12.5t-49.5 35.5t-31.5 55t-11 71q0 59 20 104.5t53 75.5q28 25 64.5 40t82.5 19q13 2 23 2t18 -1v-52q-9 0 -19.5 -0.5t-23.5 -1.5q-35 -4 -61 -16
t-44.5 -29.5t-29.5 -39t-14 -44.5h1q16 19 42 32t61 13zM183 320q18 0 33.5 5.5t27.5 16t18.5 25.5t6.5 33q0 47 -26 67t-65 20q-27 0 -49 -13.5t-32 -34.5q-3 -5 -4.5 -10.5t-1.5 -11.5q0 -19 5 -36.5t16.5 -31t29 -21.5t41.5 -8z" />
    <glyph glyph-name="seven.numr" horiz-adv-x="323" 
d="M305 632l-186 -357h-67l178 341h-206v60h281v-44z" />
    <glyph glyph-name="eight.numr" horiz-adv-x="349" 
d="M25 384q0 36 21 62t61 41v2q-35 15 -50.5 38.5t-15.5 50.5q0 24 10.5 44.5t29 35t44 22.5t55.5 8q34 0 58.5 -9t40.5 -23t24 -32t8 -37q0 -26 -15.5 -51t-51.5 -41v-2q37 -12 60 -37.5t23 -62.5q0 -27 -11.5 -49.5t-32 -38t-48.5 -24t-61 -8.5q-35 0 -62.5 9t-46.5 24
t-29.5 35.5t-10.5 42.5zM102 581q0 -27 22.5 -43t59.5 -24q26 6 45 22.5t19 43.5q0 11 -4 21.5t-12.5 19.5t-22.5 14.5t-33 5.5q-37 0 -55.5 -18t-18.5 -42zM167 465q-35 -7 -56 -27t-21 -47v-2q0 -26 24 -47.5t63 -21.5t61 19.5t22 45.5q0 35 -24.5 53t-68.5 27z" />
    <glyph glyph-name="nine.numr" horiz-adv-x="357" 
d="M177 687q37 0 65.5 -12.5t48.5 -35.5t31 -55t11 -71q0 -50 -15 -92.5t-43.5 -73.5t-68.5 -49.5t-89 -23.5q-14 -1 -25.5 -1.5t-19.5 -0.5v54q6 -1 13 -1q3 0 10 0.5l21 1.5q34 4 60.5 15.5t44.5 29t28.5 39.5t14.5 46h-1q-18 -20 -44 -32t-59 -12q-29 0 -53.5 9.5
t-41.5 26.5t-27 41t-10 53t10.5 55t30.5 46t47.5 31.5t60.5 11.5zM262 509q2 4 3.5 9t1.5 12q0 19 -5.5 37t-16 31.5t-27.5 21.5t-42 8q-18 0 -34 -6t-27.5 -16.5t-18 -25.5t-6.5 -33q0 -44 25 -64.5t64 -20.5q28 0 50 14t33 33z" />
    <glyph glyph-name="onesuperior.1" horiz-adv-x="224" 
d="M177 751v-404h-66v345l-75 -39l-13 51l96 47h58z" />
    <glyph glyph-name="twosuperior.1" horiz-adv-x="358" 
d="M35 408q31 21 66.5 49t67.5 58t55 59.5t29 52.5q1 6 1 12t-1.5 14.5t-9.5 17.5q-10 13 -26 20t-36 7q-26 0 -47 -8t-36.5 -17t-24 -17t-8.5 -9l-45 40q1 2 13 12.5t33 23.5t50 23.5t65 10.5q34 0 63 -13t46 -36q17 -21 20.5 -38.5t3.5 -28.5q0 -15 -4 -30
q-6 -25 -23.5 -52t-42.5 -53.5t-55.5 -52t-61.5 -46.5h198v-60h-290v61z" />
    <glyph glyph-name="threesuperior.1" horiz-adv-x="343" 
d="M219 561q40 -6 67.5 -33t27.5 -67q0 -25 -10.5 -47t-31 -38.5t-50.5 -26.5t-69 -10q-41 0 -74 10t-50 21l24 53q7 -4 17 -8t23 -7.5t28 -5.5t31 -2q29 0 48 5.5t30.5 15t16.5 22.5t5 26q0 19 -11 32t-28 21t-37 11t-39 3h-39v50h39q16 0 34 3.5t33 11t25.5 19t10.5 27.5
q0 20 -20.5 35.5t-59.5 15.5q-28 0 -52 -8.5t-39 -18.5l-26 50q20 14 54 24t72 10q33 0 57.5 -8t40.5 -22t24 -31.5t8 -36.5q0 -31 -19.5 -56t-60.5 -39v-1z" />
    <glyph glyph-name="grave.case" horiz-adv-x="300" 
d="M169 887l94 -125h-93l-132 125h131z" />
    <glyph glyph-name="dieresis.case" horiz-adv-x="331" 
d="M269 878q26 0 42 -17t16 -43q0 -23 -16 -41t-42 -18q-27 0 -43 18t-16 41q0 26 17 43t42 17zM65 878q24 0 40.5 -17t16.5 -43q0 -23 -16 -41t-42 -18t-43 18t-17 41q0 26 17.5 43t43.5 17z" />
    <glyph glyph-name="macron.case" horiz-adv-x="300" 
d="M56 828h188v-68h-188v68z" />
    <glyph glyph-name="acute.case" horiz-adv-x="300" 
d="M263 887l-132 -127h-93l93 127h132z" />
    <glyph glyph-name="circumflex.case" horiz-adv-x="324" 
d="M200 886l113 -126h-87l-67 75h-2l-66 -75h-87l112 126h84z" />
    <glyph glyph-name="caron.case" horiz-adv-x="320" 
d="M317 887l-113 -127h-83l-114 127h88l67 -75h2l66 75h87z" />
    <glyph glyph-name="breve.case" horiz-adv-x="300" 
d="M266 849q-8 -37 -40.5 -61t-75.5 -24q-42 0 -74.5 24t-41.5 61l62 12q4 -15 19 -26.5t35 -11.5q21 0 36 11.5t18 26.5z" />
    <glyph glyph-name="dotaccent.case" horiz-adv-x="187" 
d="M94 753q-29 0 -47 19.5t-18 45.5q0 28 18.5 46.5t46.5 18.5t46 -18.5t18 -46.5q0 -26 -17.5 -45.5t-46.5 -19.5z" />
    <glyph glyph-name="ring.case" horiz-adv-x="300" 
d="M151 749q-50 0 -80.5 27.5t-30.5 66.5q0 42 29.5 70.5t81.5 28.5t80.5 -28t28.5 -71q0 -40 -30.5 -67t-78.5 -27zM149 899q-23 0 -36 -16.5t-13 -39.5q0 -19 13.5 -35t36.5 -16q22 0 36 15t14 38q0 22 -14 38t-37 16z" />
    <glyph glyph-name="tilde.case" horiz-adv-x="300" 
d="M205 829q13 0 19.5 8t8.5 35h57v-10q0 -49 -18.5 -74.5t-56.5 -25.5q-19 0 -35 5t-34 15q-15 8 -27 14t-24 6t-18.5 -12.5t-8.5 -34.5h-58v9q0 48 20 77.5t56 29.5q19 0 34.5 -6.5t32.5 -15.5q14 -8 27 -14t25 -6z" />
    <glyph glyph-name="hungarumlaut.case" horiz-adv-x="350" 
d="M198 887l-96 -126h-93l93 126h96zM342 887l-96 -126h-94l94 126h96z" />
    <glyph glyph-name="caron.salt" horiz-adv-x="325" 
d="M318 887l-112 -126h-84l-114 126h88l67 -75h2l67 75h86z" />
    <glyph glyph-name="uni0326.salt" horiz-adv-x="232" 
d="M180 -88q-1 -19 -9.5 -41t-19.5 -43.5t-22 -41t-19 -31.5l-54 -6q9 27 23.5 59.5t22.5 67.5q-14 5 -22.5 14.5t-10.5 25.5v7q0 20 15 35t43 15q17 0 28 -6.5t16.5 -15.5t7 -18t1.5 -15v-6z" />
    </font>
</defs>
</svg>
